<mxfile host="app.diagrams.net" modified="2022-08-16T11:42:47.565Z" agent="5.0 (X11; Linux x86_64) AppleWebKit/537.36 (KHTML, like Gecko) Chrome/104.0.5112.79 Safari/537.36" etag="rJUvK_WJVZRYeIzFFqKc" version="20.1.1" type="github">
  <diagram id="u9Z6djcyy6pafCkZtd2Q" name="Page-1">
    <mxGraphModel dx="1422" dy="702" grid="1" gridSize="10" guides="1" tooltips="1" connect="1" arrows="1" fold="1" page="1" pageScale="1" pageWidth="827" pageHeight="1169" math="0" shadow="0">
      <root>
        <mxCell id="0" />
        <mxCell id="1" parent="0" />
        <mxCell id="1JW5AIUkaNVzZbY3p2NB-8" style="edgeStyle=orthogonalEdgeStyle;rounded=0;orthogonalLoop=1;jettySize=auto;html=1;" edge="1" parent="1" source="1JW5AIUkaNVzZbY3p2NB-2">
          <mxGeometry relative="1" as="geometry">
            <mxPoint x="387.5" y="172" as="targetPoint" />
          </mxGeometry>
        </mxCell>
        <mxCell id="1JW5AIUkaNVzZbY3p2NB-2" value="" style="image;image=img/lib/atlassian/Bitbucket_Logo.svg;" vertex="1" parent="1">
          <mxGeometry x="345" y="267.38" width="85" height="79.75" as="geometry" />
        </mxCell>
        <mxCell id="1JW5AIUkaNVzZbY3p2NB-5" style="edgeStyle=orthogonalEdgeStyle;rounded=0;orthogonalLoop=1;jettySize=auto;html=1;entryX=0;entryY=0.5;entryDx=0;entryDy=0;" edge="1" parent="1" source="1JW5AIUkaNVzZbY3p2NB-4" target="1JW5AIUkaNVzZbY3p2NB-2">
          <mxGeometry relative="1" as="geometry" />
        </mxCell>
        <mxCell id="1JW5AIUkaNVzZbY3p2NB-4" value="" style="shape=image;verticalLabelPosition=bottom;verticalAlign=top;imageAspect=0;aspect=fixed;image=data:image/png,iVBORw0KGgoAAAANSUhEUgAAAUAAAAF9CAYAAAB1dLHZAAAgAElEQVR4nOy9f9SdV3Xf+TnPvbp6/fqVELIsG9kIYWxjyz9wXeooLnUVXpUyND9okyFJm0naNC2Tpi2rzcqkTCYrK8uTlcVQFtPJZDEZJhOS0AxtSUtaQgmViXCMsY1xjTDCNrIsy7KQZVmWX7969eq+9z5n/njOee5+zvPjnn2uJEPDWcsL/Fhb57nP2Wef/d37u/cxKMeePbvL/793777vyl4AWSn3asl+J3ynP2+y39WL8y/bT/hLM/Eov9CyDXKviqy1F/63vtqy1pIZA9amz5sg+6qvbazc+ZK1FozRy/r1SZ1XPPq2lm34TmrZ4HGrbJQBXFzcjTFkwV88Ur6QNCbJspp5ncJ42RzdR5TfJhcLoZZVyM0iG34ntaz/jcakz2vMxVnbVNnFxd2Q8I3FvDPLaoxf0/qkyIrH0bLWzrb3UmWp/97otdXu+akGULxQHwpPyBjyGJdULLp8odE99+hk3UmQWxsvay19+SGsJU+V3bt3X6zSlN8JCkN/zz1xsohv7MYodt5ZZJ3C9MVpGyUb6gVO2WbRi4sha+1E1ulE1HcShtPPG/2NQ73QyBKs7cXQKb+2xqSvrTGTfYtybZ3xVO1556RV1jbGTsV4gH3554xRLZ6UVRkhYACTDwFxsk5RB8EpEGs4s9D4EX9yeWUrN4jCk6rIapS8Yd6hYmOW6+OMX7Ss+06pm7qiFyg2l7W1tdVszFKn3AaJ9SwyubkodCLWcNbWNlUvQK0XA/Eoem0J9jyJaysO1KlCcn2Eh5xkLygQW9S8jQbQwzFrGcDEO7CW4bQFcJa4IgtgzHTZwKuQG2TqAgjZgTxBiFgAKas9uUS8opTFGb9I2b70StymnLoxxYk3kN4bERtTeFEDzdoKmF5bW7E+Wcs/m4wxGweDdfP33//QvPu+w9XVc0vj8fgUsMIEslT+ESEY+Y29kkfrBcoNItcWdEa3RR9Hinn7VL2hKL0QXu5Arg9T9KJpz3vZyG9cyrr/jzGsKtan7w5VLxs7b/mNheGMMn7Q7QEOjClOEK+sMSemUNS+MCSxC+AVtS+UXPMh5qh6jUmywMhaVqedPtKQeK/EKdtw2gK4eEXfGObkogPDmHmdsknjN3RGLOadB+4fDzOi1taNOUq9sfn+/V/PXnjh5DZgK7AFuBa4EdgO7ACuBDbjTvbRaMxoNMJayPPK0gyBE8Ax4CjwJPAEcHTfvj878ZrXbFy65podpzdtes2I2fRipDD2lbWlMECrCgM25+YE3frUZInUKcS+dfKrxBuE2p4nwug6I13Z8zFG141yzwsDpjGcoWyUp+sdtUYD6LyZAZSn7ari5JIbs/yIEQuQWVtsLmPiDaeXpbIxC0WNlPWnpf+II7e5OoWE9zYXbJCo7+SNH+gMZ2DA/Km3SqThdHJz4rFmbeeAwfHjz88dOXL0huXlM7flef5mCqN3DXB18HeXI8syjDHe28Ta2tIMnPzVwB3i+RJw+JVXlo/u3//1Q8aYL4/H44fyPD/I9PVt0ovhNAgq10d4FiPi16cPhSzoDjbE2rrHar0Q80YZP7m23vMjYc+7OXMKYz817OS+85wPpbiwxNT1cSNc29xaVmNkZaa43/AfSvjp3VimfMTAFR04AwaoZEvjR6HYK0yBGkJ2XrrAxrA6Ld4YegduY47c7431Dkrjp5WVxs95YNFK7pTGD+0GmXNzRq3t/PwlrF8/6D/xxDc3Li+vXLuysvJD4/F493g83m6t3QTMM9msjSM0fnluERutc/R62UZjuNXa/NY8J8/z/LS19jTwGPCHwD4Kz7E8LKVeiHfLcYfiNJ1yulTqBe5AnUaFCry3Utatb+cQ8c1ZjJ/aa/TGzyEKnLx6z/t5nRHqNH4iS1wav4R5K8YPWNGEnbxcOfniJIUsrXGs+9xkwKJkhbJ5/J8Dq7HxQu+BScMZ6T6Xiuoej4xhRQlvUmXnYQJ7XawkRjY0fqsoldzLurWdJjt39uzqDWtro93Lyyt/01q7y1o7yPMcG2nBsiwjy4pJPeyNle31CsNZyFrG4zyjgNObKTzOHwROA58B/gPwaK+XHXJzzUOaXnjj59Zn5GQ731UggvngcIoOpTiPUxqwaL0g8OqJh8xzUOpFbm2c4XT7diBlifQa/Z4XqMvD3k647d630fhpYo1CLpfWt5Iyd267xgUOXVGN613KeqPbKViM8gQRcNsH0qNkqWb1tLGdZFmv5O4bq5R8Bs+vNH5ufbpkM2A38EPGmN3W2puBzFqrMmAT42fQyobGL89b5TYBf5vCGD6a5/Y/P/zwI5+55ZabDq9fvz7HxXNjYC/B2jrjF7U+Mp7rRjRkFp7fRTN+IXR1Q4VEvGxCmKzRWeoUpLRRofGLCnUJg+3lcvxfJLwpuQDRLjDVjzj1Q4RurE94EOHGSlmX7SpliYQ3VKFRVLywKbYD8bA3jPmhT1pI6KreICKr12X8FoBbgZ8D9mRZttkY0wer9t487C3eeRbjB+NxFANjAXhblpm3Li+v/P0HH/zKZy+9dP4jwMH169fnx48/3yoY6FTF+Glhr3tnTThk4PQCJ6s1QpW1jdEp6fm5OaNkxf4pYa8bK0TaCxnzE7Kd+3ZxwgKo2AtjWFGEunxooWQX7N27j74MCJoJ9UMVhBQvtBoT/KTBjTWRKfPQfXZQPRneWMuKJjMng+LWTodGixMCbQX2EgmNnHcgvUYV7KVKh2iTXQBuA/4J8C5gYRboej5hb5Apbh3GlEZ3Duw14/HoH7300ul3A/8PBTzeT4NBaovbkQB7E0IaJSJwv0EVDkF4fn5tI3W5DIf4xEOMLIHD4+xFdJjMJzlhEmJTZvIrxk8R6iqNn5u3fN8wCxxV9SA2Zg26xi4AibDXxwthEi8k3gUuDZg/4ZW0hEpQXCMrYm/R3ps3fuKxCvY2JKSaZK8FfhZ4N0VcjSwzydD1fMPe2GRJ6HE6r3Eb8C8o4PFHgT+giBnKMXNIQxg/Ney9mDE/eSjKUIoGiQRQXZVl9uEqmV/oFKQeLxRGVxvqymlgeIRs75gfkoWLZ2bM3hCf7S1lTcFfi4LM7iPKoLga9kKF5KyRnZcnfGxGEAGNUmFvR8wvo/D6vh+4m4J6MoDZoOurAHsbZG0oO6Dwbj8A/E3g14H79uzZPfSZSKoJj+i1dR5NJWMbKVuurTOeathb/NapIY1QtoS9Tn6qrN8/Mk7pRjTsJdi3JOx5ES9Uh7rE2tbet+8exGpbJXWtdYGhMfMTBXtp+BCxZNYQ9sbOS2D8jCIj6H7nPFRP+BSuXizsDWM7bjQp+S4KuPtuOc93MOwtZTsM5wKwh+K3//q9997/iV273npyMCg/lQr2QoX/qTmcSpKzl02FvSSwAKBCfp8qS+E0DKytcHvV7BD37ylUJAmZp8JeEXIKk1mNBOlO/lb4UogqDZ/5QUe0rFBdUMBeI+g51sbDXgLvjUTPzygygkyMrv9OSfBGyEYZP3dCV4xfIDsAfowCDr6HivGTsDfV+OllLwDsnTYWjOGX83z8m48++rVd7tkoIW4nIXNS0gKlXjiP0xHJdZ5fEA7R8k4lZI7e89bWEpXRhtPDXphAZhvRks4dShV+bpe90HSDUQc/22CvMTqSM9UkTapsafwiZCt8Li00cvP64aFR53An1yzZ3prnR3Vjbgd+HvgJCh5dOf4bhL1T3rk3B7xjZeXsW++99/73Z5n5t71eLzaTX1lb50nFyFZgLzPE/GIRQRP/kwivMQx1iX0QBXsdZJbZ3uhwFQ1I0duLmGyvrfI/y3BV27wx3WDa3NgkF9idXCo2vpg3OvPjFiAZ9or4mYrkbAMirBbeiKB4KrwBKpSGDLgZ+CDwjlD+v3HYG8gWXq4TzazNtwyHow8BNwEfoqhBrg1v/Gg4nDQkZ/E4yfil6kVHLLh1yJif8MCiGR6B8dPu+UqoS7vn3eOoPd8JgUPY64Ya9sIE9pq4NjU+aVFLlkwTZLIAqsB2U+zAGb9oIix1onJ0tpegjClGUYXXWMv2CuO3G/gIRfyrMl592OszxRcc9jrDaZpkNwL/I/CbFI0bKkMaMGNqMaXOOZu8egqvcapetMjOku2NMn4+jmwaGirEMjxMtY+gZs8nMTwQFWHu36N7ATR6gC6eVMn8eNg77RQ437CXhLpgzgPsRZntDaERCtib6h24mFAb7B0Af4vC89tGcNi9mrAX0qBrKuwtjF/PHxDkec3jnKPIiP8b4BeAR4BRm1ePIttLFboOKQxC52iDvTaerlLz/JjC8/N7nmphQ3SoSyYqhawmY6u2F4uT0rj50PjZyN6jjQbQfbiaC0xcY9FKVxeUmR+qAcxowqOAKBWqSwrsRZ8RrJCcbXwrrVpWT6Hkcn3CuNA8RZLjQwTxPpiNq/cdDnu75s2Auyi85V/cs2f3XprDIUnJLGU8tzEcouDYTmMB1IYxVdiLsp6foDJrWuxNjIrnh4sXKtqVNXE4o7jM0A6BB1SNY1K2FyZeowb22qDUZZqgNJxuIbXtsGqZ4hRKg9G3Pap4fhrjR4N34N55jiLR8Ws0Gj9Twk+YheT8HQ17u8btwIf37bvvToReKMMhpRelgb0tMT8N+b2s/EmJF3pZD7dj9q2EvS4ME91EZU/RtboMdYkwmbqe3+/5GHsh0GLW2Q6LSAw/jbQYCZlr3Ts0srahPjcG9iIytrHxwqaMoMsGrnbJQT2244YK3tAAe53sAPhpCtLvQihfbUv15x72dsiam8F+9IEHvvz+m2664b4NGzasWDsd9jaFNDwiiIG91tbqgpNIzs4JiJWttLFDeH6xoS7T0JBEAXsraC9GlnqYrNzziuoskN1gpPETP2bIBSQ8Qr1ETQN7aSlR08iK0zIK9jol7xszqfDgPGR7FXXBXTG/91BUdjQav+/C3ljZDDA7V1fP3b1//4F/9pf/8vd8PsUz94eipuZbPI42fi4BUAmHKGWTGB623sBYDXul4UwpTmDC4YytKa60w5IQOGOSPIBI4xdme1HAXu8C2wbOT6cgdZJzCuy1tmY4p70vTllKiGJMPKlUQiNn7DXwprZBhGxGQXH5Vb6tYW/+7Qp7naxx84L7TreePXv27r17913dJSc2Znk4ubWNPhRNes13U8ZWI5vM8PCwF4XhlLBXGL8k2GtMXKISSnsxYGI4cxDtsIQx8J6fuj5XurGx0NVMsjdasuTM2V5v/GxkvzgX5K2Vt3XJiXkbPb/zRHJ+GwWNY3so/+0Be/PvBNhbGr/iQC1ldwG/RdEi7HAo17K2UeGQNs+PNJ5fTnwcubGwwSYyPFDW9ga2Rt353T3WhLr8OwPlbYDVdljihWLvwU3K9npZqtkbVW0v6S5wU/eO6HZYRrSl8vBGU8Yk4kDaOzy6AtvXUsT8Go3fd2FvrKyf14ayGQWH8v3ALyK6ybQls0j3/JLI71DqY7RO2Wo7rGiGB4mhLikr0Z4yXFVxeBJCXTlMjJ9/KTk0FydXXGAb3wW6lvmxVkdylh8i1gUm6N5hlLW9VE8uNVFZPFbBXrq9xi0Um/Ktofy3B+zlosDeQvZ8wd5Gwzmg6Dr9k/6BQAQSfiaXt5GQ7RUoRhXz87LunVW1vVQbGGtgb6PX2ClYjKxp30bKlntehLoq71smQaa5v+6HQIsLnAJdSSBIh3G7SNkayZliATrH+YK9QnaVCIJ0SEtwIzR+cxQdXX6SgM/5Xdg7M+xtGgsUMdYn169f/zkayttis72IxgaacIg7UCtdXYg3nBnoeX6zZns5T4UNArHFcor7UGlU21i9k9QOi9lcYHVtr52Umc1EcpawV5HtnamG09sOo2PyV27aonmD7Ab+EVXv8tsI9ka6fQ2y3wawt21sBH4JOGatPeyNvdHVBQ+gHg5JKW+zij6CPgGnTVrYoC2VUWZ7Aw8suiiCgOHhk5yxe95Ue2m2li7GNEMoWdPUEx7RJ4jzwGqnQMS8YVOEpDs8HFzwsp0jrCyBeGVbXKwGtr3XOM34iW/c6DUG824FfoUCApcjhIGvjvHTwV4vW/z5NNirla16ftHGDyAzxtxhbf7eZ5997u7t269eIfFQFHHkmM4skFDhEcoGRjdm30K1M4tGtuI1kpAsoYoUY/d8aHQ77YWmHVaFtxMbwLSiG7P/ENrgJ8L4Wd0dHhK6qpuZhlm92JNWJkuITHi4MQ32QuGF/CpB3O/bpauLHvZmgCXNgKm8t/Mi2+tlgzy3//DZZ5/7r69//VUfN8aoE2GauJ0bpfGz4g4PrfeGEva6903pzNLYxi5W1jtLEvYq7EUJe4m4rlbdDssoe/J7781MMk6xnl9jnZ/yDg8/Rja+Prd0n8UpnXqHhwbeVO7wsLZR1mck341Yu+9s2GtngL2pxq+QTYkXuqRS/9y5c++7554v7KWBGiPHrLDX2hrPT1symdy93dQJ0qpEZQh7I9437LQdbfxsvRtT1J5vNYBBuUrl5jfiXeAyaSGNXwJfKKmTs3s8IoJo2USxMZEk5xD2wqQuWAON5AZpmXcj8D5E26bvZNjr3/niw97UeGEFMl8PvJciFNGY2ErN9rbBXpdkiQ2lNNUFqzw/AdVnLodNgL2abkyloyW9xml7HloMoPxLrbiNyVqdCyxPAQ3sdQtQBj+nubFSFtGZhQgXuEkWZqY0zFzb2zBvRtG37q7ywXcY7DUz8/xeNdiL966tzb2nO6BoOvFnwGcJNuosiMANqRfR2V4KPZFJNH+FhKq2V8y7es89+zqvrggNp5C9oM1MmxweE8nt9aPNA8zcB5R370aXq8ggZCrsFQYsmqvnYyz+FLDxHTjCuuBZsr1aiBJj/ACuB37K/8v5gb3n5+rK2HF+SM6vGuxt+r1XA38PuA9Y8g+bSM42sjnBoqC6iHjhkIg4skciBBUe07w3McI4f/S9Pbbhzl8UkHmGmF/N84v5rd5o1wygiIOFvb1imyJWsr0a2BueAgoXuBI7iHWBRcJDZo2S2lL5eCFKOoR/NmWDzFFstGtgdth7vu7wuHiwdwJdX2XY2/RH3wXcSeEFNnp+VpHttQFRmQivsStTjBL2QhrsDezFzA2MWwWDeWngCHbJBvJVDzAMnEJ8c0Irsr1eFmWHh8CAqaCr8MCieX624ZIbIg1YE7yJOeFD2Gvjune8laK78+DPM+y9mJniFtjbNOYpuIH3Ly7uXqKhvC1GL9yQXV2is70I2CtibzMlPGJgr7XVri4klrS6xzPD3kjPr2z6Qks7LG9R/d2hqmyvlyW+1KXtQ0z7ITApdQF05W3C8/NGKKmGU8iqsr3ufTHTu3cMKC70vubPO+w9z+VtnbIdsLdp3Ay8yxj+PfFefTmaYsEpOiXDVTa+sqt2VzeK62ptQxfoGFmCZqZGUc/fEi/snFB4fZV2WGE3GMnbGZrI8jbbQHK2U3ryt2V+SEiZ+3hhrKw3fnZCkE6uz9UaTqqQOWaDXAn8ZJaZ7Luwd/q4SLA3HBuzLPvRAweeeOjGG998svi7VHfvVhobRByKcv8MaKjtnbb3rK01MwElyZnEbK8NeH6KUFclXog+TCaRbW7M5EFp/Nx/mNoUIXwh/xcbxR0epl7hoYG9ahdYxDdrtb0pBozE7h1eNmKDZMDPZlm25buwVy97AWFvZWSZybLM3PXyyy/vWlsbfnrdukF0ba/zZkrvjchsr4u3z3SHhwmurpwGexeLBE2tHDY2TEY91OXDZJ3vO8ued+8sm1bkFAdEDpCJACoQZ/zc8Fy9pA4PDcZPew+H+g4Pa6uQmRkup0bf1aV2S9c0WWPM1VmWvevVvbryu7B3mmxRzWI2r62t/XeHDj2TEakXxlRJzkR2GXKyA+pVQ1FdXdy8tWsvOgUBZ7gq2V4b0UvTjczaSScna9MdHohneLjfWc6La4fl/0wlCaKIG5TZGxF3SOrq4j6Eiqhsg75gKGAvE8OpgShhP78kw+kTHkTAm4MHD2XPPXfsXdbaHYVsKuw1q8CpPM8XrLULTJSodYSw92J0dZm88wWHvUMKyspmitreVNjrjPVEdjTK3/Xcc8d+5ejR5053yTmvpJYIIxH2UoSconh+NiA5EwFdFxd3V4yfTHhMk22xF2rYS0Jhg60yPHK62mERf/FxpUrDGz9N9sZWKzw0tb2h8VPd4QFpCQ/vNcYqqpCtsPFjZQFeeWX5ajB/A+zGGTy/R/v97Hf6/XWfWF4+swv474E7KJqoNhrCV7eZ6QWFvTlwFPgk8K+Bjxhj7pgB9pZeo5DdTNE38H9tkwv1AibZ3siGpBWSMxEXGAnZWj8/TahLyqbueW3Cg4Q9H4a6/J63DfS25HZYImYRfYeHMfXyNmVtr/oODyEL6Iyfy6yFnp8K9oqTVlH/aefW1tZusNbePoPx23/JJZe877rr3vjA5s2bh3v37vuPwOcpMpbvAH4AuBWReWyCvbEJj/Nl/C4g7P0sxbUB+3q93hD4XeB6MJtmgL3unSuG8weA/x1YDuVkLNgIknPTxmyRDT0/9XW17pGK5CxljbIXAMG+VSYtmtphdU64uFjx/Lz+th4wmnZYJXSFkime5AKT2NLKPdZ+xArPzxbUns7RQXWJNbolvIk1fhLenDlzZm44HP4Va+2VibD3sbm5uV+87rpr7t+8+bVygywDDwCPAP83hTH8B8CuXi/bbIxZ8L/31YC96RnbVtlV4CDFZef/Fji1Z8/uHBh885tPffrYseM/kOf5O2eBvQ1e4w6KO1o+Kx9KvQgM2NTaXpexHRhTOVBXUGZsoUpR08hKz08hW/KCJezV1AXLOD8Je957fm0yqnZYEvaScI2de6wiPFpRF0xCSyvxOLlKIxa6hrEdN6Jhr1fypaVX5kaj8Q/meZ4leH5L/X7/N3bufPPejRs3tG2QIXAcOP6Wt9y879lnj+04e/bs20ej0V/L8/z6PB9fQ8PVmuE437D3PNb2rgCPAf8O+AQF9K3o43XXven06dMvf+CVV165K8/tPBGjBfaGf2wz8NcovO2hmDe5tlcmPIyyq4ut1+dqjVDFcE7btz7kRENjgwtJcm5zeJiy56PaYVnb3MY+UrZW5zdNdorh7JxQ4P/zVttLGiFVHS/0J/y3vvX81ePxeGdKthd4aDBY98kO41eZ11oGl1++5YS19hPPPPPspw4fPrLNWq4H/iqFJ7OTFj05P1dXnlfYO6IwPH8I3As8idM1/1thsj4333zjQ1/84oOfRNz10TVvB+yVo08RWrgSOBLCXoEm1KEUN9RXV7pH6uoQa/Ww1ydLUhKVCIfHe35G2QvAzQmRe76zHRbUa3tRZn7MhPMzsnb67e2hJZeQ2Xme0bJuqGAv6D9iqOROPtb4lVk9P+/LLy/tsdZGhScCIzQCPnDHHX/xlL7+0+RveMP2kzt2bD+xd+++R4FPU3zHqylihn8VuAHYBMz3etlcOuw9b3d4jPI8X6LwZj9H4fEdoID6ZXwrDGkUfxfDSy65ZBX4DYpa3mvb33cq7A3HzcC13/M9f/Go9+qlXkyL+YXZXicHimwvQcyPyH1rbTXOr5GlI9SlsBdAvOEUHqe882dIse+njtZ2WHZClqyUt80Ce5U1gsCELxTZCaPs5AyTuF1qbS8J97O6uTUlUJWs3sGDh/I8zxc7Bd1oIDk/aq19eIb6T7k+K+6fk8CjwP8GbM2y7I5er3erMdxkLVfneb51PM63UfQq7Bzn6Q6PZeAY5E/mef4Y8CVgH6IbixwtOiWb3D4G/AHwP8k/E86rzBRfCdx27tzwgQ0bJt1VbOTVlW6Uxg/hvcVme229vC3K+BnRAk/L8Gjx3tR7HmWoCybd221kQxI/WtthmXorbdXVlQTBT4X31hQ76JwwdIFBT3VpSHgkkZy1sNfaarzw8OEj19Bwx284Wmp7/4gpt935OGXDBpmaEVxc3H3SGPYB9z7//Im5Y8e+tfn06aWNFHeUXA28iaJjzQ7371uYxHJqXWwivMYcOGGMOdzv9w73er2v93q9g9Zy5Ny5cweBE13C4mCTfLuww/cq8G+A91B4uOWoE6Q1NJnsL587N/w4lDfFaa5SVXd1gfL3ht6b5vKjsIfn1H3rRlInJzfCu3dUez4MdcV8YyFfb4flFmAA9ZifNvOD+BAxsNcGV1faCJa5THgIIzQk/vrJMOGRlO2F6NreCuz1yubCAyPgNopAeutoqe09ATxEd3fi8wJvAK64YuvK1q1bT5pJvbgvNB8wqbucA7ZlWXblYLBuG7DZWjaMx+PBeDyuFKVTbNSXKTy5E8Ax4Pj8/Pzq1q1b+nNzc6MNGxaGGzduWAETW6fe1KW76VKsx4GPAh/yDxJgbzmKZIl525kzZ+bdfGqSs3scZcACxKaGvdTpKqVsTIaaaphMm+2V4aokhocIVw2nyTp5j2pb22HN4sYmt7eRxg8FQdoEFxgxQydnlCRnSIO9QtY3mx3t3bsvA26iiLM1jo7a3kPAkY6pm+JCGiJsjdIQQOYysxnIHic44dGHQ1K8g3Btu/QiBz5Gcc/yjkTYC1QyxVtPn355O4Uhj22HpTZ+ftoGxLZqpzQk8bI0xAtj963zwCoJj4sBe41geNjIe3ucfIaoYOtsh0X6RSiq29tJVHIbXIRiFfekIio83Ihi4wsPWV3h0ZIRlEq+QAEfW7OuHS2tjlBstrZ3rmT1nLcaS4QN+Z9qvXCy0Se8tfXNpTR+ZeY00qs/DXzUGHN3lmVZGuytZorPnFm5Gbg3pWoIZba3IWMbU9lVKUsF/Z4nICpHyjZyexXGrxKuUuz5PlVkW2mH1TeTjK0/zS905ifM2KpcYHkKdMCbmqytV3gkeX5CUZNgb2D8oIilNWYjp7S0GlIQfiuJABnYJoC9kRAyXNuLlRFs6tgzFd74w8lWr5+M0ou3vW1X/sgjX/30cLj2w2Bv13t+maPKVNbnL0XE/Eq9CByP6E7OpIc0GmFv5OjhCw8AACAASURBVLypsLeR4UH8oZi05xHtsBzqyv1DmHwE/x9j22G19eTXZI38UBEefbxQJC1SEx6qqytJIDk3ZXtpVvJNFMmDyohoaTUEnm6YuonJHx2fsbZuwGao4dTKEsh2iVZgb6pevPnN1x07cOCJz47Ho53W5nPKmB8NnrnnUDZ62uJALdfHRrSi99O2JDw617ZN1ipbWjFDqEs81tb2JnVycoazDC1I+9bUDms47ce4UV5+JH6MygU2ImVulRcYyYSHtWmkUqPP9s4cL3Sbs+2E30ThBZYjsqXVKkH8T24uN2/ZKTiSJhPyP5OgkRH8zy6hps2lNH599LC3sraXXbZ5eMklc3+c5/ZYKuwN1mcT4grTcF5btIfqi3eOMn6S5BwYvxhZv7YVWRPZ0oqGmnwi97y3F37Pk9ACD0qqS/S+NUHrPZnZlrGmnIjT43y5wCLWoW1vU+P5CS+ya97SgGmgq4+foWxd5OYNyaxe2ZoUNaOAv6WRVXRyHuIMYFO214p2ZZEtk1Jhb6PnFwm3azWcxMObJNgr4rnlN7/xxjc/8qUvPfQp4J9Pk2+BvfKPLFDQgo4G75yR0Mx0cXF3WWnBbCTn2tUVGtgr0V6kbIXhYfQVYZWuLm7/dQ6558VvHRLERmVfsFjjV+nqivL29sCNVd3b62WlkmsSHjLmZxUdOGxahUfJQfMLEAFv3uj/j7KT8wg45UWhRmbVsvHVNZy22nvNv1O0LHUWwEWBvbZaPrV66aXzQ+C3Ke5gbq0R7oC9cswReIChTon1meq9NRk/p1NRsNc0cHs1a2uMPqTRkKjU3tU9U0mreDy0DVU0ffcgto4pbIqgIjya5pR5p1CLZ6GGrnKDKI1fci9Ab/zcmKbkGS7+l3CB0Qg4HWYEaU60dM1fZnuF7NS1taLVGcSf8G5UGtVq9cJWrxmYaYMwWdtDFDXF398kPwX2yjFAhDRkOEToY1K2Fyr0qWmytdpeo6jnl2uLkuTcIjvtfSHY81bP8Chj9d5enJd2WCRm9bwLLGRXuvd0J+FR5QL7Z96ARULmWuuiSMNZti5yj0ojFMHJujrxAqPTb3/7XSOK76TOCDolmxn2+kORRBaAFvYiDjbQQyM3J9TDIasUXuBugq44EbBXjjngcjdvjeQcY/wC6FoLacSura1SXTSXls3M8JB7HiBBNkkv3OiUjW2H1RjbUV6EgjjhNdneZNgL6dnewLOY2rctmNfHC6M9sEsvnc9WV1e31m9giwrGL2dZ1ti9IxIaVap3UGbyoYoILla2d5aEh0w80KwX+yn6Jt7lH0TCXjn6wKZNm16TUQ2lJJGcrSKT72Wp8nNzawsKVGRDkvNJcr4oJa1ae9FpAF2QuKzzC0+BiBdqzOp1/hJqhtNvzCjoutgQ2I6BzCIbHp4gUw3nYhGcxoobvty8sXwujh9/fu7xx7+5uSDfqowfvV5vhLL+Mzzh3eOobK/koIXxwkjZpA7fbm19ud1Mh6KQbVvboxTNY+8E+hPYq/LMAeZf+9pNGykMlx/RekE1kx8ta21jL8Cp/E+/5wk4gjayLFXKusdJV926x9pQl0RsUXoxrR1WU4cHVXPCINur4vlBVck1zUwjTvjKcO9ZaWlFZKbYLdiAxKaVwNy6desGYDfpjV9GlmWrMqs37ZQWSl6DRlrPT+PVLy7WM/kQV8bUkszScMEawyEdskPgj4GfyLJsW+rVov1+byOwYC1LzAB70a1PebAJr1ElG3h+UWWpDoGU/FyU9iLc89bG7/kwmUVk+WFrOyxcYbYx+uC0bcj2xspSJ0gnZ3tjjZ/z4MITRJ3tdXNqOFnglHw4XMusZZB4deXIKEoXncGu3Mynga4S9pLA5woOxQtR21uTNQmtznq97BFrOZJlZpsC9pajiBdmvvHDTLW9MR6Yl6Ve4ZHsmSuMUNmZxY2o8jbv1TfteY3xk7Fg4muv29thUU23R3dmQWT1vCyJkBm9C1wjSKe0wCe+ewcE2V5rpyc8vKyHKNbC2bNn+7Pc24uufGrehzREnFIFb2YJhwRGt0tUylZgr8Y7oB4vnLq2/tC/9977783z8a70a0npj8d5Rjv/M5w33HvEyhJQoEgsjYNJMisF9lrdtZc1krOJzPbahlZnxB+KWEu9HZbPVglopIa9/pnVc35qsHeWKo3IDdLUey3qrgYCkrNVlDEhWhcZQ37ixAvD9EvLc/bu3dfZ2CDk+XnIrIBGTQYs+a6GWONn641qk8IhGmjkwyHAYH7+kj9+5ZXlf57neV9/RUGxPi+9dDragBmR8PBefcza2paab41XH8ZztXoB+iQnwZ7XhEOMSYO97l0zY8gz+VS8lBreOPwvu+5qT3jpPifFdrwLbBNL40is7bW27AWogr0+PgOsLi+fienM0nJ15fT2+VbQIYK4nbq2N2VtnRwoYa+pcimT9EKzQfbs2V0aP4DXvnbToTzPj6Tcz1LEC8f5yspKzKEI1I0fEY1qvddobSXhoSpdlHF+lCwAqRck2AsBXVVrG+hFbCPUjAnCnLjZ0vi5RyMiOnC0wd4UF1h4fto6P2DiAmthb+wGkbDXVqtDoq4otJPrDWtZPSIauFaNnw/GF+8z5Z0rfC5rJ/3iuuYLPIuZ7nYFNQvAe9dqvWjxGqPXFoEI1tbWlqy191OUtLWNHMhaOJwjOr5VACHV2d5QlkSen5s3+u4drxeh10iaXiTteW04xBZ11313uIxAtMOisOaVwKk2e+NeKqmrixuzcH7UzQm00AiKuB2k87nCU1rAG28EB03CU+7ebbzCUihq7T7n2BO+IZ6rZgG4edUhDbE+Ku8gJeHhhuzVmBvD8MSJF0bAg8BPtMgcBx7NsuydLZniTgNI0LFHA3uZUJEq9/ZqvXqR8IhuQgw1jqBKL3zSQqsXtsoRVPFz3XfKceuxd+++UrH9D4Ei46RpMFgWoZuE8jZv/KzVb5DAcKpbWqUYTmNqmeKZ7moI/mjjfR5NsDcYjTWr3vghOrMQcbdLE9WFhHCIN2BKvaisj1YvUoyfWJ+QRzYcDtdy4DDNa3MS+PV+v/9QR8eeVbqvKUiCvdS9RnWjWhKzvVbwglP2vH+WYvyErYna84sTXnDpXVtL7g+JvnD9/akX00m2/DHyBCEyI2jr3X5VdX5UN9fMyRINNPLzWlvAXs0VhYHHGRrOnKKhaaUdfgfslcNvhFEwr6S6aJsiNEHXaK8x8CyiOvbYyb29SfWfJCQ83AapIYJg3lMU95TsEKIrwP911VXb/uDkyZO/MB6P22gyNQPYlLHVwl5/oLrH6q4uBOEqE8nwCJMlKPY8QajLJrA0fLxQEYP2sh72DuVvrbTDmlbaJv7SWktrdI0Ny8xPiucnHqu8N1stkFZBIwKSs1FkexE1nHQr+QnEjXBTYK8cAwrDebIptkMCNKKaCJspk685UMXjJL3QGj/nMQ7E+jR5FksULfP9GAG/d+ON139w27Zt/Nmfndzc4PnB5FCrGEARV20Lh7S+L4HxM4rram3Q1cVOrr3sEg0RW/KeD5NZKRQ1pcMThjRqjZ5lCVSU8RPwZiYirBspllzGDtRlMimw1wZ1wTaiqajwLMIazi7Zk/7/RMBeOTIm9/I2MvlRBKddsgbSmlaW2V5FKKUMaSQYzsoGsTYt2wudOjVkAoFz4NObNr3mQ1ddtc0d4nZzC0dwBLzYMm9pwKyNg73G1GEvimyvj+f69dEYPx8OEb9LrRdaxBZme7WyQaJySMM37scyps9ntheS2tuEbO8kr9FGXF3pYa+bc+D+PxS1lJ2w13kVKVm9HNc4M4S9Effn9oHNe/bsPky9q8tU2Os9C2aAvTPIhl696mALE2EKndLwP3Pxz75LL52/+9Zbby7vJB6NRltbaDKruEOtJWMLkfW5Uqf82lqrv9vFvzLp9bnRHb6trbU6G7p93znasr3MFgtu3HuadlgzZ35SM4JeyW1CTz6CTs4xG8SNEvai6KvnFdXWO7NEyJpnwsvD8zyqVeMgy7IrqffzS+L5kZjtTVDUSucPlARpEnl+VMMheQSa8HPtv/TS+V/cteuOgx5WPf304ZG1dluL3CpFlhio6gXucIrsqFTJ9nrYq+nGJNfW6Dv2qOuCEaEuN9Re/az2wsl26kXW+LT+lzae8Bcy8+O8klrmRwmr1DG/MHYgZFUkZ/e+0cbvhhuuYzBYd6JOcu4U86O/bt26rVS5erENL8PyQxXJOTBgIxJKF/3aasIhxlQYBOpDUc4bIbsRWB4MBr+6a9cdTwoPZvXQocObaOdhrgInhE6FGdtokrOpdnVJyvYaxbWktCQ5tSRn9xvUoS5tktPbC6o6NVUvOj3A0Pi5l1LVBVtba3jZSAlokG2CRrEnSJixjYW9lfI2Jx9FciY+29soa62de/bZY6fG43FuLVkD7PUPaodWr5cNgCu9d2AU2V4bNDZIDWlA3NWVTUoeu0GkkosNsqo4FNWJMF/Pu25d/7dvuWXnveI/rThHYCst3E1gmGXZKbcHahnbaQwCnyyxorbXRDZCpTkWrGIBSOOn0QtjJojAJTlVez5MlmgNpxtRaK/VAC4uVjE86F1gOwPJmQDexKTMFwWlQcrGwl6b2NWFBk5WrOzkhDd9Y8yKtazk+biJ2Hwc+CwFFeNmYIsxZfVB31r7Omvz3JhMBXtNlcmvvatBxnPVnYLEBpkp26s5FEVsNCrWeMUVl2dra+MjO3a8/sBrX7vJk5rl2m6lHUmNrrji8pUm7y0mJmsSanudbFvHnovOAtCENAK9UN3bQ0I4xL9w14+p8bkuJqVBZntTLjBi9uoQdW2vxvi5hRdMfruS5/lpaxsrO1aBX6NQyJ3GmB/Ksuw9xrAZ6Od5vmn//sfy2267dSo0EhBFHdJokU29V3kWFoCK5xd4floGQUmBsfWa78207KNer7e6ffvrV7R6YUwj1UXT6qxW2ztNtonnZxPr+b3xU9iLAdWafDX/072vlt7W2Q6r0hEG4mEvVHl+TuE6RxfsTYnbEc8FK2GvkFXBXmt1MT8pa0RHmLNnV09aa0/RcDk6hafR37Nn96HV1XNHjx9//pGTJ1/8/ZWVs39/PB59f56PN508eWph7959jdUk4bwkZATd76xcUYgS9s6KCCAtEaaJF3r4SdVgt/E/r6RhH7mmCCc3bFjw2eOp0HVRZHsDr3Gm2t5p80pZsT7RsFfqhTd+EJ/tZUa9CJyWWL3IoGHh9kwu9VG5wAIyn6+2R9GUBlsvY1J1dWGGTs5QgzfJsuPxeJnJ9ZbhWKAgO2dzc+vnd+zYvrpjx/bHVldX3/fFLz74h9byvXRc4+ihEXXjp76W1A1VtpfzgAjcSPXq81jqlRs140fz2r6eqldbdoQxJjtCJOxtocmoWloRrK3zwDSyfiSRnIXxu6B1202wNybO74dz7DJ8MwTxF2fOiCURHq2d/Q5P6VloDFgq7LUByRkl7HWPoo2fgGThvb2esNxmADHG7AAOIAjsc3NzK1mWfXY8Ht9PR7DZwezwegOtAZPxQvXdyO49Lqrxc3OCjl9Y8j/FvE1r28d55v6BbIcFPNMhG45K6SKUBGlVttcnKolAbP43pMJeOylpTfnGFdhrZmhgrDF+e6a1wxLGb+g+RjTsDdxYFez1srEbRCY8Eoyfh/iqri4CGqmNX3jC+3lNNau3xIQ3Vhvr1q27hSIR4uddAfLxeAzVUq3avFLJjZ7kHPK5omGvaSCzdsl5WXcwpV5m30hyjoGQMhEGU5vcbqSIAQKVLtBYaxmN1p5EUdsrUFdOBEFa6GMF9tqIy9Jnhb00lz3OFA6JbGlV2/PKeGHGpC540g5LpNpx/zFW2Zo2yMWGN9GnQIPXmNTSSp7SHRukIkuD4QzgzSrwPMX3Lw8nY4rNBfZaqJzSFxQayYyt9CwS11alF8G8F6PDN1AlG0es7Rb3T60LtGtU+2SKXlgbT3I2DddPXGjY60NdRlRmKdBE0p53Dk/YIFcLmfuIst+9e0U7rMD4xcLAMvPjP4TyhZJknXdQga4K41epDkEJe+2Eyd+UEZw2b81rbPjjxwlaL3nPwlq7Q8hGQyNbrfCISmYJeJNyKVYJb8TaXpSEh7WTeWMSHlIWJYeTwvhtrneBtlhrV3GljR3zethb0YtI6FqBvdbGefVuzFTzLeN2KeEqb8CsTbMXTjbF+Hl9bG6HhXMLFTG/eWPS4E0AjVR92xriM9GwFxHYNhEVHm3QleaMYNP7Nga2af/Oh4FlXHMDWRec5/mO++57gLe9bVdsNlHWBWugUWNWj7iMYDLs5Tx0+9GGQxYXq3ohE2FdHufrX38VR48e25plZquL9znPb+w32SFafrdYH8m3S67tNZHZXjdvCF2TwyEuqRTV6ow6V0+TIC33vNJeyLUt22EhfmulHdY0SCVeqPwQKS5wCG+Uwc8U4wdM7vAwymyvbeZkqa439CePmV6lcRhY9rA3aIc1Nx6vXrt3775H24QDz7yyQZS1o0hZ7dq6ofL8bPVqxAtu/Bo8v+i1HY/z/rp1/e15bjeCbSpdPEhLqZtpqBfXwF4a1jY2HBJ8YxXsJdGAUa/P1YZD1N3b5Z4XTsso/MbqdlhMKgg0tZSd2V5N5idFyWXgVAFvKhskVdbayeZyxn6a7FFgucH4QfHtr+2cOChjSkh4zFLzXR5OdrY+j6qMrbXJh6JcHy8btbbz85dsBHMjDoI62Cv/2JM0GEDHtJiXcWQSYK9mbd2oVP5YWyACDez1SRotdPVGSCKCi8DzC0NdQ2Zth2UbeH4kZvW0sR2Cri6RshlUs3okZGxTZQMlj6r/XFtbW/3iFx88CPZ2qDVCnQP+IvDJlnmburrEctAak1mtQlXZmgFzazRV9nyFQ5wBid2YIfldvbZra2sL1tqdAez1Iwe+ithwMhxiJlQkdW0vAdUlUjZc26RsrxvRa8sMekFDSSsXINSlaocVwhurKHUJZFWw19Y7s2juAvCGM7qlFaL9kPt3VW2vMTXjF02EXbdu3Xyv1/vaeDx6T0MX6D5wPYVCrgSybd5bEjRSxGfCkMbM2V4tV0/GKTXcRDevSi9wB9twOJzP8/yGlisKTgLHqBqYpjt/k+/tRV/b64e2tndmbm+ibIrDAyLUxaTVWevaqtphiYxgNHT1np/MCCqNn2yEGv0hnLKVGcFYJZdZIxEHSyJI2+kt8OUoibDr1vUf62iBf6X7J5StZWxRtsPSZgRdXGimbK/4xirYG8yrNpwpemHtJG63vHzm6jzPt7Q0Qj2G6O7tvJJKOISILt1uVLK9RHpvbpT39sq1bX7lyQj3fCrsTdGL0F4oHZ4KRzBGp2LbYdVKXTrfhvoJL93YyKxR+GPULrAmsL3oMnPe80uFRsZUA9vEt6Wa9zGWDRs2PLy8fGaV6sntx3aKOOChxUlWr9b5I3LeJjKrem2l5xcrC2mwlyo0SoK9XtbatLW1lnx5+cxbrbVtDsQh4JjblLUKDxQXGJFe2xt2Y/KVRkQQwhu7urQKVWUbY/WRsknZ3sXF3Zk71MqQRuzB1moApestXmiWE14FXW29RC018xP1Idyfr0AUqyQ5y6weTKecCNl5CW9WVlZOUZS83d7w57cC1/R6PV/P2NS0MhUazeK9XZT7nP3aSiSSqheatSXI5Ftrv7flz48oDOApf6AKL0oT86vcw6ENaVBNNiY3M9WuLQIyW/2tfsnZXoIEXOTadrfDCuIOUcomYm+h4eyUdd5MKRueIBEKA8JrjIU3gayshpm6QcQ71ziCkfOGdzXkwOrS0it94GGaDeAAuOmSS+YW3J/3mysKGrn1aWqKEFV+6GKbYeztgt3n7NfHWj0iCNZHdZ9zqBduTih+60ZgZ4voCvAN4dGUcWSF8SuTJV6W+Ex+yC9UX2kK1VBXarbXJFSHxBq/cM9LWYXRbfUAw5T5kMhaPeqnQNQLeUW1CXwugk7OKMvbbAPPb++UKwrDTHFCYLu8n1VCIyc7Ar4A/DQNa2SMuevSSy/dSnGNJuibmSbfz8IM5W0pnh/UjF807DWmvj4xXr3M2EKlaYVfn12IGuBgLPV6vUc61rZzXuqHYlJDUuH5aXh+JexN8eq1+zaM57q5oxKkbsiyx+g9L75zPQniYiVy011w49eU7SXdBVZ9CBnzk/HCTkGobJAg1hgb2K5UaVDdIDkFIbrWGMEYQ5Zl16+urm7TJi0Q0MgIHpnW+LkA9SyGU0110XiNUEEilfXRwF5jKk0rVl1SC+Ct0Ni0FuDEG9/4hqOJ3ps/nJK6MRHAXqvk+cH58eptwr09Th9VNd+2yv/szPYGo+wIE3aD8cYvOdsbuMDqC3LcSHKBhWxnGZOUFRAlqrZ3sVrGJL1GdWA7gMzhBjlGUU1QaY5a9Jlj7ty54Z3G8HCLbO2dSYS9YnOV31jjHdjm0rjotTWmEtuJvtKUZh6ZOuHhhtSpzcBbqOpcOfr9/sM7dmwfunmj9cJOLkuvhDSE0e18Z9vQ7cfEd3KSkDkJ9spEWEpLKxJDXQmyffetc8J+gDjjB2kVHinemz/htckSJl2rk7q60JC0uOeeONjrIXMKvPHZ3gjIfAx4FLgLyJzn56pDLGtra3/jwQcf/pevvLKs8SxwvzfJe/OUhtjYjjR+bqg6syAy+bEBdRJLFwNDEnbskXpxPcWdLLXR62XMza3/L0I2mudnTLW8TRvSEI/VsDfwri9a0wonB7Pphcar78PE+PmH8kP6kXS9oRsqw2lM3QWeATKruXqpsHeK99YmG1IaujbIkKKaYKkwfsYpi3XVIeNrX3ll+ZquOZuyvQmwt+L5aQLbxlQMZyrVJSWbqEpIuVF6fj7bS10vMgoDuD0ULppWZKcWFi59zNq0ZqagLz+01SbE6q4usxi/gBp3URoYU80UR2V7xT6Q/Nx87959ZTcYGQvUtMOaKSiOss6vwwWOvsPDGc2kqysJytussntHwAWL2SAPG2NOZVm2ycMMKAnSG4G3U9Sc1kYT7DUTHlnnCGgJJTSKCU5Lz89/4xg0Ea5tql7YetWQyvObohdzwPcR8DN9xx5jzEPz8/OnTUJ5m3tfT1SODmmIWGP0dbVWtDpLNGDJ1SEyWRLj8JwHvfAJ0rIXoDSaFQhsbb1bQtePITGwTaIL7H68zBqpy5ioNyRVZXsl7I3s3lEaPzFvFDR64YUXH//617/xJHANWITxg2LjLAJ/QNFJOpz3vDSqFR6YquxRy+dyozRgRpCcIzKCSbW9Qrbm+bXoxWbgXfLBpF2ZGWWZ+ZNz54YnY2EvVGGvtfFXzlKP50bJOuNXhkOYrbwtac+7oYa9bl712lJthFqRk55frjV+wUe84C6wNH6x3puYVzYzjYa9NBBhlfCm9Pw87J0m65X88ssvm+v3+/9lAntrYjcDN8gH0jvw62NtOuxlBq/eKhuSBiENtU65R7m1UV13auEQqNzP0jTupCCiA9Vejdba46PR+NEbb7w+OpQS6IX2ytmkZqYk1OcuBtxeHwsmkahMYjjEzR2V7ZVr61gLuctO14rrIW4zf7u5wCvT8H8IXd2cEEGHaIFGOZF3NdABe2MzgtaSbdhw6edPnXppdTzOm8rirqGgZDwM5B3egaZjz8AE5HdN3TboCKluc6n5nwG8Ca9GSAlpMAW6ZsCP+38JjB95bh+b1gK/BRGoriWFerY3RRYFS8Pa6tqaGapDiFxbZ2RrDI9p7xzCXrFvhzR8J1U7LBqUPDYuhPgxVlHk7P68pEPMTHJ2UH/a+zaRaC847JXxGYANGzYcfeGFF/cB72wQGQB/E/jEnj27T7l3LWGv0dESyj6PbiQfbKRDo2iSM4IFAHpoJPUC5zVOWdvbgTugbvzG43wIfJEic984ZNKCSczP61Tny4aZYmt1kFlme733pklmkcjwYIZsr/ut5drGZnuF8xC156d2gxE/JvwQKu+ABsKjhiYjHqtgr2kgOUfGlMqYn5mQaKOyvc4IVbK9KBuSemh07ty508Afd8jfCVwrTnhJck7K5NsEkrOQVcObWWCv/71Erm2bXrjv1TYy4B3A5rrnl0NxI1/3xKK8TYZDtLDXiGyvxnAKL3cW4zfr+qj1QoRSova8C5OVa+tl277V1H6ATW7sRXKBw2amoIC9TVk9jedng3blsbDX2kpjAzXsRUBXa1kdjcY5BcQ9RHM36HljzN8ZjdYe7/fXVWgJxBndSjzXbRB1h2831JdTCZ1S6QVVaKRhAYR6MTVjS0F7+b5eL5tr6NINBWH9oa55qYZD1F26bZUjqJJ185d0oi45IZsU6pLxwoSMLTRkexUhjQFVmzZVttMA+h+TCm+cu5/qAlfgjdYFpl6iFmX8GiDzVNjrvlOlYy9UakenzVtRcltUAUjv4HHgAYqYX8VrN8bQ6/Xe/Y1vPPnRW2+96Qg66DpTt58wHEIaNIqGvd74SchsEprcymTWtLXt9bLMWnuHMWZXi/ED+F33GyqjKaSBomOPrdNV1HXB8mDj4q9ttKwblXCIVZLf5drG6kUrBHbuZKUhqUm4Ag/SM4JelsgazjCrlxIXaoDMU2Gv8/jKmJ87pWMbXtZgbwNEOQ38KcVtcWJe4+4LZsvS0tK71tZGKth7PoyfG8lZPRSwyqGBpLtdwmSWMVNhLwDr18/NZVnvh40xC1CBvX6cAD7fIl7z6lF4fg3GT02QBnUsOPTqLwrDgwD2okyihWtLZF1wVzusyo+JPUH8CxF8iGk/RrqxQUYwGt4gajhjN0iTrFX0bbOiwsMos71MYo0x0OgzwC/grsuclMaBtXZ+bW3tr91335c+8X3f91eOtE46eeeBmaEKYBZEYJQNL4VnPjDVpgjqcIibVxXSePDBh28Gvh8aPT8o1uV4kywzNDMlXi9qstbWytumwl4JXd37etkLWhq3GFxL6hOkGtjrPOWUQ7GzHdZAeDTRzUyNdECH5QAAIABJREFUmckFlh/iot/h4d5ZA10rsR1r02Gvmd666DjwH4Ebwrpg55XcAezeu3ffx2nZKIFngZs3yfhZRSZfJB4kgV2V7TXiDg8iEQEipCHDIbHG76WXTi+cO3fu58DOtxi/U8AfITzzxSoPU5KctdeSxupFRdYl4JKyvTOsbS0WrJENQhoavWjk9kbOmxnT3g5LDVGc8ZvZBQ6C4lN/jPA4K7Edm0CE1cBen+01ZnJKa2Cvgyiq+k/g/zPGLHvPD4q7aB0k20jBU2ts09QBb1Lvdk2uAkgJpXiDTULNdxDSiK4geOqpp2/Nc3tXA+z141GKBFU5jOgC7f59ls4ss7Q6065tcqdtmNzhkRLqEihTgyak56dZW4hoh5V0wlMtnE9ygc0kM6e6ulLCT4X7XIFGKFoXQXq2l6CGkwiju7i4m0ce+eqh5eXlz1qb/0ihbLWNuQd4GwUsC39vSEJXw5tU2As6JW/K9hpFM1OCeC76ezjmjh371saVlbM/bm1+dcvlVKvAf8Jx/yQiaFrbyHlnvrpSQNfYu3fCkEYS7NWgvT3F3ciVkEaMw9O0b0GlFzDpeFVrh5WJ/4gxqtvbkkjOYbKEBOgK6bA3lI2FvcbUOvZG39Vg6kHxaHhzyy07+cpX/ut/OHfu3B5r7aYGr6QP/DxwP0XipIvPdcGbmbo55drGwhs/b0UvYmEvNIZDoo1fnuf9o0eP3Twej985HtdaxvlxlOJ+5s4KHGU4BNDBXnseWlrJg83MQIFCsedT9KJt3yr0omL8/EO5+H6MSCA5p3iNHhrZScskVW2vh70aWR/zk5CZ+LrgCtWFSMhMENshAd6sW7eODRsWHrGWh1sgGRQVC+8UstKQQKLxE+ujWlsBXTWdgitt0lFme0GvF0zWtv/yy0v9s2dXfzjP8x0df/7fUxhBL1u7fpK4UEqpF8bEh0MkTUYav9hv7PZd+Y2t/tpLedVtUqhLK+tiyLVGtQpdloaztR3WkCmnZfhj/DOF8cusrcQLoxIeHhqlJDw6ILOqthdRxoQSVpGQ1XNKXsKba69905Hjx0/8a4qyrI0NYpuAvw88YK09Zoypxfy65hTvXKvbjkUEPtsbQuZIErq6ye2sIQ0mkDkDeOKJgzevra39JO00sWPAb4d6Ea6tBvZq9QImeuGGh71R5HcTdOlWJEvU3ZidbFOoS9WuDGWfx3Dv0dARJnTvR9NcdvEXh10atO5zEuylGd6oMoLyI2qzve6x5+rFEKRnygga0VTUGEZzc+tXgE8BP4urTW0Yb8uy7EeWll75fzdu3Dhywe0hCi6YbeD5KcrM1B2+3e+r9FtkxppvIg5yKWstHDz41PyZM2feRzUeJ8eIogXZURo6s8ToRQh7hfFTZXtngb3a9QmTJW4kZXuNgvxOsLYpLABnL2rGD4J2WArjV3GfUcQOZFA89hTwsgH+V8lCLSiuhr0+4xQTnIaSIF0hOROREWwznEyU/DTw0fZ5zVyWmZ87evS5rfKE1xBhg/VJIrBrNtf5WlujyAi6BNy8l83zcf7ss8+93Vp7V4fYYeCP7rzze1YJYn6xekHi/SxSL9yhBgqiskddUE2WpLAAmJHkrJlXrG0UR1DOa0zFcJ6XdlhJ5W3eBTbKri4dWb1ZIHNSx94ZZUcu1phPg4I2uKKQ5treTwF/B9gt5UV1yI4XXzz1i0899fQ/e9Ob3hgFe23iHR7nGRolhTTc46SwBIC1Nv/CF764Pc/znwW2tIiOgE9dccXWh+fnL6msrTd+EfNWvDdjdOEQqHf76ZKD8j7nMGlx0WDvLCENlEnO0F542bbDKbod1uKEKS4D6ireDkold6NGZo1Je3tZRJkM4kNEfsRabCcW9tpq2yPfvUNTAoWUbXjfU8DvALdRxP0ICdKj0fj7n376mf/09NPPfIqODRZCoxTPj6CAXSmbvLYNkFkFe6GY99lnnxvmef5TFHf+to1j69b1f+fmm3eWbAlrdbDXVsnGUbBXen7isQr2eu8tlaWRuLah8Rsyw6VlsbIt9qJRL9TtsFIzP2aGllZMFBUi8X+4uWDSFyzyI5YnvI87oIS97lHp+UW8bxfsDUcO7KVoklApjRME6c3Ae2m4xCeYt+YdkGD83FBxBEU2HpRraxOqADzsJfAsnnzy4G3AP6QeFy+HMebjd9656wgu5ueNH0rYKzPFkeGB8kB186qgK9VEpVZ2LmVtCahxVkeQTs72NsWCu3Qqth2WuobTyVZc4FR4M4v7LGSnQqPFoppllmxvaw1nBFSvZHuJy9geAz5kjHlrlmVbvGdhbU6eW9xv2EPBDfx5gprQ0Pg5+VTye3QZ06zhEBLWtiVjm1N4YFcDH8J50k3DGPPIZZdt/v116/opJOcwpBFNfveyAn6qMvk0tLSKlE0KdS3WCxuSoWusrNi36lBXpwG8AC7wrFm9JPe5ywUO3rexgF2T1UN4fhrZSNhbk33uuW/dd/Dgoc9Za/92URdcGj8/MuCngT8BPh3MW2tsYJT9/PwzjWcxSzgEgQisjQtpSFlra8ZvAfg5iqsFGocx5vRgsO53d+zYfkKb7bW2cW012d6wG1Pq/SzauuAUh8fPG9Z8x5aoJe15Y1ppMlP1ohUCh4RHN2Z1gdWkReGVRNcFh7EDRUxp3k5ajmvrgpOIsOhgbzn8Btm27XX9Sy+d/whwrIC9tumPzwO/jLtAKfT8tNlEBMn5YodDPGS2imYZzuMs9cKFNHzd9tspDoi5FvG81+s9tGXLZZ95zWteM0KZ7TUNvQCnCYUHqmZ9RMKjQkKPMX4izj9TIiyRYiPXx8+bdLFVrCy0eIBN0IgE2OtkZ878TDNgUlYGxW3Cvb3inVWwV3gWKmjkM4IaiBJm9d70pjce+OpXH/tgnud309IMgcLD+TXgfdbaE2Bmhr1GwefaU5Dfa80JrPJ+Frm2KJNZ4p297A3Ab9GS9TUGsqx3cmFh/tduuOH6E8bo19b/PVBejUCC7Cywd5WiQiRGVl5LWspqMvmB8xB1OIVoL8bh6YDMMR2+vXx3Oyz3lyaTnJXwBhJdYFoygtOMn5dNyfZ2xfw0sgJ+qq6ulND1ta/dtDIejz9JcU/wu2j27DPgXb1e78jy8pm7FxYWRiKplJrtVQXUTQOBPeZ+lpbAdjTsdRAp3CA7gA8irrmUozB+Wd7v9z5+++23PWqMuVhrW+nqwmx12+pkiQyHxMo6oxnqhYqrJw2nArE1xQtjjV+1G4z4D6Xx8ynzaRvEfQRIqOH0lpgqdI2SlcFPmRG0EVSKpoQHkbW9gceZ2rSyNJzWNnaBbpWluj5DYNVae5RiQ7+NlmC+K4v7ma997cBXd+166783Jpu6QeT6oIwFu2/cJhutF6DTixARuMfS+G0C3keRIGocWZaRZdkDGzdu/F1jMs3alnrhHkd3dRHxQi+rNmD+G8fGCz2a8HHK2LWV62OMjgXQtudj9m2TLIqmCGIPgewGIxYvDDBHWWMX11G7wLRwfvbu3ddZpdEEmf0JH3t1ZeD5+aC4iq4i4Y3i41dqOJXBaVmlESr5vcDdFFC3EtPKMk+QNgvD4blfv/fe+4fAJ0ejmGKYtDs8zIQSpOL5tYU0iF+fxpCGk50D3g/8Uxo8Zef5YUx2ZP369R+85Zadh4xJW1ttwsO9c5LnF+hFctwuVtaNMBwyU5Lznnvi93xgLzR6UWmIUCqAU5bSIMZmbxpOH1VDUpc8UJeoufetdfslLjjdBHtVxg9lGZM/4RHxGWXCY0C9BKpJ9uPAZxHfwRiDMRlQEKTzPL9yNBr90mg06ir5qmwQv7msgoPmjGYyvCHI6rnkRaysNH5eL+aAnwT+MZ3Gz4x6vd7HXv/6q+7NskxjwCp121xE2Cv1wsZ33Qm9xqSyR6GP6hI1aTg7BYuRSXuh2fN20l9Sor3iJYRHFI3hQ2jkfgzEJy3Ki2r88xiPs8vzQ8EFMw3NTFsF6/NWMraRsmUvwCBe2CVag71u3q4NcpICCl8L3BzcHSJpMjuB3wR+AHiyYU4IqC5ExAtDaCRlSUuElbIRJYRdejEAfgz4FVoaHfgqGmOy+664YutHrrpq22kUIQ2vU1q9oBpHVsFeW+2oPAT95UcCfqrCIWLeKNjrsveVPY9SL5riyBHzeoQqO8LU22H5BZjmCbmRVOfnZa2te2+xsLfBfY52gV3WtRIUj/X8pJKT0L3DP4uNz4RZvUjZnKIh6q9kWfbRLDObwYTGz4/rgT+k4MHdT/UUrsBeq7yiELE+moPNbxArShdj9cKYyt27cm0HwM9QhAZq8VEBewH2X3LJ3M9ff/2bjieGNC5aVxc7Q3MCa2tOiwr2poa6EBBUs7bMEA4xkybE3viV7yshMOjaYVXuEUDJ20l1gRHQKMEFLpuZmqItVTLstVYHb8Rpqc32loqqMZw7d775s/1+/2NgRi0EaT92Ah8G7hLz1mBvzAaRsFd7KFrR6sxvLm84OwWp8jDd+4aw9ycoYqMdxs8AHOv1eh+Yn59/TGHAJNlYDXsjQhpNshXvjRmyvVZBgXIGNznbSwNXr1OwGG1NEWJDXWHj5Mr7Svg5tR1W4MZKSBZ9h4czmn3xEdVZPb+57Gw8v9iLahqzvdNkF10ZUws06hwBnSgpI7ht2+v6L7308m+dPPni9vF4/Lfy3LaR3jOKLtIfBX7qhRdOPrJly2V9MNHewRRoFO35aVkAAt5UMoJmcqXpAkV97y8Cmxt/fGn8zNAY86/m5tZ/6uabbxweP/5867xybREhDZOQ7U00YMkVHojkWCx0daPM9or1ib7bRbu2i4LhQbWeP6ns0R1O9XZY7i+Ksaa4HyBbnau7dxBkfrQuMJQZ6uhsL+0ZwWmyFc/PFnQVVVZPnLTJ2d4UJbcWbrrphuP33//gr6ytrc1TtMnvan5xTZZlf/jEEwc/eObMyh/s2LF9CeLuhRExFh8UVzEISNALZ4Qqd0QEa7sN+CVaGhwEsHcV+Nj27Vf/y6eeejq15ju6q4uD6n6o9cK/PzPC3hhZN0IWgIYdUltbG0F+94ggSHgkXVcLzcbP/8GoIaGR+zGeIzhT946IqRs3iCIjGH6IqVdXyowtAvbGKKpXckTcTgmNKhAF5QZBeAfA6vd+7/ccoKB9PN4lX9BkzNbRaPT+I0eOvv8rX3l0nvgu0DKbmBuju5bUJrAAQu/A68Wf/umfQdEi7ENMNX4GN9d/zDLza0899fQFZQG4sE+tOUGkTpXZXjeGKNdHPFbTZPxhjCLU1RTnn2b83DhvLACmILaobjA2IDk7r2RlmvFr4e1AQkZQJi20sNfHhdzG7GxIKj0LaThj4Q0NHEEn2zmaIArK+k/TQGZ1v3U/BfH3t4AdBAdflnmaDFhrN6+trf3MSy+dvnLv3n13AwdoMEhBSKNGco4tbxPGD5TNTIVO5aPReOULX7ivb619J/DrFHXPjfotYC/W2r3G8EuQHW2ddDLvzNleCXunhRaEbOVgMzM0RUBBVPYxP7E+mn3bGOqK0YsGw7lCRCNhgiQnEU0RphpAmMBe9/9VfK4wI4iy/tNWKzzUJGeYQGYN7LXVAnY1mdWNaEUVcSE1F8ytzTQl/zxFtvdDFIkPwFc8FELWQp7nWGvngB+hqB/+IPAJigasclTqP0F3wku98IeTIqRR0YuDBw+tHj585FqKy6D+KQEJ3I+q52dya+0DwE+NRuMTMJ42b6U5gZmB5JwSDvHvTyLsdSOJ5IyS4UFDYYNmz5tqaZwK9oKO4dEJgVsygmoX2GN4L6vZIF7WwW1VthcKRTVGD3uNkqgsZPHzoquTDT2/6A1iTFQVQE7RQPUXgBNQwl4KT6g0flJmB/ABCqO5iypvtALVfcxPcXFSZW1JZAEcOPCN0eHDR34E+G10xu9e4J+Mx+MTEe+brBdC1g91SEOsbXSyxAb3fxglyZkZYK/W+LnRaDhRMjwEZJ6656G7G0wt2wvxsFee8G5El0C1ucCRsrXa3mmwNwi6JtX2moasXqRs6b1BGrwRj6cp+YiiSuS9WZZ9yBizA8istU3Gz48FChrJHuD3siz7yLFj31p63euuxGeKjWFlmpIvuqyetZUTHpJgr+XIkaNzTz319DV5nv8TigRPY5bXj8D4fR54H9jOuGgTIoiFvS4sUZLf3WOvF52jxfNTH4opsJfmZIkK9or/pA6HuMc5sBKzb3F7XiY5jYnrCAPdEFgWOSdn9YjMFIcxPy/LBXaBpQGD8wN7FSe8p1IAeuMXyMae8PnS0iufO3DgifedO7f6q3lub+8wfn70gauB/9kYfuyppw7/wXPPHf+TN75x+4EtWy5bIsLzMy11wRrYm+d5/+mnn9n4/PMnbj17dvUHiiawjXcjy3krVBeKUMDfG4/HxyPmbTJ+UXrhjN+8PNhSYK8bFx32mhmurjTKTDEz1nxTLXucKivkmw2gTeDq+b/Un/Dukdpw2irPL5rwSJXqompI6gPbIraTCm9UsJdqCWGy56eFNxs3buj/hb9wy33793/955eWXvmgtba1G7IczpBcMx6P/8WZM8vv3r//63vzPP8j4D46IGzIApBx5Jhpgbmnnnp68/PPv/D24XD4A+Px+A5r7dVEsBiE8VuliGXebYxRGT+JCDThkPPh1RvlHR5WFCdo9ULr+UlZEoyftBdGJCpR7nlhL1ZiwmTCeLa2w5IZ22iSM4m1elCN7ThZVbaXKv6PbVrp3zk1qxd2dRnaKan6UMlTjJ+dsfMHwPr16/Pbb3/L/X/6p3/2UxT1sT8IzfEzqNBGsNb28zy/2Vp7AwU8PgD8O2AfcBxYBoZ79uzOaVlbutcnA+bXrVu38KUvPXTD2troh/M8322t3T4ejxeIpG/1eqXxWzLG/B9Zln0oy8zps2fbk/KLgsYEaeEQgjs8rJ0OexcF1SXFcHoWQBCTVTUzFe+cWpyglg2cpZnudplmL4T89HZYzJj5SfX8NBnbhoSHmuScAm+ELE5WBXtDWS5i/ac4LYe9Xm9IYbx+Fvga8M9oiKW1ZIr9b9lCUUZ3F4Vhe9j98/V77vnC0UsvnT89Pz+/cuml86c3b37t8sLCpSvr1q2TijpHEWdcoGhOuhXYboz5njzPbz93bngD2L61lvE4jq8vYG8O5vFeL/vwpk2v+djzz78QQ7qfVS/m/XcyCc0JNHG7Jln3zipZm9DqjObihCR7waQu+IIVNvgYNEE7LOkByv8IkXV+7uRKusPTBYqTXGDn+tYuHo9xgRFlTO6do+CN9A6CDaLKzEnvIGbeJmjkwgNTibB+fQiaqJoqB+0U8C8pbpn7BdzdISCNX9FQYUq8cJ6JMRxmmTm5unru1Llzw9MvvfTS8uHDR5astatMEgH+vRYoYnlb3D+bs8y4092W88YO0dVl72Cw7gPz8/P333LLTaPnn9/XKhN6fu6xOhwiDJh2bSt3eBDJ/2TGcIg4FEEHewe2gcCuLYqQ9qJTsBit1xtME3TGT9J6cgjaYYk/P9TwdlAWv7clPFJcYPGDkmAvkYYzPOGFkquyvQKiDG18Q4UQMq/aiBK1UMmneBarwO9RxPN+GXh3lmULAvZOM36VkWXZAMw2sNuKy5rGCFH/vRqh7AS6FvPGen5ONjcmO97rZb+3efNrP7Jly2VHr7hia8x1qJWQhjHq+5yb9KJzzBIOCY2f0mv09bmVpghGmaicZc8rwiGVPS/2bVQvAPed/Lx+zpGfsx8YP98tISoIKRMeWhc4TJZAvAts7eRDWBt/RSHNJ/xKpBdVJjwkvNEasPMBjb7whS+ytra2hQKubgIOEhCVpecnvOtpnsUIeHJubu4fjMfjL1tr/wfgNhfz0xg/AZmLm+oC0dYYXqrxc7B3Nct6n5ubW//RN73pjfdt2XLZ0t69+/Kvfe1Aq1xHMmuaXmwGrr/33vuXL7vstauXX3750uWXX7YKJqk5gTZp4WN+/plNuLdH6kWMLC2JymmGs00WxZ6HequzSAaBXNvc2YvSaIZZ4KjLiyTJ2VMaYo2fzBpJio210RnBCtXFyapgrwxsx5y0xswOe8VjleEcjUZz3/zmoa1LS0vXnz27eu1oNLoOuJLC8G10//w88Jlg3godIsL4yd/Lyy8vffypp55+YHn5zI+ura39tLW29dJwOeqQ2UYbztD4KWBvnmW9g+vWrfvtzZs3fWrnzhuOEk+iLSlQGhYA8FZjzL/K83zl5MlTyydPnjp94IA9PhqNvkZRd/04RUih9g4h7DUmfn1Cnh8UhlNh/MqSVi+LEvaKxxelF4B0eFCQnJkY3cwhvFH4vvLHxP6QmbO9IeeHyDo/WtjesfWFodfIbPAmCvaahgqPDrEFYKMxZtO+ffftyjLzV621t1trt+V5Pshz26faIsuP63EG0CubqXdjjiHClhnB17xm4+j2299y4MCBx3/52LHjvwt4wvGVTK2x9QZsHHp+rSPR81sxhuPr1g0+vmXL5n991VXbTm7cuGEVXTgkvMMjSi8+//l7bzDG3FBcMVDGKX0SYeT+9yhFQuhLwEPASWPM0nicD3u9LJUFUGlIghL2CtncZadVxQmvJuw1iqIIW68OGTW9r6odlrVpxs/LulNrJhcYJvGZWBfYe37+hNdAZk85cRs5uTOLba//nKNoX38r8L3ArcZwK9hNeV5rY982bhTzhk0rozaI+/M1eLNz5w2jY8eO7wfeC9wJ/CjFZeLXIwxhBOxtHQnGbxV4xBjzxxs3bvjMrbfedHgwWJ8L703DAvDro2p11uv1/kLh2VaSNDLWBAVMvpXi4vVlYL8x5pEHH/zyVweDweOve90VT1511bbTinhuJW6HMlNsEzt8Uy9OUHd18YgNxeEUIDZNL4DK7XoCsdVko5ohiL9YurGQkPkJT5CIqWtdXRTZ3krCw8FsVfcORLxQG2MJsnqh8buSwpD8EIUxuYbC+0NeYBRh/ADu6Pd7PpaUcrE1NKxtABdyigTJIxRZ4rcBfwe4LcuywUWCvSvAp4H/1Ov1Hv5Lf+n2YwsLl/r/piK/U1/baJLziy++uNFae7v3/iKh+oIx5k5jzJ3D4drScLh29MknDx78xjee/EPgcxT8ydZ50Zc9AnUWgNcLBXQdUOUFq2q+/Z43+uqQsKtLFMmZidGtOEttslHtsGh2Yy+aC4w4BUx6pnjk44URkLkGe12MJgr2WlttZkqR8OhTcNxuoOhasociflcqtW9LVchFGz+Aq3u93m7g/gTvIMwITlvbFeARY3h0/fq5j/V6vZ2j0doP5Xn+dmvt1jwfb7aWKLLyFM9vCCwBpyniaf8Z+Iwx5vjOnW8eve51V9boKsTpRS3bi+JQNIb5p556+s5Jdjs2SVO5nGqjtfnOPLc7gXe437mPoqHDAYpmFUMx70ywVxyKySyNFNmmUJd23zpvVV0U4WTLXoBtsjEeYI3kjJIgTbWldecLhT9GZH6iYK878dp4fqqskSYoHlJdPGT+4he/NFpdPXcr8C7grwN30HArmd8gtF9g1DqyLNtkLX/j+PHnH7nyyit8DEwTFC8z+UR6B4sFh3MEHAB74Jlnnv3w4cNHtlvLrcBNFLXDV1NN2JT6Fhi/1TzPlyhutDtOkTz4ZvF38xjFrXV56Jn79dGEQ6ivbVQnZ6f/cydOvDA4d2741/PcbtIbv0avfs798x6KapyHcMZ+MBj4Zg1h0iKaIxgcbFHcXmbc89bWITMKipr73xKxxaytT2bZeulip2ynATxfsNc90tJkwn5+UbDXmOpHRF/GFPYCTCKzGsPwnnu+sMNa+w8ovL0bqGaDxTtPjJ8C9gLeazT9PM/ffvToc//miiuueCgWqttqATsk1n+CyXfs2H5qx47tJ/bu3fewe76RCU1nngnZeW4wGGzq9TLArFprl9bWhqesZZkiTnaagtKzFM4r4siV9YnRC7lB3O9V1fZ62SNHjl4/Ho9253keFT6Snt8EMreu7RwFiXwX8OPj8ejer3zl0d+//fbbHnfvnFT2aCcUm9j63BL2upGoF3rYa6tdXTR1weXaxiY5odhxtdFGVEbR2LAha6R2gUXgNFa2EtuRH0IDjazg6gFEyJYJj2eeObLw7LPP7Tx37tyPUtxDK2F4bVRhL1rPz1U8+Nio/T+tte+31q50yYUZQRvJ4RTZtUoiLAaivOENr+fyy7f0L7nkkjmwfTAYY/IzZ84snz79cv7UU093zksDIiDSs3AGrFxbSNOLo0ePzX3zm0/dPR6Pf4YIiF+Fvdq1NRiT5caYlSwznwR+dzQaPZzndrlLbnFxd3k/S5B4SO3GFC1r69xeVRs700B1iVlbGmJ+TGGH+NHWDQb3EcPsjbrbL0oX2FZbWidle/0GMcpsr3+WAntffnmp/+STT+1cXl7+8fF4/G6KS3k6x2yw14Qlapm19u8Cf4LgBDa9c+D5qWs4TUB+n2b8AK677k0+HuU5WTmwcu+9j0bBGwKvPlYvhPcG6Gt7rWABHDp0eNd4PP4xVMYvzat3epFZaxfW1sZ/11r7DuCTwO8Dj9J+TYFEIhrYW+qFJs7vXxlqnZyn7nkvawOWBopwlTH6cIiQbzaAxtQJjyjqgpnBBabq+alcYJSw142Z6j+tZXDw4FObjx9//mfX1kY/mOf5tUTEVmeHvRNZUaWxkeImtP0UHLSmd5YXj0MCvPGbSwGrKvAGJZk1FfbSTIfo4mH694Ug1vjww49cORwO38+U/oPFPCrYWxnh2lpbru024B9ThFM+CfwrRPWP33u2Sn5XtaViBthrG0jOsXpBQ0lrp2AxJMm5kvCYJiir31rbYWlOga5sb2TWtYb/UcLeQMlXIAq69p3HWeHqtQoJ2dXV1cEzzxzd9uKLL759OBz+cp7n2zvu3q2MGbK9AextrM/dBfwmRWeXQ+KdK5m585ARVIU0Etc2hEYq6OriyCXPj0IfiWUBWAvXcQFoAAAgAElEQVR5Pubhh//rtldeWf4ARQKrc5wH2Nu1thnFfS7/C/C3gV8FPnvddW865ZyWkueHwgh56JoCmWeBvTSUt02T9UlOGmL102Td3BnC4IbtsMpegCRmjXw8yitqJFmy1sxUmbFN8t4QGVtj4rlg586dG+zf//W3ra6uvjfP83fmeb4xVsk9z89DI12NbQ32NslmFBUbpyiM4Gkf2DYmDd60QKNoeGMEkz8mXhisT7JemEmEO3ptmegUAF//+uMLr7yy/H6m36t8vmBvTOOJjII8/5vAZ5599uhHrr5626NZ1pOVJUlePQmwF8q1jQqHIPRCxnOVBHZ54bmmoKLeDkv8R7nAqtS1d4E1AXUC40ekCxzMW/MOImST2mHdcstO9u//+salpaWfHI3GP2etvd5am2mMn+CCSXgzdQRXV07bIAMKD2E1y7JfyvN8JcuyCpUiMpkFVZpMFKwKvUaxuaL5XOH6WF3HnsoGidULW8kUWw4ceGL+xIkXfoUimdWYwfejvrYpsFetFxuzzLxnNBrf9sADX/7IG97w+n+7bdvrTmVZprn/o3SCFGsbyvpYcPSeh+rVlZFrW4G96Pa8T/x5G5Vb67LAwi0sjUmsRZXuM6iun2x0gZVJiwrsVVAaatneabKDwaAP3Gqtvdta+w5rbf8CnvCBbGtD0mkj7/V6n9uwYeHut7zl5sf6/XWqbK+ply5GN6o1Rt+0siukofDeSo6lVZa3ecg8Gq3x5S8/snNl5ewvUXh+nTFdYwyO1pOYzPLGT7W2oV7keZ5/1lrrY8Ct31qGQ4r3L8tSYxrGNsmq9IJqzE+tF8Jr1OiFP8ByRFlc5i26sMbR7bAIMj8x1tjLWlujNKg+RAM06pxQZo2CjOBU2SzLFsbj8XvyPP9ta+27QGf8msrb0mCveoNkxvCOM2fOfPjhhx/Z/a1vfauxILxJtMH4Ra+tMZXDSePV962tB7a10NV9niTZ1dWz2QMPPHzXysrZD1OQ16cav1mSWZNDMdX4lbJZoZv8DsWdzjWyPdS5ejLmFzMtzXHkGB5mmcwS66NyeBpgb+ecTc6Sm7ecU7q/oOwIA2lBcVvn/KhgL1XPT13bG8QdukQxxswD7wd+BuzWIrAdD2+aYG8qNNJuEFdpkeW5vWNlZfXDBw488RsHDjzxMQqycW20lDHBxUuWVBrVkli3bSIzglI2z/Ps0KHDm5577tiPra2N3ktRm905XiXY68nvpWygF7cCvwHcAvw6LiEoHB0Zt4PZkpyqUBdU0J5qzzclwiJkpV7kNHSESW6HleICO9mS55cKjURsJ6qMCQFv3DvHwN6M/7+9tw2S40jTw57Mqu7p6Rl8EORhByD4zSV54IrmMdZ3J+q0mriZCJ2lC+m0upBWipPlUFiSfReri7WscFycNzZkhUNxvjifz3ZIoQj7JK39QyHL0g/J8odIBW93yaX4tVgsAIIgCA6xIDgEsVhoMOjpqanK9I/MrM6qro/MrJqqaXRlBHaJwTzdVf2+9fb75Pvm8wJPEYL/llLy5Wr0xul4myvtzcM+DjHg/M9ADEF6C+LkBYDsqp7azzWlRvIzbnRLA1rF1gXLOYZXr15b3tzcfH40Gv1mFLGfxSRbyF310N592Q6hEGfO/2sAX4Boi1JH6qZa1CxsO/XFZrvV5YBNTGwEzLc0ZHyakrFLY63ksDCdHdj27VSWtHJJgZGq9hpgKYBVSsk3CKEvTuiNXebnoOoi3tys2puDLZzhQSGOWv1vAP4pJk216t8y2yFM3pYnm9CdFHss7DPVwO7qF2+//b3nRqOdPx+G4S8xxk4ZXO9+9XAaYS394hcBHCME39jZ2XljMFicOvNt8rbIaXI2wab8wjqrd/ELrZhVGPzUm5SuLGoks4MqvWBWlR/ArvKzph1gT+8XFt6s+Ey+RAj5XwmhDwsD2A3mOQC0twx7CqKp9pcA/GNK6Tc//fTGrePHj8vrB1Dh+BSvqN4By0q+xgiMsO+//8FwNNp59M6dO38hDKNfYYydZIwVVnnVqsO2OnafugDU8gH8HCH0H37/++e/+uyzz7x26NCy+oydK/lwUHLiWmucRWeJU+AkqcZ5Lvp7M1fOj3MvqLUUWN0MLOmNduOBzDiLoEMAXyGE/F3Po8fvAdprhPU8b9PzvH8+GCz8i0OHli+trHzu+ttvnzGuCCJJq5yrvZyXz2fRv+GBRHZQ6hcAjvm+/wyl9C8xxr4M8OOM2RWzDijtNcCSm77v/e3FxcVvvvDC81tlLVC8QhcAKnZ4YLq317ULoFTA2FgOC0n+bzSHg2fLUu97CozJh6iuQ8nqFEEpgF8lhHyNUhH87hHaW7iELBVWGIt+dTQa/ak7d7Zf//jjT/5fCOHRXJFO9YBg+ry4VUVQ9wtDkU2XGR4nAfwJSska5/xFxtjDtkfUZoj2atiEXzywuxv8xni823/55Vf+BxTbqepWV+YpjSJQQauLFe0FEl0Apco5uQEwKwVW2Ru3PN6W/hBtU2AbaqRnB/LHihoVrT6Av0YI+Tql9HCyqmdGe6sdb2uE9pZgAcaiU5zjlyFEOr8GoU33fwJ4DeLzH6+vrzLkMAI4bIdAOnnZF2pRtTeFVT47gDgW+GcAvEgIOUWIm21njPZKbKZfnIQogI0B/C9Ije4syurhQHth8cynvxRttjSQCpym8QLIocB10F7Okw2PxLxBulIjLLev9i5DZH6/4Xn06LzQ3uwZHplYBuAqhBz+q5TSi0eOHL558uTKjZWVlTEsbcunT3gY0V4U+8UAIss7BaG7+Echij0Pi99NHlGbH9qbi70N4LcA/M+QnQBFCU8TW11wfOZlwqN3ARgdbFArLwNUx0acq71p6lqGrSsF1vb8jFJgiMzvb1Iqgt/80F4dWzjDgwJ4VP75i4SQze3tuxvvv//BxqVLH1yJoug8Y+wshPBCUaad6Ocy3JbI7OH88MOP/A8//OhhqbzzDICnIfr2HoUIgnEbSxVllnuA9uZhj0Jk+AGA/15BMR38bLY0Epkf58YzPOJ9fttnHtkHG0ye+TjrnAqA8oX7SH0LwDIFTn+ItrS3SgoMs9GVPoA/Rwj5xrzRXpX4C6zV6EpKCE5yzk4yxl+MIhZA+IZSc74OIV//PoAN+febvV5vdP78xb7veyCEIAzD8Ec/ujXa3Q3SlVea+jN45ZVvr/R6/cc5Zw8zxh+LouipKIpWIDL3ofwzQMaaVmaZS9qb9+vHIejw9fvuO/rPIZ732tR+TLoAOE+KZaDCfiE3HHgm8So+JSmwHvwwCWKNVn7UBiaxOMMJy8oPxD3+KULI73oePdUe7W2TGlWb3mY4txeEAJR6Y0LILQBbnPMgiqJ4bom6NEzsOIDQ3DtKCFkWx/lUFuUSwNyw9yDtzVvXFxb6/9Xp08/8P/fffyzg3P08vyW2Ku21rhRLvPpyBbLksFIBrCyLUis9w8NqVgM0euNa7dUCp0kK/EXZ5HyqDdqr6Kc9NaojcO776Mqp9xXOyk9yzk+aB84s6toc9h6kvZnL8+jJKGK/+cEHH964//5jr5mwLvW2yAh+hljnrS7kiNxanGLLlsOSF5MIfqZpLJB9ttei0dI1BU4XPEwC9sOUkn9ACD1dF72pUfCyAFtXtdea9jplflWwImusg7rOCu2t07Yue8H8mdFo9Lt/8Aev/kcPPfTg1StXNnIxa2urQEa1l9gdiqh0OsQWK685rXXKoP2ApgKYsRwWWqj8QDsCJbGmlZ+TlJLfIYR+oQ7RytmlvUbQGgKYCzYtKupOe22xc0R7s7L605xHv3PlysavQ+zdTq2cNqZKXQCwa3KuIpOm9psT8S2Ww8r6x5KVOPyuLgiWKbB2M6UBTIvk6Q+xlPZSSoeeR/9TQugvuFYE26e9VSWTmqS9VYIf0C7tdZ/h4U57K8thOdiWpL8UfwHAX4coMGW+rb7VRYgV7U2cCyZSC8Am4eHcbptMxQtuIoel/tGUS/McSasGUuCEwoMsehRijxw5TLe3734ZwNcIwbKgRh3tzVsd7Z0129oFP70LIGWfZQB/A8C7AP6J+mFayQkwrxQrypyKF8ZyZbLgkTjSCoOtLq2gq4RQGESNYFoOi8t+PYuNxKmbMVSEdareZB1vg/gQjPrIvv3t736BEPJ3ARztaG/x6mhvk7S3Wb+YzuozcUchdATPAriQV+0FMDJVcgKSRxe5hQqUjBdqOSsFQdQ0apHDSvT5cXPZo7h641L5ydg7KKW96+urePPNd44zxn4DwMnZpL2zVO2dT9rrJmbarF8kaS8r84uHIUSAfx3AbZ5xqgsW54KB5KEIk8wPObNdbJOlouCnfrF05UgXOTU8utJePQU2ob1S9mh5PN79K5zzX+Sc04725q+O9jZn26b9ooT2Zr4dgF8ihHz/k08+/f0TJz6nlIGcDkUAyRNhBtiprS5C7GivjkXBCaXSAJjT5Gw9vV0GQX0D0yZ9Vg9yQIjx8an+j398+8Uoiv5zgC/bzvBwp70HoSLY0V5zbEd7c9YypfSrP/zhtTMnTnzuDVSUOoP92EuksIUXmxUviEF3CM39l+TvWOv5a9ipJucybN6HmJfGZmD7W1t3hjs7468B/OHZOP/ZVXvbwc4S7a2j2muDxcM7O+Nfv337NmDe4TFV5OR8f+f2qPoCYN8aZyKHNTXGDgaVH1kk0bHOKbCkvMYp8N27o+EPfnD+VzhnqzbKH9Vobzv0pg3aW0/mJ/7uGsCqU+aO9hZh1fsyFq2//faZrwDk9znnuS+SEy/i8/wG22SJrS6bZ55z9FPFkkLaq6/MAFgkS12h4dG2UqzSWJvNzz7nGLz33vtP7u2Ff5kxNmiO9s52tdc8kLQd/DraW7Yq0N6sL8UBgL8K8O8AuJCFKVFystkmU8vqmSfT8z9qkcOKRRG5OOdnpAKtYeNvAW5QKdaDH7dseNQ2P/uffvrp4O7du3+WMfaFg0976zz/6UJ7VUWQGQfOtjO/+aO9Vaq91boANNt+AWLW8H+H7MwqTpYE1kzJSa7EwQZuX+3tuwQ/leQVyWFNNTwaqEDnntUzSYEJmaK9pWlsOgX2/V5Iqfd/MBb8X2VYAFhY6Pf7/b5PiHCY3d0gCMPIZFoWBoOFfq/Xi7Hj8W7AeTmWEILBYGHg+z4lhIAxxgQ2n2KoRSmlg8FC3/d9CgCMMbazs2OBHfR934uxd++OxibPh+d5dDAYDAS1AsIwZDs7YyOa4XkeXVwcDMSXDLC3txeOx7tBCQwA4Pu+v7g46KsHMwiCcHfXDNvv9/yFhYW+sk8QBEEYBka2XVhY6Pf7Pc0vdo38ghCChYV+7BeMcba7OzayDyGECp/yKUCkbc2wWX4xGpn7xeLioO9J40ZRxEajnbRtbyMV0Ko+88g4zy/3CwuXzvZkogRY0F6pCCPeM+uF5YVRyIKHLe11SYHhLo3jlAKnS+ZyjWHYXyhx+rePMZaLrvip8ZMG2IRoJRBP2jLGcrchN870Rs/qAWvbpufCGNu2ql/wZBOtk19A2CewwA759BwOa79w8Sk+0QK03urS7OOEBeLMz/RQRBz8bPxC4mM5LM4z5LCARNHCWA4L2reASwrM3eRt4hRYLqfgxyctNi5ODlg+ICr4aVjTUzhVnDw+wM7tpIum6A0Mpc6QI11UBkqdAtCDn3EXACH21KjOL0UAsPhyggy4Kvip9zX2CxXAYB84E8IGcOjw0IOfIXZq8pst7QUmwY9zBBbK4r68RkYIGAHiqq0KfuqiApinsQPOQRmL8P77V4bXr3/iM8bUDea22vT7PSwvLy/LfRIWBIGkZOWcbDBYoMPhcKiw4/FuuLMzCkzo3HC46A8Gg4HAMrazMw53dsaltIoQgqWlod/v92Xg5GxnZycYj3dLqRGlFEtLw36v1+sDYJwz3L27Mw6CoNRhPM/D0tJw4Pu+D8FusL19dxyGYSnW9z0sLS0PPM/zAc4YY9jaujMy2UPr9XwsLy8PCaEU4CwMI3bnzh0j+/R6PRw6tDwECAU429vbY9vbd42wCwt9urS0FNt2dzcIR6NRYIJdXBzQxcXFobLteLwbjkY7RpR5aWnoLywsaLYdB+Px2Ij2Li0N+/1+v6+wo9Eo2N0tp9uUUiwvL/V934/9Ynt7NN7b2zPyi+XlJWlb4Rd37myPI4ONWd/3sby8NKBU+EUURbhz587IZH902i9CdufOtpFt5TMf+4XBM8/kn/H99983eu65L4Se56l/i2mvQVeKYrYME0EEEQC1tDCOyDbU6LPPbg4+/PCjF3Z2xs/v7e09DTGX4Si0vcT00s5hysyCIYrMdrYF1oN6bSaWCVQWHrz4muywFFRtZAFgLGKmG+pig1lhOaKIMbvNaVesB0LUZ8zBWMRMoFrlNMaaPFgKm7RtFay5X0jbArX4hbltk37Rjm1tsKKS782KbRmAMaXktuf5m57nvdvv9945cWLljYceenDLIqvXM+RAxTeiqbvE+zsmL8oYo+Px7vL58xef39kZfTWKoi9GEVtBznwGfdXbz9VGL5htu0oVbK2ab9ZtMuL3rSXwD4BtzbFp+zTnF3XZFo0fe7T3i3psC2DMGN9kjL0G4HcAnEEO7da7Q+SPGETWGMe4eA+QiDO9pVekMr/vf//c6Tt3tr/KGPsKY2x5PtQ7Zi+AKax9kzMFwOHm5M3ath6/aNa2dfpFM+e2k7Zt0S8GjPFHISYA/iKAbwL4XYiphPHK2M8N5V5hYltCTwtL1/r6KoIg8M+c+cFP7+yMv8E5W+ec03bUO+wekCr9XO2OrmyryZlX6PNrTpmlag9nu03O9fiF6aoW/Ehs2wPkF4cB/CpEMPxNCAmvvGJWKAs1yfcwuhKIjcTRaETPn3/3Z3d2xr/FOXuRc06bToFnh/bqR6BmK2vsaK8dtim/mFfaa4ANAXwLwNceffThs08++bhxJd+b+knGWl8XVeJ337349Pb29t/nnP9hxjhxo732H4RuAFtHdcfShAFcApirkyePtzVDe+VmvPyJrZN7jdu2ql8of3SzbTt+0QbtFYUWV79o7JmnAB4D8GwYht968MEHA/E6AEramErVYNSe361bP17e2rrza5zzn3bfwGyWGlURM213VkNHe+2wbRxdbNcvTNc9SHuLsF8KguDXt7fv+CbBDygJgKpCzBgbXLp0eTWK2JddPwhhdHfRympYlwdEz8Ds6E11bPXswDRw6pnQvNhWx9pW8oHZ9gvTNat+wRj/5QsX3nsxDCOjxvncPUD9GNPlyx8c+/jjzd+NoujLrtVe25upq9rrNsOjzYpgbQfYC9ck8xPV3ioVwSqqLjYBrOsCaGI7hGjBvlm/qMm2jHP+Tzjnv8Y5v12Kzfph+ijSj37042cYi77Y0d48bDV6U1fwmxXam8R2tDdr1bkdYh/8Zms7JPXMU8bYz3LOnzHBF8lh9QHQ7e27dDzefS6K2CnTC6qn8mPXL1THDA/gINAbI2gt9MYWezAq+dVmeNhLWs2bX0C+Vxt+4arzOOUXjwJ4AYCS8k8sbRY6ncoA5bG4+AjbzZs36d7e3s8gJ1vMvqC6Kj82x5hmq9o7TXubrPZWCX5utk1izW1bd7X3oPvFNCMwa3Wpalsd22611/yZL/ALCuCPYHICZAoOmfwlMsAsRZhr1z4BgCdNbuaApMCOtLct0crSEYU52Cq01z3zmz/aOxvN79VsO/O0Nwv7FDIYri6HBf0X8uSwxuPxYQArJjfT0V4zrKo9NZX5ZV1zR3uLsUCzfpFucm6iz29yzfcE7U2vFWiBLkMOKwSkHqBW8U3ogmkl5Fz6m678uKTA7VV7Z3eGx+yNruyqvXmrvax+kvm5094D6xdxppdShGHyD1566ZU4sCklGEAeGtaCXwjgcvHNAAcwBc5cbY0onMbO2+jKWaK9s1Htdbct0CbtbcgvLgMIM+SwAEyEX6iqiMgPPQQQvvxyQhUmAPBW0c2oB7paM6ttwUPHulEj0TDcdFVPbWy7PSA2Tc7VCx5VbVuHX7jZ1t4+B4P2VvEL05U+unjQ/cLxmX9rMFgIIM4EK3FmhpTKvYkcVgjgexJEkzfTbArc0d5Zo73tbId0tDcPqx9vm53tEIdnPgTw/Z/6qf9AdbQAct8vHeP0Pb+8u2EArgK4mbwZoOkUuKO9Zuvg0F7X7ZB5ob366EojaE20t22/2PftkJv9fv/G0tJQb4MJgGk5LN9wgPAmgA1CyPH6KoLVqnrNUaM6aa8RtCXlD6A+27ZT7W3PtnbBT+8CaK7a68WZXxXqOhvPPL22tLR0U5mEFAynKm1uljeySSm5Wm8jrB29IaRKk7P7N/xkz8IVOytNzu6SVvU2wrr5hZt9mvULda8Tv4iMcDoWsLetwCLGNmVb12dex7r4hed5144ePXyDEBH8OK8oh3X69NPbvu9fJwRhR3ttsR3tLcK6dAGkaa99n1/zflGF9lbL6ueG9iq/CCklGw8+eHILUg6raGSmiRyWf+LEysDz/HcBjKpVfpqq9lJ01d7ylaa97VZ73Zrfo+jg+0UW7d3vaq+w7SSrZ6ytam/THR5kRCk9PxgsjGAgh5UbAPXp7QDQ6/UuMsa3ZyEFboPedLS3+e2Q2aS9Tezn6hnYbNi2+jMfV5m3GWNnYBD8gJwAqM/8JfJ0yPLy8CJjbNvuZoAWUmA0TW862rv/1Ojeob1NZH5zR3uh2XZrb2/vomFxN1cOy8ekeRAAghMnVravX988C3HIOHe1WPmZ+qa9V6u9E+paPTuYxYqgi32a9os2qr0T2iv+Pou2rcEvzgIoTNSU0n38P6l/pJwnAmMIYPz222cYgDeLXrijve60t7lG2KrBr6O9Zaujvc3S3pR9/p0JHFkBUErF6KIIAZKiCO+U3wwwO7S3zkZYF3pDrANn25lfR3uLV9K21bZD7Pr85pr26p9xbowCgPX1VV9L8FiRHFYg/+jrHIDbAI5m3cy80N40vbGlvRMsm0Ha6/INP4+019y2CtvRXhNsoW1vAbiQhVtbW6WExPEtPvkWy2Gp/+YcIGKCelYVZSzf4EX1g2QKXO2cn3v2VuUbvuoD0vToyrZor9voShe/qOdsb7PngtsfXVmFutZx5tvcL2S7Ctz8otC25yBiVGIpuT+IrpY4+CXksCYXmBv8IF/8nH4zdabAdvTGnfbWR4062muO7WhvMXaWaa8rtvatrnNIsVYlh0WIEEUgBIyQiSgC1QaEAFIOq6CEHEAUQlg6Ba7S8NhsM6sbdvob3q7JOU2NTKCE1Lcp3lQza1W/mO0mZ4Yoqtb8brKEX1SXtALaanK2n89iYFsG4G1oAVDWNJQclvqdhCBCpkhgwWIArhJCblFKH3ClvXoK3NHe7NXR3o72Zq0s2jsLfrGPtFetmxCqVQwA1tZWwfkk8wPAOJ/SOp1UQ0wuZn19Fd/61ms3GWPXAf6A2MB0eUAmm5/2tLfZje3pB6Rak7Mt7RW/34aqS9VZDS6019Uv6rKtu5hpEyd/xDUTR7+oU7GnCnbf5vZcA7CpMdoBklqAgdzeSyxTOayYS6+sfO7WJ59sXmWMPzePopX77eSTAEaBhmc1uAqSVsFO/KJZ29bpF81Ue5O2nQW/qEfA2Ng+GxBBkKYzP6CiHJamqz946KGTtwkh1zjnrIqqixvtnY1ZDfXQ3tkZUViln2vygDRn27r9wnTVQ3tnxy/qGVdrZJ8QwMb99x/bgohTOu0dc55f18g7ChcvFfxkVMXi4iLjnJ1njI0ALJfhG0yBU9hqtDdJbw467T0o9GY2aG+VgkdHe12w+/7MjwG8+1M/9VwfouIb/5yQwqJucQDUgt9A+3Gwtxe+AXHerjAAdrS3o71Z617wi472Zq+Gaa9a28Ph4gXIzI9zMFKgAp14z7x/0GhvnxCoylEAEW0vouTAcUd7O9qbtQ7O0cWO9hZhZ4D2alg6OnnyxIb8q3HwA3IyQO1kSB/IPBe8BTF388m8m6mq8AC0TXubojezTnurHYE66F0A7dHeiW3nxS8AN9t6nnfpkUceUgmZUfBT1eK8DDAhh8X5lCgCAHw7+4KqKDzQhPFcvuGrYIFmaa/AKhO40htXJ1dYuybnOmd4HHS/yG5+N4LWMMNDbWQ15xfTtjVvcnb3i+q2pZR+lxDCAIxgEPzW1lYBEdtophwWxJk5tQJCpoIfkKG60GIKXIneJIPf/ouZtk17k9iO9matOrdD7GnvbG2HtP3M+773DlBc7U1e80QOK60GQ+XPqL7nl/OiFyGo8GF1Mx3tNVt1nPCoRm+qUqOO9pphO9qbt2q07W3G2DkAYdHwI61BOqEIo2eASgiVyusoCn6ACH7n1M10tLd8TWhv1YpgR3vLsc3S3qq2nU/aW4tQ7bmdnfGWQeZHOUcfqdNvFJhkf+rzJ8WKMGqNAVw4CCmwO+2tPquh+bO9He0txrZDe6vZdr5or7hXF7/ItG2mBJa+NEUYJfnHILQP4Kvgx3nc6lKmCAMAGA6HQRDs/oCLnhs6S7QXSGONoB3tnSPa20Sf3+SaZ4f21rHVpbA12JYB+AFyAqDUAaRAnPkxIJbDAqDtAargZ6AIE2eM3/3uG9d3d4PbnPNjbg2PbTbCNrWxXUfw07+lXbFdk3Peai+rn2R+7rS3Wb+o3uRcq1/cBHAF+WIulBAMoAU/pJI7fQ/QRA4rcS641+ttAthsOQV2xM7b6MqO9matdmgv0Cbtbccv9uWZvw5gMwsnsz8V/BTtDdIxzloOCzL4AcDS0vD61tada4zx02Y3U3sK7Ijd/36uKtj5o7112nYWaO9khscs+MUBo736r1yD0ACM19raKohocxmoPT9MTodM3bC1HBYm6qo4efLE9Y8//uQygHUUHKtTN9PRXhNsnfSmnfOfHe3Nw9YhZjpLtHdf/SKEoL+3ktcLpQIdBz/OMSZEFD2m3sfkYtLBT0rlXqAAACAASURBVF7H+MiRw2MA51FShelob1v0xrUiOC+0V+8CMILWRHvb9ouDvh1iZNsAIvbES8aprOBXXQ4LWuYn00nVJnMGIgAOs2+mo70m616gve3Z1i746V0AbdDeKnM4qvlFU6MrG/GLEUTs0Q9xJIIf6pLDAhJyWHrwA0Qz9BaAY1k309FeE+y80t62Z3i0Q3ubsu09SHv1tY3JDODM4Iea5LCKgh8ggt+VqRfuaK8R7uDQXnNqlKY3sze6sqO9ZdgZ2A65BGA7i/bCMPgBxXJYsQo051O0N71eB/Dzk5sRDtM+NTrotDfZCDsvtLdpv2iD9grbdrTXDOtk21e1sZfWwU+dDc6jwL4MfhQoDX4A8N3JzeiRvKO9+dj2aK8rNbo3aK+hU2RgO9qbvdroAiCEvIVqwY/G/5P6R4qUrj7KzwVfArDdQOXHENvRXnPsvNFeN7/oaG/2aqkLYOvQoeVrcKS9QLEcVl/7RZPgB0rpFoCLhJAvzgPtrSfzE3+fRWo0e7SXdbQ3Z80Y7QUAeJ534dChZaUAzSC1AE3lsDgHJSRfDksto+C3vr6KlZXjoe97FwmpRd7GEas+RCPoAVB1cX1AXK45Sw7Ljt5Us22zfqFsO/GLpmjvxLbV7NOMbXWsS+Bsyy88j14cDodjyD4/lGgBKiikKIL8qJj64ZQcFkSToSmXHpw69SCjlL7XYApcE+0l1oGz7cyvo73FK2nbatshLqMrbbHzSHur+gWl3nvHjt03gkGfHxBL4Ce0ADnPl8MKgOxjI/rSys/9Q4eWQ0Lo5ShitzjnU/2AeTdTV1XPlva6UKP2Mz97etPR3o72Zq1qtLe6bav5BblJKbmyvLy0jZIkTYttar5RrAijMkZnOSzOMSBE7BcSQhBF0QbnfBMZDdFZN1OlIpiu6s0H7XUbXdlVe+2x93q1VwQ/V7+oattqfgHwzb29vcuEEJOCh94mEwe/SnJYMp2Mg59c4yAINpAjTZO4olqpUUd7zbHzRHvdA+c80N4JdnZor7JtFLHre3vhNQuG6sssmaEmOawBJpViBkGZA4jgdxnAKnJOmFRJgTva29HerDXLtLcKtpptbbFt0974mWec4zKAG3mYnHPBIalDDkunvXIFSFaKfyB/NkjBO9rb0d4S7DzRXvH3Jv1ilmnvxC8QQMSYQihk8JN1DcY5ApIjh2WqBgNk0F5Mt8mcQ0YArNrnl/wgqjU529Je8fsHf1ZDNtaW3kw2xe3pTR22dRczrdIC5UJ7Z9cvmprbsy9+MYacRJleWZkfEb1+IxQUdUsDoFyZtDfjRc9AqDQcNriZ0lUlgFVvcqZAw7MaXJVZqmAnmZ+9farYtk6/aFauTNh2FvwindW7zfBo2y8SW13bkBJY+iqQwxqV1TUKBVEz9vwAIOA8t0H6NsQ+YOpmmp3VUA/tnZ0RhVX6uSYPSHOCpHX7hemqh/bOjl/M2rjaHNqrr0sQQXAKyqfnf2Tu+aVXkRoMAAw4n5wL5kJdNSjpun4LwJeq0t4kvWmqmbWjvebYOmxrX/DoaK8LdqZpr77e0v+iZ34kOf+jkPbqK5cCy8Cngh8DEBBSfjSOEPIqIeS/6GivGbZd2ju7Mzw62pu97g3am4t9Vf1HFdqr4bMpsAp+6oKQv+c39aJLS4sblJJRR3vNsG3Q3tmd4dHR3jLsvUF7M7Fb0LbXkB38jGivFjypn/EPPpInREpFEbQjJ/2lpeXReBxc5pw/V432NkVvZp32NjW6sgo1mkXaO7HtvPgF0KxtLbPGSwBuF2V+MD/CG+Oy5LBcNLbiC1paGm7funXrXBSx59rI/GaB9lY5xjTPtNc0+CWzetfMr6O9Bwx7FqIA4kR7c+JbUg5L+0dwbqUIE8vM3Hff0e0oYu9yzo0snx383B8Qk9U27U1iO9qbtap8KdYV/DraW4RttAuAAXj3+PEHxnCkvUAsh6ViHoN6IV0iWq6AlMjM6AKqXKsUHz58aJsxdgmCsx8tvKKWaa8ttj56U5UadbTXDNvR3rzVJu1NYo2OtN4mhGz8oT/0rL49Z0R79e05QhKKMEk5LHFBYDLwlVqAC1XV9GHjsed5IYANANdREACTKXDTtLd6RbCjvZWw2xBOmO4x7Whvo7T3IPiFEXRzaWm4CZD4eBvMaa8PTAW/OLlLFEEIMVeEkVVivfdG3y+8BnFg+XQWPqnewVqgve6Z3/zR3trOf24DeAXAtwFchXDEIYD/EMAvAHjU8yjtaK8ZtgrtVc+evV/UETjtsb7v3Txy5PB1PdGCOe3VtQBDpAq6egA02u+TmV8f07NDdPwmJk6eaLWZGN3uGx7oaG8ztLdOesPAOQ8hzm/+TYhjTFsQjqjWP/M8+j8RQn8NwF8B+JBzNNLnN7nm2aG91cRM25nh4Uh7AQCeRxkh9Opjjz1yC4ZNzhqrHWISf0JkxDilBmPqMTHtlX/P0+RnAL4H4CvQAmVHe+eO9gYA/jWAv4VkD1e81tdXRwCujse7X3/rrXc+2dsLv8ZY9IDJe84q7a3iF7NNe52e+dD36fcHg0EIO9qrMj9gkvlNYQvPAqdfmPME7QWkJn/O0biz0L7ppys/8za6cpZob21VvUsAvo784AfIqt5gsMBWVo7/I8bYN+WXqtH7un8ptkd72/GLOmhvK3N7Qkq9s3CgvSIzR1iENZXDUrOC42yOc4xIcaX4jHzjYcUU2Jne1DHhq6O9zlgG4LcBXEhj8ppZn3ji8c2NjR/+HoCfB/B80ftWo70HYYZHR3vzVsq2I8bYGzCc/wGN9hIyCX5V5LAohCiCrrFlMo3pFoBLlNKfnV/a205F8IBUe68C+FfI+OblfPoAO4Dxyy//AZO4f4GcAFgP7VXX0Zxt26G9B8Evqh5p5Rd2dsa3DYJfFu0d1yGHFdNeeV1Gp0PW11fh+/6Z+aa9rhXBmaa9ar0O0aeVWOvrqyBkOvghWRj5t0XvW532tu0XB307pG3am8g43ynDqS9UTNr5CmmvvnLlsOSLxtVelfnBYhRdr9d7e28v6GivMXZW6U0mVnUBAEjSXs4Tw6mzqnpXst637Rke1f2iqdGVB8Uvannmv5uH0Wkv5/Fc81Laq68iChyf8OB8qs+vaMX0ZmGhfzEIghFjbNjR3mxsu7R3X6lRml3Ee35a8MujKAlsR3vnjfbGn/EWgItZGJmk+YRM096XX64ohwXtbC8AmAY/VdXjXAwk8TzvNmPsckd787EujbBVaW9DFcFTkP6lV3vlv2XRXn09nn7fjvaWr4OzHVLb3J7LECrzmW+rgh/nyYJH2XsayWHZZH7pqp76hh+NRpuc83MAniu7qI72NkdvGqJGXwJwdH199QbMaG/8VgD+pPpLR3vnkvaqdQ4iC4xXQZOzEe0tk8PyoY2TI8RMEQZyzy+9sT0e744BvIuMEyH6mjfa60qNZoD26uskIeSXGWO/TylN0F4UO+rjAP5ER3vnlvaqxQC8B20GSF61l5Dyaq+pHJbqnwFgJYeVSW+4OAa1gexBJgDmk/a6UKM0vXGb4dF0RZD89XfeOfucyISMimjLAP4qgCc72jsPtFcP2FO/tgVRDNO3SVQRbSrzM7lkzidyWNIfM+WwGETwMz1vV6bMegXibPBhpFa7mZ+84ErUyP4bvg5qdIBpb7ykbU/fvXv3t994462vr6x87juPPPJQUfA7DOBvAPhVz6ODjvaaYNuxbVXai1gLgBXZdhOyGyBNe+Vbh1wMaTOOUxoLCRUuSw7LSBEG2cEvi95sQCjDPKX/sH1VF9cHxL5oMUe0F0DCtpSx6Oe2t+/+3vvvf/Db77//wf8H4Qv6GgB4AcBfIAR/jVLa72hv+donxR4L7L7QXn3dALCh014uW104F7S3rNqrV4rVth5E1hjHqLQclsl+n3rh9Ci6PHpzA0IbMF7TcljmijBtZ37zR3udMj8Ny8E5fw7A70Fsar8D4DwEyzgO4I8A+AKAR8VeoVshrKO9bfiFK+0tfeYZhKTeTUwSLRX8VKwxMZIKflQLfokYZSWHtba2CkIyjzEVVfVCAG8C+DIA3yIFTqz2M7+O9patEtseg6gM/xwmzhvvO3fV3uZsW49f7AvtVYsB+Hcy+0tUe1XwMzkaxzmGQFzTCDmfnmluJYelgh9PtjSYlJ/fARB6XvIbvqO92WvGaW/Z5xQHvTzsvU57RfBz9Yu2aW+1EQWGn3HoefQsMlpdTKq9fNIgHb8eMB38ADMxhPiFkdHJz3muHFa8PM87C3DW0d7ydW/Q3qZEbmeT9k6ws0h7Xf3C6pkPT5xYuYRkYdZaDkvtF0LEqUysjRzWAFqPIBdyWKwo+E3OBfPxt7712iXO2fMd7c1f9yDtLcW2+8XWnF8kbWuLnQvaC0A8857nXXj66c9vy/eyor0Ahsq2EjsCgLw45SyHVXZBOpYQQgkhZxjjz3e0N3vd47S3FNss7RV/b9IvOtpbvtQz73neGYm3pr0yQdOxhe+ZGwDVYWFk0F5MS+BnYeO+HXFR5G3G2H9iS3vF7x/8WQ3ZWFt6M9kUt6c3bt/w9QS/JkdXkhn3i6ZGVx4Ev7DbDlHPPKXe92BIe1WsIRmiCGVYoEAOCzlNzhZHToacxydLWBAEr3OObYhu/9w1yfwoMCMjCqtgJ5mfvbPVd4ypmpM3S3uFbWfBL9JZvdsMj7b9Yv9l7JLPPLZ93zsLh/kfMvtTs0OM3jsvA1RagK4T2PVozACMOOe3ITq7c4URkrR3dkYUVunnapf2VtnYbov2zo5fVBldOW+0d/LM4/LOzviGafDjoh85oQhj0ctMpwKgLoogf2RyhjNT8FLuF47ka9yGkLfJDYCzT3vd6U2TtLdKwaOjvS7YpmhvteNtbdJeZVvG+CWZLOWu1PG2qfkfZe+p0WZkyWElMj/OMTI5cgKN9mr7hXoauwUxIOeXkOoDm1/ae6BmeBSug6DYMwt+cW/Q3ib9IvHMM4hTQrkBUM/8kGyQNqK96+urcR8q5yk5LJm5JUQRZBZXthK9NxCBc5zCBgA+gFCGiYUR5pH21qPeMRu0t1rw62ivGbYu21bP/ExWwTOfpQATL33PT4tTIefltDdLDosQGQC1lLA2RRiSrdJwBeJ8XxwA55H26lg72ts8NWqP9k5sOy9+ATRPe+sKfva2zcTehBBPmVqpWKMyuLhHsOj9tKxR72ZhwCRoUUyqKAxiv8+I9spUNKH2W4C9DCGO8HibtLfKMaZ5pr2mwa+jvR3tzVoGfnEDwKU0Lk175ZebEe3Vssa+FqPi+Ea1fj/j4CdXIvPj3KhSfAPA9bZpbxI7S7S3qmhlNdpru7GtsB3tzV5t2bZev6gl81NLKcDEK13t1YKfKe3Nmhccv3Fapt4o85MbiYnMj4gjJ4WV4rW11ZAQ8j1KKauWHahvLfdjTO5YtzOcOnY2aW9z1EhR1+b9wv0L1dUvgDZprzre5m7bGrdDGIC3oQWnFMucUoQper+0jqC8zmpyWOlWF3XhMhU1uqDFxcGZINhjAKdVqFFHe/cH2x7tJbF95of2HgS/MII20QXAALyu/pJV8HCgvfE4XiLmGwVprJUcFlJ9fnBokL7//vsvfPLJJ6yjvcXY9iuCTdPe2eoCqEJ7xb26+MVBaX6vlfaqFQI4C2RTVxfaK2sa4Dw7+KlfLF1ZTc7ARBGmrFIsU9AhIaBPPPHozevXP7kSRewZk/eur6pXtSLYVLW3TnrjTnubON42uebZqfZWEzO9J0dX1oW9COB2KtbETc6E5EtaqZWzXxhAdLRkLis5LBX8OBe017BBOp7ezjngeX4YRdHrAEoDYEd726O9JmtWaW8Vv5ht2muX1Tfc/P561vwPwOxsb1oOS95jUJY1posgU0tG4UTmZxKNtddPHFSWG5hvlgHnm/be69VeoE3a245f1EF72xhdua+0V19vIzv4GdNezicq0Hl7fulVJoeV2eQMmAmhQjsaR8hkjB0E1x9ByGVNrXuB9rZHb2aB9s7TDI+D4hcHkvaqte153kVkKDmTkpNoeuan/TiA4Sk2Yzks+WLWEjV6JNco8w2IUyFfSOPrpTftVAQ72puHrUPMdJZo70HwiwNNeyWWXDl8+NB2as/PiPZKZqoPPwpgqAgD5ARAmbVlzvw1eM0E7QUyI/kWxKmQRACsn964VgTnpdpL4nttlva6BM5ZpL2uflFntfdA016ZeHgbw+Fwy4X2kqQKtBHt1fC5clh9aEfjuGG1Fxm0F9ny+bcgjrwwielob4O0F7B3VIV1D34d7TXDzg3tVVkj8zx6eWXl+G1ucbaX8wnt1YNfGVbi49pHnhxWQmPLtNqLDNqbQ5kDAO9D7AMuzy/tbXuGR0d7i7DzSnub8wsKQsg2pfSDo0ePjk1o79raKoAJ7ZX3GHCOcdl0SqBEDgsiiOmKMK4q0CbihFcA3CKELB8M2mtOjarS3jYaYTvae9Bpb53bIdVo7/77ReJL8TZALhPDJmeZ+cW0l8hqb1nw0+ObYrYkLYeFZPAzlsPisslZvnA8h7Pkoi4RQm5SSh+eN9rbNDXqaG9He7NWi7RXYwTsRhDsnoP52d6paq8FVi/oMvVDYDr4mcphJc7qEWI+xu6jj67e3Ni4ep1zvNA07XWlRh3t7Whv1upor0tmHmOvAtg0nPk7UFiZ+dkcjevLHyXiG5WcGto/BpZyWDa0Vy3/kUce9in1LrZBe12oUZreuM3wqEp7XYMfsX5AOto7a83vLrRXD9hG0Nq+FBmLsQkFmPRKawGqPT8YVHslZe5zni+HpU53QP6wdNi5OtsLOfNXe1Gr6e0A0Ov5r+7t7f2XTdCbOqnR7NFe1tHenFWN9rZj26q0t3m/SGZ+Kb94LQ+XPt4mXktkfmXvqQq6hMSnQ9S2Xq4cllHwg3a2FwD4RKXBqHStXRCGw+E729t341aYopVNjWyD37zSXsOnIwPb0d7s1VYP52zS3ly/CAGcycKlOkvUsqG9fR3LOQJCpiX/nOSwgKmzvUa0l6Smt6+sfO7ajRufXQXwaBFwvmlvlWqvHb2pY3SlLXYeaW99fuFKe1lDtDdZ8Miw7RVkTIDLUXK2or2ExHt+gDgWV4sclkmTc97NxH07Ejs6fvwBAPgOCgJgR3s72muGnR3aW49f7D/trbPgkeMX30n/QNvzi5ucZfbmQnsBFFNmUzmshEqDLe1FsnqTlrd5E8CvZOE72tvRXjOs3ZeiCH6uftHR3nLsdMEj530TqlBZ1V4V/Gxor0yyAAPKXLr3Bo32yhe1pr2ETBVL9HUh42dzTnurVHubnOExm7R3gp012jsL1d5sFpOxRhAiqADyBxjlUVd9acGvr4If52b7hWVyWFkTlaxpr4YdAUAKex1iL+C0+kFHew867TWiN/uKrWZbW2w7tDfdwH6P0F61LgPYBJJnexUWJdRVrXTBQ2V+JpQZKJfD0kURjJucVbVXS0WLFB5uQQuAHe2dB9or/u4W/Nz8YhZp78Q+1QYYHTDaq9YVALfSqi5yWVd7bWivvvIywIQKNCFmTc7pNhk9+BVgb0N8GKlveNd9IR1rS28mm+L29MYtO6gn+DUz4Utcs7hf8V4Hf4bHNLap0ZUHwS/caK+9beFiW1UBTouoGFd7IWmvugbYBU4A2XJYceYnf2Stya/xcBNhwzGAdwkh255Hl116sgipQ9XF3tnqO8bU3L5dddorsii34OdW8Gh3dGXbfrH/Z3snAYyiIdtuAXh3fX2VIdkd0lTmp47+skQRJK0Io9FekwuKVRrkDRmPsfN9f8Pz6Nak8NBcP9fkAWluDkc9BY+2aO98jK5sw7bZgdMIWhPtdbEtcbHtbd/3r6KmJmdTrMTrugcTCpwhhxXCTmlhapiJKfbo0SPXbt/+97c55yfbojdN0t4qBY+O9rpgm6K91Y63zQHtlViydd99R67ySVtdbqOyvtLVXnkdxoGT81gRhkGeCdblsKa0AG1or7wYU9qbwD711JPX3nzzneuMRaebpb2zO8Oj2apeR3sPKnaGaG+M9X3/2unTz2zqFVuLEx6Jai8sskZC4uDHOAdefvmVOODpVFgpwpi8aOKsng3t5Zqw4XC4yDhnZ2bhGNOs0d56qnod7S3GVrNtu1JnjdHe2LaU0rO9Xk9lYTYBrApljtku52BK5d7XKiLgHIxkHBjOedGspsVS2ru2NmmTgVb5iSL23cI3lasOeqNj7Whv89SoPdo7oTcd7S3CVqO9Sds2I2Zax9neKrb1ff9NCBl7UyXnLGED2/1CFXAT4zITajBlsz+0F433/MTNuVWKJTYAMOacvyYvMLc5u6O9He3NWvcO7TWCHgi/cAt+BACCwaD/OlA+w0MFMM6nm5wNY81A0mYgR+hZ3/OzCn7Q+vw4t6sUq5tJbWDeBHA1D9/R3o725mFnjfbW6xdNNzlXPbrINnZ2xjdssjcZKwB72quCn8KG6d/1TTumq9DetKqrdjPpvcZ3ADyexne0t6O9ZthZo732x9tmlfZq2LdGo52pQKSvvMwPFsEvhR0D2Vt7NnJYWeeCraa3p6Jx+mYYgO8C+GX9h/NOe02DXz3f8PNGe2d3hsds0d4E9tUiXDrzk8to7GUOdoyCom6pGkyRKIKlgrQydl4kZ0gpw3S0t4kZHsngNw+0V9yri1/USXurja40XQeD9sbYEYQIQuYLqVYXIClmCov9QiQbpAuDH1ASAPOCH+fm09s5T8wOUWPs8tYm5D5gmt4w1qSqS/u0N4qakrSaNMK6Bj/1QLtSVxusyvzq8Aubz7h+2utu2yazxmq2ncJuQCrApFeq1UWN26hyOqQ0+AElclh8ImaqK8KMTIcQEzKRw+JmpesbAC4TQp6ad9prsmaV9iaxHe3NW/cQ7VXrMsQznljpACZjjfWenwq6si5RGvyAYjmsvJm/JheUmN4Ow9I1pfQWgKs6RWmH9jYne9QO7QXapL1J7CzR3qrYuaS9+tqAkL+LlxbA4oqtCn4ue342wQ/ICYBcnNHrq+DHuV21F5oiDGTDo7YpmYsNw5C9/vqbH4ZhNOKcD5sWMwXap72mqxrtnacZHgfFL5qp9lbPGmur9qZ/bRvAe9C2wKoIG1TJ/NRoX0IyAuD6+iqVG5F6q4tVkzOQLF2bRnLf9we+718Ow3CLczbsaO/0qof2wuF925vh4U57D4JfzD3tVes2piXwp5ScYbnn55j5UZncJeWw1tZWKcTenXW1V+0Xaj922sAcDAaXGeNb81HtJdYPSD20173g0TTtbacLoKv2mmON/WILYg8Qa2urQErVBdVm/hoHv1w5rLW1VRACnyePtxnLYekFD5RXe3Vs4mYefPDE5Zs3f3QdwFNl+INDb9znPHSjK7NXR3vvCdqrr2sArmmtLk6Zn8JqW2pjYielRZElhyUzOHVBIewUYdLBz1reBhCR/Cd+4oEAwFsAVovw9dCbtmd4dLS3CDuvtLc5v9h32quvt6QCdKU9v3S8sAx+sRwWIIazxXJYWkQNOTdXhOF86maML4jkT29/uwhflfa20Qjb0d6DTnvr3A6pRnv33y8ao736ehPZ53OtJfDl5+MS/NRiShTBl5mYnvkxk6IFzzneVgiEceXn9Tx8HfSmaWrU0d6O9mattmkv0JhfsOXlpTNwz/wGSA4/Mq32qvlGfUjay3mGHJZ80TgqGlxQ1p6fdelarqybuSlfU88QO9rb0d7M1dFel+ytUb8Ynzy5oidHRvFCL5ZoPzZudUlhGYAwLflnLYfF+YT2SmMb0165gZlOgbOwDKJsPrlQOt0I29He6dXR3lmivXrANoLW9qXIWHN+4Xn0NqWe+pFxskTIRNVFLpvgN4CsMmtxqroclp75EWJGe1UkJ8T4ZhiASwCOA/cC7WUd7c1Z1WhvO7atSntd/KLOzK95v6CXej1fdZWYbpMNkEyWXGgvJN2tLofFJzL2au3nQeUQohL8c/cG7TXNhDra6yZm2pZfzArtJRWDXzW/oJS8A6EEY9Md4kx7eVIFOkBO8ANgLoclgx91pb3qZ5yLo3El2BDAq5SS8WzTXnta5bop3tHeNvzioNPeJLaham864xxxjld3dsbWrXHy87GmvQZbbPEyksPimqSVRntNGqQT8jYQpeuxdoGZa23tj+HQoaWznue9oehNFNlSowmtakr2aJre7H9FkBDA87yEkzcvaSUCvSm2mqRVVdvW5Rd2klZp2msCFbatkvnVsx1iY9sM7Hf29vbeevTRh0vjBRfF0cHktaxob1wphohNIxOsl/cPKUUYFbJi2nvlykbhzSBV7eVa02IZlhDSP3z4cPjZZzfvY4z9YcZYz/ZbmhD3jW3d8Lbf8JOH2jDyoaqTu9KqOrH2tNcFOwmcVWxb1S/caK8e7E1WPbS3SubnsoUzZdttxvjfA/DylSsbuS+iJUsL2o9tMr8FjfYCwC6APZP6RmYGmCOEakJdcweSELumxcHhw4fCo0eP/jPG+IV7mfZWU3WZTdo7wXa0t+h966C9rsWsmvziLIB/igK2WEXMtEqxRK28IogvszddybmUuhbdTNmFrIlKsZ7G4tlnn9nY3Pz01wD8S8iKcN6ar2pvPVW9Kthq1V5bbHXbumDTDezzVe11yeoT2E0AX0WGAKpa6SZnuayDn/xRYbU3jeUlclh+aiPR+riKxNsOP058EISQAGJS3N8G8A3kBMFZq/ZmYZut9oq/V68Imj8gIvi5FTzaqvambTtf1V4X2sv14PcNAGfzcHnPPNyCH1BS7U2tWA4rDoDyRdNyWFbVXrWBqYIf6hlmEgL4JkSw/gaAY4k7SdHAdoJfk6MrJ/tY6EZXlmDr8otmz/ba27YuVZeqtuVgjN8C8HcA/O/IaDwG3GmvxAEZWWNZoqVhfZn9MegBUP0jMBlIYrpvxzNUXSz2/OKObWnALOw2gP8RQlDxtwCcBtCv7xhTM/t2VB4zFAAADwVJREFU9dAb/Vu6GWy7oyubte00tplKvqpQY0bGkmZgx4zxCwD+FoB/m4erQnvlyqS9ZYkWZHIn/z8++eapi5K0l3AOQggim6IFIVPzP3YtKPMCEGPLAueHAL4D4C6l9BSl5Gg9x5hmhfZW3dhunRoZYZOBsznbZgdOI+gBGGzVpm35Fcb4PwDw30AcYMh8ofQzL5fT8TZ5y0bVXontQWR/HEBECKKXXnoFRKO+6g+D4UYiKmp7wTEFfu+994/dubP9zHg8/uNhGP1CFEWnOedx9lq0quwLTVf1XLID4lAsmfRzVckaqzwg1bAuxZK2TnhU9QvmGDjt/EIEztb8ghFCQkJwjnP+L6OI/SvO+WWI3rvMlcUUYUl7ebLVxYb2DjDRAkxonSYoMOfTagkFL5wIYC60V/uxVQr89NOfDwGcg9hk/TsvvfTKUQgF6eNAYg5xvAghtNfzfc/zJcVnLAj2Qs556f0SQmi/3/Mp9WLs7m4QmDg5pYT2ev2+yGgEdjwOS6viAktpv9/rq30wxiK2uxuYYv2Fhb6vKpFRFIZhuJe5J5Nenuf5/X4vxobhXshYZIT1fd/v9XxftZzs7YUBY+WfMQD0er2+73tUBaG9vb3AxD4AaL/f02zLsbcXGGGFX/R8z/Nc/aKvDvoLv4gM/SLLtsZ+4ff7PV9hoygKgyAwsk/aL8IwDBkz94uFhYXA970bR44cufz0009uwkLSipDSra68pbe62NJePfhNJXcJkUDX4Af7Pj+nyg/nyQ8R4lsghJDPulmCHRIS369xyXxtbZXKby1rrOxQ1wNyKK+5UHMxbyA9hLOZdNT7cltCCd0aYzGxT6IFaj+HU7fZDgFhn9i28sE0te2UX8gkwgQ75ReG9nH2iyws52ZzvnnqiBoxnNu7JtrbdHGCSsmSrE2Y2ja2D+fiXHA6xunGK11VaW/VFJiQhCjiqMzZNHrf14Kfet/CD1EaLiv4jQwDWNrJ1YNphOXJPsxQYXOBE2x8blsPfoZYdZDcugsA2X6xb8FP2icPW2pbeY+6bQGUBz/NtlN+gRLbau+bCH4yIJjYR72vk1+ksAFg3qJGkkfUrJ55pL4Uy4JfUbXXBMvFXKM+NPvIa576nEpam6cuqpZvePkNkoc9DGBFvQ8hBMPhYr/X6/UBsdE7Ho+DICingpRSOhwu9n3f9wWWYWdnZ7y3F5am/J7n0eFwse95ng8AUcTYaDQKoqicCnqeR5eWhgMqeW8URezu3btjEyro+z5dWlocECKwYRiyu3dHYxNK1uv16NLS4lCZNQj2wp2dHSMq2O/3/eFwMbbt7u5uuLMzznSa9BoMBv5gsCCzA47d3d1gPN4NTbDD4WK/3+/3FXY8HgcmNJ8QQqVfaLYdj/f2yulcll+MRjvjMHT1i7vjKCrfRPN9nw6Hiwm/2N6+a2Rb4RfDAZG8d28vZKORjV8MYxm7IAjC0WjHyLYLCwv+4uIgzvyCwNwvFhcH/YWFhb7oAyUjSuk1z6O3Pv30M5OArccLBnOWSSH2C1UvcyEjMAqAKo11SYEt9gt9AF8B8McBPA5gGVCb03IDDfEBdqOMVWwwu2I9KGeTWGayKT7ZnCbxflRkuDstN5hpsiJojvU8SlOnDyywXrxvKg+/G2FFxbYerBCPMLPP7PlFXHiYGb+o07aMsW3G2GUA/zfE8biiHsE07TWizDLDttrSKA2ADVV7j0E0Of/HEBkgBaaPT7kfgarW5BxFkRFuGms758GLr7edJmc7bLXjbe3Ydho7CzM8vMZtu0/HHhnEfOB/BNEsfUthimgvzLbJKJJagIDYlijc0igURG1oY/swRPD7z/TfPShNzs33c81GI2w9Tc6zO8Oja37PXiUCxhTAUYhnnUEccd3S4OliltE+MrQ9WRl0mdxiKy2W5PbN1bCxbVrt/SIE9dWCX52zGqo1OZs+IHUFP7cHBHDt1VPtKi5neydY2+yAxNjmm5zrGV1puuo521uHMourX+yLYs8AwF8E8DyQT3thF2v0godR8ANyMsB0ALMte1tWe/80NJGDKsosVVVdkrR3/+nN5JrbpDd22UE3urIp2nsQ/KLabJcS+6wA+JPr66vfQna117Qan5VombbJ5MthQesFK6jYZr2oLYd/Qf3HvNPepuhNPUfUOtqbtzraa2yfn0YNtFfD2gQ/Gv9P6h8p51MyM/vZ5DwA5o32Am3S3iS2o71Za75pr7lfVBtXS4fQWCbsZ/5aBz/11vLPJANMyWGpte+d/ACuUEq/OF+0d55GV3a012TdK7TXhhF4nrcxuY7yAKYdEtCnxhkFvzw5LD0D1OVigH3u5FfYfr/3byglgTKeyze8C3b6G96s1YWQaqouAgvtfV3oTVWs2wwPl8CpY5uybRJrp8lXbThVlczPq8m29rS3LttaboeMez3/32ASwIxpr23w07B9INEgLYKdzonlSigm5C1V8IB79WZw9OiR1wmhr7dDe9WeRdO013VfCGia9jZQEczAdrTXHDtrtJeo7ZTXDx069BocaK/2VmPOrZSrdMrMXnrpFXiaPr7apNmD4UYiIRiQ1CQnYn5cZQFA/+jRI3du3vzR5SAITnPOV2DQnF21yRmYYJttZpVfPTNCe+tqhO2anLOX7hft0d5qtrWf7UIZpeTtxcXB15944rEzg8FCoZ7f+voqHn/8UQpgEULTD5K+7nADLQAN60FUGyNoGoK+fEG1wjJVCfXCqKbqEnP4hYWF8Gd+5ouvvPTSK38ZwG8AeBHAw8ipUM9utRcO79tOtVfPDhqsCB6Yam9zftFOtbeuLgBL+4SU0quEkDeWl5d++4UXnj9nkiwho9rL5fG22uWwLIOfsxagxuEVNgRwAWKK1DMATkE7EqdWv9/rizOrBJxzJjXfyi4ZALCw0B8o4zHGmNCaK8cRQtDv9zRsFJocuAeAiRagSK6jyAar68VxRFEURlH5YX1A6Lb1er6vsGForsnn+57v+z1fPSBhGAZ7e6bYtBbg3tjUPtNagIExNukXjAXBXkN+0R8o29r5hbKt8ovQwraU9noJvwiiKDQ9x1zBL8RSfmGh1Yhez/d7vd627/eu33//fZcee+yRGxbxQqeucbywlcOCbLFJxzgXOSxriRqJTTctMkw3PN4G8Lr8b9WDiEceeZieOLEy8H1PantxtrV1Z3z+/MVCp6GU4vHHH6XHj//EwPNojP3ss5ujy5evFN6z73t48snH6f33HxuqQ/eM8fCTTzbHGxtXGbJVvwEAvV4Pn//8E/TYsaNDIg+/RxELP/74+vjq1WuF77uw0MfTTz/lHz68PFTUKIqi4OrVH46vX/+kCIrBYIBnn33GX1xcHCqKEoZh8OGHG+NPP/2sELu8vITTp5/p9/v9gcIGQTB+//0Pgh//+HYh9vjxn8Bjjz0yEA8mwDnYeDwOLly4GIThTiH2oYdO0VOnTvQ9z5dYzu7eHY1/8IPzhbYlhOCxxx6hKyvHB0qZhXPObt/+96N3371U+Bl7nocnnniMPvDA/Qm/2Nz8dHTlykclfuHj859/nB47dmxIKZF+wcLr1zfHH310tRDb7/fw+c8/Se+774jmF1F47drHox/+8HoRFAsLC/jJn3zaX15eim0bRWHw0Uc/HF+/vlmIXVwc4Nlnf7I/GAxi2+7t7Y2vXPkw+OyzHxVijx49gqeeelL3CxYEu8HFi+8HW1t3CrEnTqzgkUdODXq9Xr/X6zFCqJKlMj3bO6XqUhb8suTKOI+xU/bxTQcIp/Ti1LLdwFRipibCkwwQgqSYNGWrNHY8GAzCs2fPF77vz//8lzKxDz10Knzvvctl16s0+dS1hJxjfOXKRqGTp7TXYiyA8Ucf/dAU25c4cI6QEIw+/rg4+KUyc/U+AbBQGvxStlXY8WCwUBr89G9aLs5gxtjRqDj4pb6lE7YNw+Kq/NraH8u07crKIDx37t1C7OrqH1UakTp2dPnyh862/fDD4sBZgB1dvfpx4fUqrCw4qs84ABZKg19qu4rJ5y8YDBbGZcEvjZU/Hg8GC6XBL8e2pk3OMVYPfjCv9k41SBMiih5Zv1y69IerSvADjINfGpvg/zDv9nbqFMek3G4lWgkAnNcrWkmIseqOekDUslbsdbGt3gWggp8pFtU6+Z0aYdfXhcI3mQjkGtlHLj3oAtIvLLBZSs5l1wtIvyAkFrm1aVFTX6gAzI+01iCE0k/5YyN+wXlm8MvFFqrBaC+qFJX1SG7sqDKNjbEWaayvsDK7yI3kGdip7AAww3KeyA5Cec2m7xt/w8vsLTB5X1mJnzoSlAtKYn1CEjMTbLB6IAnVNVsGIWUfI7+QWb2P6ezA5vxn/L4o+IbPwTr5RQpr5RfywVQVzFDerzEjUMwJFrZFMvgxLkfdGmL7qWfP6pkHks98GVZ/5lHBL1JZfaltSwOgvJH0A2J65ERvPAzVH0OsD+1DNAkkKaz+QZhi0x+iul6b7AC2WM4zsaZUQbdPFWwIWNlW2UfRdGPbyvdMVOZMsRJH5UNp4xd6oz+DDAgmc3CQHfys/ELfSoG5fdQ1JwKn6eek759xw1kaCgvtubWxLZKZudMzD/vnVmGtn/kyPUBlgHhPydBhFFa/IFOHUdfVKFb7xoSGNXK2DGwIs6lV+mecwBq+b3ym0RGr2zZ86aVXjCqRaazMGE39wtm28oGmEF+Itliayg5sJiDW6heW9nHFUj3omga/rGfewrb6M2+FRQvPvAJOLS2lpJjQG/XihSuVyrLUH1Ns+mbKoHVg005uhdUoSshLhiZlXDMwocxG33g5wc8WW4d9Gret9Edb+7TiFxrWxj5AddtaYffBtrPwzBdmgBSI6Q0sojHl2mFjwAyr34wecCt8EK7OZo3Vgh8D7IKf7DljhJiNJQUSE9GgPiuLb2n9r+perbIoeb8hYO4XGRkYXG1r8SUBZNjHBCs/44R9TLG6T1XwZcDSPsq2+v1aPLf6+1rZFhP7OGFT8cL4c5JfajojsP6M8wKgnsaacvB4aRunRk6eWupmnLBV3lfiYRLA9JUK9k5Y01MLEhM/IPKztlnph8vmfdV7wharvyfgbh8XrIt9VEW8im3h5svpL2ObpXpnrbFaEALcbeuEdf2MNYrvah/8/0YtinOhgtnRAAAAAElFTkSuQmCC" vertex="1" parent="1">
          <mxGeometry x="94" y="252" width="92.81" height="110.5" as="geometry" />
        </mxCell>
        <mxCell id="1JW5AIUkaNVzZbY3p2NB-10" style="edgeStyle=orthogonalEdgeStyle;rounded=0;orthogonalLoop=1;jettySize=auto;html=1;entryX=0;entryY=0.5;entryDx=0;entryDy=0;entryPerimeter=0;" edge="1" parent="1" source="1JW5AIUkaNVzZbY3p2NB-6" target="1JW5AIUkaNVzZbY3p2NB-9">
          <mxGeometry relative="1" as="geometry" />
        </mxCell>
        <mxCell id="1JW5AIUkaNVzZbY3p2NB-6" value="" style="sketch=0;points=[[0,0,0],[0.25,0,0],[0.5,0,0],[0.75,0,0],[1,0,0],[0,1,0],[0.25,1,0],[0.5,1,0],[0.75,1,0],[1,1,0],[0,0.25,0],[0,0.5,0],[0,0.75,0],[1,0.25,0],[1,0.5,0],[1,0.75,0]];outlineConnect=0;fontColor=#232F3E;gradientColor=#FF4F8B;gradientDirection=north;fillColor=#BC1356;strokeColor=#ffffff;dashed=0;verticalLabelPosition=bottom;verticalAlign=top;align=center;html=1;fontSize=12;fontStyle=0;aspect=fixed;shape=mxgraph.aws4.resourceIcon;resIcon=mxgraph.aws4.api_gateway;" vertex="1" parent="1">
          <mxGeometry x="349" y="92" width="78" height="78" as="geometry" />
        </mxCell>
        <mxCell id="1JW5AIUkaNVzZbY3p2NB-15" style="edgeStyle=orthogonalEdgeStyle;rounded=0;orthogonalLoop=1;jettySize=auto;html=1;" edge="1" parent="1" source="1JW5AIUkaNVzZbY3p2NB-9" target="1JW5AIUkaNVzZbY3p2NB-14">
          <mxGeometry relative="1" as="geometry" />
        </mxCell>
        <mxCell id="1JW5AIUkaNVzZbY3p2NB-9" value="" style="sketch=0;points=[[0,0,0],[0.25,0,0],[0.5,0,0],[0.75,0,0],[1,0,0],[0,1,0],[0.25,1,0],[0.5,1,0],[0.75,1,0],[1,1,0],[0,0.25,0],[0,0.5,0],[0,0.75,0],[1,0.25,0],[1,0.5,0],[1,0.75,0]];outlineConnect=0;fontColor=#232F3E;gradientColor=#F78E04;gradientDirection=north;fillColor=#D05C17;strokeColor=#ffffff;dashed=0;verticalLabelPosition=bottom;verticalAlign=top;align=center;html=1;fontSize=12;fontStyle=0;aspect=fixed;shape=mxgraph.aws4.resourceIcon;resIcon=mxgraph.aws4.lambda;" vertex="1" parent="1">
          <mxGeometry x="584" y="92" width="78" height="78" as="geometry" />
        </mxCell>
        <mxCell id="1JW5AIUkaNVzZbY3p2NB-17" style="edgeStyle=orthogonalEdgeStyle;rounded=0;orthogonalLoop=1;jettySize=auto;html=1;entryX=0.5;entryY=0;entryDx=0;entryDy=0;entryPerimeter=0;" edge="1" parent="1" source="1JW5AIUkaNVzZbY3p2NB-14" target="1JW5AIUkaNVzZbY3p2NB-16">
          <mxGeometry relative="1" as="geometry" />
        </mxCell>
        <mxCell id="1JW5AIUkaNVzZbY3p2NB-14" value="" style="shape=image;verticalLabelPosition=bottom;verticalAlign=top;imageAspect=0;image=data:image/jpeg,iVBORw0KGgoAAAANSUhEUgAAAqQAAAGbCAIAAACd4BUbAAAAAXNSR0IArs4c6QAAAARnQU1BAACxjwv8YQUAAAAJcEhZcwAADsMAAA7DAcdvqGQAAR7KSURBVHja7J0HWJNX+8bD3nuThOVWRNmIoOLedmiH3dutHdq6amtbu5fdy9Yuu+xQQcCtOJEpe+8AyiYh+/zv875JCDjaWvv/Wnvu6734QgghBL/+zrPuR0CYmJiYmJiYrmsJ2FvAxMTExMTEYM/ExPQPklar/VMP5h9v/F0XPYOGu67044ye5wrf9UfuYWJiYrBnYmL6C6T/U+eAi6j8Z19Gf5BrtWoGeyYmBnsmJqa/l/qXvRN3Uzob3ejzCKOr3z19H6kL7vUPNIT7xj/6Lxw4mJiYGOyZmJj+9IlAD3iNVtYtra+tyzybcWjf/h+++/7jDz/a+tbbL215cfMzz+J6fvNzL7+w5ZWXXv7gvfe/2v7l7t92pR09Vl5c0t7aRp9Bo/2DKQRGeiYmBnsmJqZrGdBryEVo1aGdXnU1teD6u2+9vWzR4hvnzB0dPNLPVyj28fX3EXI3vP18fQwX/dTbO8DXF5e/jw//GD9v3wH+ARPHjb/3zrtwGtjxzbe52TkqhZIwoDMxMdgzMTH9P7NfdwLQksYGyW+//Lpp3dNTE6ZQWvsKgW3Kb6GIxzyluDd/w4e/wHh81DPeJ9Cbv5//RpH+wUL+2XCFh4Y9eO99H33wYWF+QW9doO9BhMX3TEwM9kxMTFcHdh1WtX0a62k03yRpRNh93113+wt9EaYbEZ2Duq8XH7Xr6W4I7n11CPcR4xJ7i/jDAf9dXMTPHxd8jC/u+XVfmpIw8cXNW7LTs3TUv/i1MTExMdgzMTFdBewNoTMy6vuTU5Y8/EiQn78BzIA6cK4Pyjkw+3gGCI1T9DSa93V3d3d0dLa1tbe0tDU3t7OwcLK0wqc+zi4+7i4ibw8+vY/TQ78cgFEawHAyEM6dOWvbp591d3b1iekZ7JmYGOyZmJj6oPzyqe/+BNWS7Mysl55/ISYi3Ai6FMMovePiwcyzmWd2gEgo8vZxsLE1FwjMBAJLE4GduUDs7jDU3ztsqH9U8IDwYQFhg8SDhR6eDpYOlgIL7mF4sLWpqZuDg8jT2ziTb/wTdQV+b5okGDUi+LWXXj7f1Px7ZxUmJiYGeyam/zzmNRqN4U7c1t+r1ajUO3/86ZabbjZOsAd696KXb7XTx/dcNC8SOtvbmHOAHxLkd/v8uc9teGLHtvcOJ/1QcGZ/bcGJprKzbZVZF8rONpekV+YezTm+F1/65vN3Xt+yYdUjd0+Nj/LzcrExofjHkzhaW4u9vPgnN4Y9z3ukE3Bj2KDB77/7Hl5qv1+QaxxkuGdiYrBnYmK87wdIfeddj1T24bvvxUZF6wNrXV6dz6jzH/lqOm4D/0E+ogFif+TnQWgfd+flD9+9+8cvmqpyiEJCVM1E1UiUEiKrJt3lpL2ItJXQq6OYdJUSeTVR1tKvcpemvbws+3DST1+8sWX9PbfNHRLgDerjsrEw9/X04F+MoeMvwMtb39/nM35c3JHDB1nLHhMTgz0TE1N/rve3tkWEr9Z8+vEnkaFhhnZ6nqx8hG0I4g1xNj4dIBajEm8lEAQJPV55bn11cSZRtxBlE+koVzbnKCRZ/CWXZKgkmaqGdFV9Bi51Q6YStyVnFY2Zusc0Zmov5BFZJT0cqJqIsrmxMvvX7z55bOl9UaEjkCrAScLByorrBhDpzxm6fn6+3v/M05suntFnYmJisGdi+u/G9Pxtfnqet73b8+tvE+LiDcVyynuhyMfD09rcDKC1NbdE+G48UIdPne0d8CVvN4cXNj3eUpdP1BeIrFbZmKtsyFQ3ZIHoWu5Sc5emPgOXtj6LfuTuAfU1kmw8UlWv+1TeAPbnyBuyFU25pKuKSww0yVrKDqXsfHT5g4EiT3Oa4TfBq8JPNyTzeerj01nTpsPMh8X3TEwM9kxM/2nYG5vOGnT2TPot8xcYuuEChWJ02FmZmaNvztrcImHCuKeeXD1j0hR3R2ce8wOFIjTYI8FubSZY89jihopzRHOeSKtkwLaEZ/lZivO6s6SeXjzdSUOWti6Dv2246Kd13FfrM3UPk2Th2zUS+lSI+JWN2ZqWAhrrq1sk5Tmfvfvq9EnjLU1poI/XECj2w0sC6ZHVRzUBtwcPHAQ/PlavZ2JisGdiYtTX+dpWllc8unIVPwSPjwEisZuTMxhvYWI6JjJq3dond+/6tamxgWjVhTk5NmZmnq5ugWKRJddDt+DGqTnpB4jqPOmpo7E4Tc5nUYTXUX7zmAfvjbkOkAPq2rp00pChuyQ4BGTSG/hqQzqpP0PqT9GPdafpp9xxgR4dgPymHCKtJOomorpwZN8vt82fwef2fd09g0R+XHyvrzsIRb/+tJPxnomJwZ6J6T9Oe9LV0QmDeh7zlJRiP3trNNKbIDO/8JZbf/h2R1N9g0at5O1wM8+cvvO2W53t7TAcD76OHjZgz0/baTSvbkS+XaEP1gFyjuV62Dfo7+eh3pilx/kZTc1Jbe0pbVWauuIoLlX5EUXpIXnJQUXJAcMlL97P3TioLDuMS1FxRF5xrKfmJFoBiKqeqJvT9v208MaZVlzzf6BQyKf0DR58H733PuM9ExODPRPTfyB874W7Efg02u++/iYsZBTFvFBkwLy3l8eTa544fTxNLZNpFPLW5iZ8T3lp2fwbbrS1tLI0NeNn6jauWabsqEE1XX2+UF5La/P9MvN6wGcRSTYXuGeA66T6uLryiKrskKr4gLI4VVGUIi9M7inY+6cuKb1SpEWpXUX7emqOEwW6+er37/46JnQIXpunsytv+EMHAoXUoe/lF1/pv1uP1fKZmBjsmZiuP8z306kTJwFv3eIZsb+7swuS9t7uHmtWP553LgcHge72tvOShq621rbzF1ISk0YOG45zAIbf8LC46NCsk/tp3r67UlaHfrre5Lyu+Y5W3LkgHnfWnVZXn1CVH0O83lO0T8ajPW+PPD9RUZCkLNzLf/yzF75LxX2UFia25id1VRwhiipVa/nTTyyyxJCeuckAf79ea15f4bObnuk11WeUZ2JisGdiun6k0Rovg+dvy2U969c9ZWxyB4qjC2/1o4/l5+Xie9paLzRK6oH50sICdOY/cM+9iObxAD6m37h2BVGgXt7YI8lW6lvqdM32tVwxnobyyOGf1lQeU5YeROzO0T3JQPe/fuF51MUpyvxkdVEyPlUVJePJuwqStJJTRF7xy9db7c3QbSAYGBBocAHCoODmpzei5wBvRP8zEMM/ExODPRPTvzm07/e/5NCBgzDJEXl7gfRBfmJE6iD9zKnTTtDGdU17W0tdbTUwn5+T/eX2z59cvSZk+AhgHua1wHyQ2OdA0k9EfZ50VUhr09W62vxZrjDPRfaNOQjlkatHHN9TfECWn4QIngvBE/lLWbDHcPsvgp/yvjAVwb2Se35NAX1OaeFuWcV+Ii87d2K3r4s1XvNAPz8M4gf56Mz2t2x+9hJcZ7BnYmKwZ2L61xOfD2Q1WqSy+Zw2mu2R4jZB3t7LY9vHH6l6ZEqZtKqstLO1pa6q+ssvtq9cvgLr7GA7D2d7Fwd7UHPO1HFdF8pAemVjnpIbnDNU6DV1mbQqD/bXnEIoT2vwXJb+yqjmL9BadbWwV3FhPXcbN1L4jyjnd5YkE1lRVc5+fw8bdO0N8A/oXcbj6/PGK68ytDMxMdgzMV1fmOfC1vbWtgU33sTXsJHcdrJDnlswY/rUstJiBPS1lRVN9XUI6A+kpD6+ctXtty5csWxldHiEo62dvbUVhuvgXoc5NzTBddecgRkO32bPj8Vz5flsUpuORvqe/BSk6/uE8kWJ8sIkRZEB0il81t3A+6sL6w2Y1z0nGv0KUrknp8/fU7y3ozCJdBfW5h4Uulhb6OJ7Eb+nB+/A9s+2GQocTExMDPZMTP8SqF8uD819obK0LCosnJ9DQ9uapakJ6tnPP/csUSllnW0lBfnAfG15+Xtvvnn7glsQ0D+78enpk6fYWVkjyQ9Svv/mCzR1310h52flkbRvyNLl7WlAn4HaPNrukLSnqfWi5H4IN8AeX+LjeO5KNMJ/ytXxHs/ce09+sqoo1RDoo1Ggu3AvkRblHd/lZCmAMUCgKEA/kkfj+6Q9icxSl4mJwZ6J6TqBfXlxybABg3jOIaGNhLyHi/O+1GSk9SW1VVVlxbLODkzZrVq2FKH/0kcWPbNhIzryPFxcrcxM8eBfvv2MqFvVLUU9XN6ec8jRjdFzzfZnMPguzeMK8EV8VZ4HcErf4JvDsxHpDbAHlXFdXRofZwjdwQK5hILeQwO9nQ/eJ3YVJxN5+aFd260FAhgDGGDP8V5YkJfP/uUwMTHYMzH9W5FvSFA3SRqHDhyk874V+6FIH+Av5lvuS4oL66urMF/3286f77zt9nvuuHPl8lWPP/rE2ifXhY4MMeO2zO36/guialU3FSnqsnhLHHje6afnM7VVJzDszgf0Fyfkea6ri5L4ZP41acLvk7rvnw/Q3YNeAV0fQEESQn9p2QHSU/bRa2vBe6GbC++fzzXn+2KYUNrdyZkFMTExMdgzMf1L43stSYgfx0/Sg/Tg9+iQUWi2V6sURXnnUKTvaLmw7eNPENA/cv/DIP2yJcs3bXzmxnk3WHDusxzpW0B6pY70WXzXPR2uk2TS1H1eMk2YX6bubuiTN8D+4lj/r8H+Evg3bvfjbyCZL68+SnrKl99/A+bv4fav39dHixrz5s7Ggj/CDHaYmBjsmZj+NbA3JpaWPLbqUd4BFx15IH1k6GjQHY33lPS1tfDFe/ett2+aO2/pw0seXUZJ/9SaJ9GE7+XmCtJv//BtbK5TNReA9Gi21y2q4e3wsJq27DBtxOP67bke+P7GOFz5vE/wrXtA0bWO8i/9bLofjR8qL0htPZekbszQdJROig3HrwYHIUM+Hx2Lr6E5/zJ5ESYmJgZ7JqZ/NPVPHj8Bp1hcXJ3eBLxvrKvlSS+prelqadn6xpsg/fLFlPQrl6xAZL9p49Njo2OAw7WrFhN1u/p8MazxDKTXueVg/XzpIZq6zzfU3VMuj9uUS7D5GsKee7aLh/e4fANNOdDXWXIQ9vty2PQqa9vqi71d7KxMTAzDePwg4rmcXP5N0zLSMzEx2DMx/UtQT6+4mDEgPebpbSws0VSffuYUzOMK8s9VV1V0drR9/smnN99407IlS1csW75i8fJVS1c+9+zzC26+hVrhRo4k8maskKd1+vosfus8hT31xTsLT3u046m4lnujUn0KN+bee0+/Xjyj3vu//ULNXl3C2fEWpKLWQPsMmjI1jRloMITr3/EDv1pxzXpBIhFfuQfsMWTId+Yz0jMxMdgzMf3To3kD7H/75Vd+U63Qyxv8/ujD99GGVlxUUFtThRtoxb//3vueevzJTes3bFy7btO6pzdvfPb2+bdZm5tZmwhKstOIUiLDlB1IX6vP3tP2+wwY5iBWVvUO16Vcsl2OQz58dZLoVcCN3l0jl9w/3qiP10lqTmC9nkqSqZBkKRuzta2FpLOSaFrfe2MLeg9Fnp5cW75uMx56F9gkHhMTgz0T079HGu2UhIlgGJa7I4GP/jvcpZDLiEatkHbv+nlnQnwc0vUJY+OnJUyaP/eGW266efzYOJTq0b+2ZcMqbLGTN+TSFXZ1nOk9F9kjew/PHFn+HkXhnsub21DK8lvpsJEWj1dVHVdUpvVUHO4qSsWdyn51/av1zrtCOYB/efD20SKmb8qCMYAGjFdKiLKpp7mkteqcsqWOqLs2PfUYmvPFXl5c2R7NenRHQHdnF/u3w8TEYM/E9O8I7jE+zvflOVjZDAoM6mxtA+yPHD4IW/jpkyfBEQ8D9C52Dk42dq429riBvfUw1MOauNDhQbLmEtJdxbvh0vZ7XbWe9t4je89Ttl+YbviUrropTJaXHlBXp9HkeWO2pimHtOSTzhLSkqusTOums+8pBje9vwP2uJO68ZccRB5CQfP2DaS77rsv3nnwzhsnRIdEjRiE6+G7bln/xAqxh5vIzZ032OE/vvn6G+yfEBMTgz0T0z8Y80a3tr7xOg8wW3PzebNm4tMZU6a6OTkjyqe76l3dMX6GDD+W3fm6ezrb2ns4u2P7O7L9b7y4CR34Ut4ar16fwMf+utpTNFg3GqbXrabVm+GoONIrCvdRzDdmKpuyVOfziLKeqJu1XdXtVdlyST7pqcE+OkXF4e6CXTQfQJ9BV+n/i0l7ldEwHiL7HmzEqTpGl/Qo6htKzoyPoZ4BuKzNTewsLGClhw5ES1PBILFQvx2HTt6jXy946DCtWsOdmdSGd5Vl9pmYGOyZmP5hYb2WYI3N2OgoPjUNQ3hvdzdzDnVwxEOzHi4PJxdLAazxTLCv1tHaFvP3fGkfs/X3LbyJyBqUzeco5jnzHJCbNKTLClOv7GMP0qOcj0dqJFlyLL5D2lx9/ui+HzetXT53WnzYUL/IEYG3zpv42Xubtc05pPEMnyRAXZ83uP2LvO8De6y3R70A1fru8va6vEEiN3MTgdDXG1l6vCf4TcVCkW7Jvbc3YI8GPYzhAfa4gX7GH7//gXsvNQz2TEwM9kxM/zjM86THNB237sWXX/piGC0D4309vcxMBXDQ8/FwnztzxprHHv3kg/f37t6FeTxseceBwNPZ2c3esjAdfnM1Gkm2ftYOI/V00O4KtjkgvabiKBIAcnjqdZahA+7E4T3z50yxNhNYmtCl8raWFrjMOUu+6XEhF0oQ/acj/qZ4zk/u65P/V5P5aMWX4gDRkI7GewwQ4oeC8Yjp8UpsTKhDPj30+IoCfPm9OFh9K+IM9WjVA/fMnj6D4Z2JicGeiemfIo3GyORVS1QK5d0L76DhKcctDl3UJw6Y93JzRxxvYWI6c8a0d7a+debEcVjrYAUOLqy1xco7uOfCLd/d0RkzadvefYmom5S6XXaZ6uoTF5NeP1xHi/fy/L0w2MEjZejmUzQQRfMzax+14HIJSCrgp+OoIfQR4RILkULwRg/gzVNiSHO2quxAr+FdwZ5rBvvCJFnxPrQIaNvKRg8JwG/kaCEYHxm8cO7EO+ZMnBIz2sfRGncC/AFe3ihnBHoLDe8YP4ZXV1PL/nUxMTHYMzH90+J62n4/a9p0nvSgF28Ph7I9ctc85m9fMD8lcQ9s8IH27vaW5oZa8B5XfV1NWUnpqbTjEaNDbS1sEAc/ufJBomhUNeTQBH7t6Z6i/fJe8xxdS52uYM813suLD2C8DXN6SN3L26qmj4/Ck7g4OKIJgM+Wo0Dg4eTkbGftZGPj7ujoYmfnbCbITv2KNJ9FN1+/Fr9r0I1flIg0PmnPr0pPchQI7r9lenrKN9LKk0SSgd9IVnUq59D3H7++Ycb4cCDf1pS66fExPX88wnFk69tvGmr2TExMDPZMTP+QGF/70H3388QC6flQFQxzd3YCd8dERiBXjyBeLe+BcV7b+WYwHjtt9yfvxWT5C889v2rFylXLlgP2znZOiMgX3jidSOvJhTwU4HlPXOVl0uw4BKCWr6k9RZvelZJ2SdHIgUIE7vRliNEs4G1rYQqg2pkKAt3tRwZ4hQT6BHo6Y+DN01pQfzaJNJxCf1+fHbXXZMK+KBHPSarSqk7sTP3mLdJeRNpzNVWHkUjAhRs4ZGAPnqL53M/b30YzAV6wrzvtWORqHzid+EyaOIGtxmFiYrBnYvpfR/J68xy+VP/Lzp+5QTt+kxut0w8Qi61N6Xbap55cLe1oJ2pVXVVlZysCesmRAwff3frOoytX3bnwjlvm33rXHXc/9MDDWHM3Pn6Cva0DfGSnjYtUtpSRljxNHd1oh5hb1Wc/fYoR7PdiuS0sa0hPtaK9Ojx4oCW1nRcP9AvAFAAwHxUS+OyaB/d+907+sZ21GUl1mXsLj+7c+cmLKd+8rq1KozN4fXv7/2xTnuoyS+5pj17uHg2W3TWfVZQd7IZjLv1ZyfySe3lxaheqD5WHibwUTQaL7pyLl42UA1IR/HuI4L6hrp79M2NiYrBnYvqn8F4u64HpvQH2iE3RgW9Jx8zMfvh+B/xxmxvqz0saENDv25v83KZn7rh9ITxxH7z/Iay9Wb50BX+te2r9pITJDnaOOCIkxIxSXSgmbXk9ZQepDc5FnvOGaj3CenXNSW1bEUx4FsydjLMFMI+wHpgXu9t9+tYzXViRJysjHXmkKZ3UnaCX5DTpPEcuZEgLLr0+50/AviCFW2B/5f58WsLXH1Z6Pf4Q/SuLkzrzd5PmdCKv3rJuGd4xb1fXQCH/Ngq//+Zb1qbHxMRgz8T0z4C9RvvFts95/xw+ew/cWpmZO9hYnzh6BF+GDX5He2tOVvaW51+4dcFtC2+7A2hfsWwlx/hl3MXDfu3UyVOcbCnsZ0+KJe3lpJHjcRGFscoojDa05sFKT1Z6QNkA15rmz957hW96x+gaqDkhYnBDIeLmck3Dyc6ivTLY7JQk9xTv5S8Zdxl8df6GrfaXBf/F34ugX1l7jCjKNqy6F6+ct8rH27j4gQcAe+aTz8TEYM/E9A+QRgvXW76THLCHOS523jjY2J5KO4ZGPJ70ibv3wAYfGfuli5etWLFq6dLlPOyx/8YA+w3rENlPBOyRxr9pxgQYyGtqjl9qpY0ekwXUuEZeeYRIK1tr8nzdHJC3H+APa17BnElj1BfySUcuMC9FAqCIc9zTX3J42RYnKYwa6648vn8NYY/43mDRz/9QJAZwT1fhLq3kOOkomhofgpwEkvngfVhwMB/ZG1dMCFuTw8TEYM/E9P8vLLHlw3raneflC2s84PbnnT+C9DUV5bLOrq+//OrmG+ffe+/9q1Y8CsbrY3rdpaf+yg1PrYU3PmCPBr27FswknRWwvO31wOeDey5trivhF+6h8XoV9uU0vPH8evzQwYGD8L1jQwfRZTMtmZ20dy+Z89dL4XPplw7l//K6279kuKu/UMJHcSHr8I/2ZgJPVxfemQBDChfvxWGwZ2JisGdi+v8O65/ZsFHsoxus53beCJYtegR1+trKiq621m+//OqmG2585KFFCOiNK/QGzPN3Yo39ujVPxkZFA/bcJvv7iKwcvjQ87HWRNxcH0wvxcT4lNBLgaslZ0l41PioU+QCY1Xg7WdflHybt50B6ZTE/U5fCFeapGT5fETAUBf6fYP9Hnr+AHkSkpamko+C+W2fhHcC8ImD/8087+5XtGemZmBjsmZj+B7CfPCGBs4KhHfiezq6OtnanT52Qdrej8T5p12/zedIvW8lBvbdCr4e97h7Afs0TT0aOjqBpfIHg/VfXEmlxt56UQL6hwQ3WtnxkD5Z3FSSTzsKC9BQPO1t3O3t844/bXiey4q7iZOOFtv124l11Kv4v4dzokSr9+l0D6fnEg7RwN+nK+2372zYCgZ+PJ45QyHbwsFdrNYz0TEwM9kxM/xvVVtdwBu90OhwXzHPuXni7vEfa2nI+LzvrwXvvu//eB5C91wO+F/bGDXq4/ejKx8D74YOHwEEPqPt1+2von5cC8DxHe1Hai2RKx6JUIi3Zs+N9W4EApL9t9jjSUaisPCItTLx4G97vFeb/P2BPTy3FSXpHoJS+Px2/0R5Sf7L+3KFgf08XGyu8sbfNX8Cn8bX9zAqZmJgY7JmY/kbpt7LwNvipySl8wR6RPS7Y027/7FM6a9fYtGXzc7cvuMVAehrcL1uxfPlKI9Lr71+yfPXjaxY/9DBy1862tmI327yDO7CoRlmcahyaGwXoKXxaHqcB0pG/4/3NMMmxNxFkH/qRtOd0c8a6fefy+6zIg2XeH4v1/8JlhH/jJL+x95/SyARQtz4Hi3HL92sv5N1z8xScXTBWED5yFFFr2CIcJiYGeyam/w3sqTTaTz/8SOyl2+ACP1oY0Z88dhQP2J+6b+Ett65YshQg70X7co73S/tfeMCTq9fcd9fd+HbsrZkQPlxWcUJbefjyo3EU9ojse4pSMDffmJvqaiq4eVIUUvry0n20I+/yQTy3yb7/Qluw/xrj/4qw5wGPtgNt+X5SdQRGAvzaPUT29PjSWbhl7SLM4PGnKOwPJH1hz5L5TEwM9kxM/4/SaNeuXuPvI+bXt2C2fmJcHMxzOlvbXn5hyx233gYH3H6995ck/dKlS9evXbfgxptcHR3QTv/gwrmkJb+nJJXvp+uHeW4jrd7NnhugJ/Wnio/9VHT0R23tiW79Mhs9VlMuZ5tjiKqpV25xMqlNU5fu1z9M1/DPA5seBfq04Bkl/LlePzUeyT+eS9TzVXlV/ya+RD3mk3VjeCX7WjJ/6TyXhGMN7wfMrc9JQf3i+49ftDUR4BQF3h87dPiPn76YmJgY7JmYriqSv0IcqSUgOgd7ulYOBfs7FizAxF3mmfQH7rl32aLFq+gY/Yor8N5QuceQ/fSpM5zsbJG+fmPzE6SrCKY3vGW9Maf5vnrjiBxhMfL2pOkskZzpPLfHgFsewAYwX+yJq9C3xWnLD9am7Tj4xfOk+jg3qte7k55i+6JygDHsjaHem5O/IuwNHXmk7mTGrvdW3zERDoAwzOcnA2muoiXzRNLnLtZmPm4eeFf7+eixsJ6JicGeienvCuFJ7wY2DeF6xvia/Q2z5xi2smJL/cqlS4hGDT7duuCWR5etWrX0sphHPp9eS1fxsId9XlxsvL2lpYOZYO+378MPR1aUxPvRGpvqGLDKhdG9UTsY2VOUYtyId/F36bICuqp5siGs11QeKz3yXexAp6KjO9EoIOOX4OmPAlc221Fxm3h4Vz56AtDzvt9oX78VPmruAKGtPlZ9+jdPC8Ger97G7ystSuL7CbCbp+zUr4OFHm4OTnhv33z1td+HvZYF+ExMDPZMTH81ulcbbWCjsNfomvQI5u6ot6tQxMP+uU1PI7J/acuLcL9fsXg5YH+FsN4Ae/ThP/n4E6NDQlGwHyp0LTvDL6OjgFTk6WPxgiTj1rZe2Bf0j/4NsXh/6HLhuCG9L8unu3F7SvYTyVlZ9VkXDPc/cjuRlXYW9fLYqNJ/aW9dkF5Rso905mHbTVfeXsNYoKpv/b4f7PFddAFuQ7pCkuNpI5gRH0o6i9Gax1sAkeqjrQUHo4IH2JpbAvZPPbH6Yl+dS5OewZ6JicGeienqWW/k0tqHKRpt6IiR2DpDTXWEvoA9DUNVarTWP3Dfg/rZ+v6MX7mkfxr/sVWP48agAYNRsJ8VP7qnNl1TcYgHpFEsntTPelZRoHPE659pL0rUR/Yp/abbVfpYHKRXlBzA1jsQl7Tmke5qwNXNUiCtPqWuOcKXDzjeJ/dbXGs8CoifjqV2XUUH3nl26Yk920jDaX5njyL/smN4eKnSvER58X6k7tGXQKR1cyaPxahh9uHvSVs2fAWQISCVB6XlxyaNGYU1QjhC3b3wDrzPLHvPxMRgz8T0/0f9XvBrtEsefoTvw4edjsjby9RE8MkHH15obFr84KIli5YaT9b1g70x73HhcADjHX9xAAr2S++eizX22ACrj4ZTVPqkem8OXz+G128PPWU/7HQKdmOWvU+4bwR7LnWfrIajPqz3JJkaSZa8MQt7dJ5auQjze798/hKRFqCCQL83P1ldmNo3vtfDXv/jSP2JmlO/OAgEEQM9SHOWquLglZfr4JyBX43UniZNWT1Yy6tu3LRmJX7rJx6cT7pKZGX74Kujrtivrjtzw6RYS1PakD9j2vTfieyZmJgY7JmYrnWIT+v3sm7pLTfdjIDesNYW6+bQoLf9k09qK6vuv+u+5YuW8VC/cjc+/5in1qy95657fT18gL3XNq3A7JlU3wnfu+PuokY53fB9n6MALfCrUezX9+TrSG8U8dMh+/IjBICXZGkbMlX1GSoJYN+w54cvAPu5CaNJa4G8/BCYTcfh8pP7PYOxeQ6Ffd3xhrOJwUI3uPpkH/yWtGT06Ob6Lm3Rg9Cf1CCdkKmpT1ciqaCq2/XdNvzWnraC8rPJ2HUrLd6jKEsljZl33zjd0oTCfuyYWJ2vzsWZFSYmJgZ7JqZrynj+Fq3fN9bVjosda4jp6UpWXx++G/+zDz4ozc+/9457ULC/OIK/JOxxGsAmeyzEc7ZzQkJ757ZXMXuGCTTDVjrdSJt+tu2KvvQp+jr9pfCMfXc0sN5P6s+A9MC8pj6D5z1pL5E2Fg0WOYP3KT99guC+uxDL8fSd/8aw75tIwNSctPx4QtgIfOP2d58lPcWduur+JWBPDQBKD6JwoK3LUDdkUlf/zpK22vzhgd749k2PPkh6yrpL4JCfTFpyl9w134Jbdzs6eKRxGp/BnomJwZ6J6Zpz3lCw131aVVEZEjwSZnmB3j64Ary84ZLLr2gD7D96552SvLx7Ft7dx0un/1T9coO1Dv8YwP7GeTfZWVk7WQqO/PIJackytNZfhad9v7G33p6+wsSevD1qhPVcYK1tOEvq6QXoKhsyiarx5Y0rYWUzc0IEPHdVtUf4tvz+3Xb9qgal+xGF3zFvEqLzWRND1RfOKaoP9RTjoICjSSo3TZdoHNYrK9NIY46mDieMTHVDFhr0iPrCmhUP4Od6OVpUZdO5u67SFNKe+8SSu3nYB4jE1FdH1xBJGPKZmBjsmZj+lpieDtlxeCktLhkxZDB68Wg07+1Nd9r6itCNz+fz4ZX7xisvF57LvecuCvvL7rjjfPSMjwIc7G9A8znMcnP27yBN6YprB3tDPsAY9iA95X1dOmCP2woE97KaxtJ0L0crBNmfvrmBKCu6SvbpiveXhz0eAL/ezasfAq3xjbu/fY/ICzsLftNV7rkVPoYzB2Cvrj5BJNla+gIykV0A74my9tDur6xNqLf/uuV3EXlFRzl2353b+Pgj5hzs8fYij9LafL7vX4TtvWViYrBnYvobVFRQOGRAUKCPV4C3J0gvFoq8vX3d3T0R2QdxsEdk/8yG9UV55+67594lS5bxgF+x7NGVyx/Dx+WYsltOw3rDUpwVy+hsHvC/fu2GG+bOszY1D/b3qjmbSOqPX27U7Spsa3ncUuQX7AFxZYWpNI3flAPQcheifCTVs3oactGm98zjSwBdO3PBgT3fEEUpkuq6sftLlQaoBw6a59tzE7/eamciQCA+ITpEcyFXXXeUi+yTeXsfo4n8vcryQzD/Qd8+ZgtJ7XHs7JFXH+2RZE+JC8dxwdVaUJSeTNozSVfuCxuW45XwuwRxRYeHNUka+5Feq+39yMTExGDPxHS1kb0+XYzs/aDAoN7sPXbcubsHWduM9vQa5OVFmSTEyjvBqmVLy4oKH37woccffQII37Bu4/o169Y+uW7d6rX4FBf22Op32NN9d6jZg/cU9rPmWQpMwwf7SXJgd58GiF4T2BuX+fmInw7dlR0kdaeJJINejYiwM8F+2qanqKnOOeJmI8AvYm8hOJL4OZEWyor36Qb8ChMvjuyRpdfUpF0oSQsb7Gtrbg48f/LaWtJT0s19lXPNox588nz+cJCCNX09mCqsSVNVHdNUHcX3ahvOEFX9bzs+w1kBvL/jximkqwBbet94YY0lt+hW1xXh7R0dHtHe2qYjfd88PuM9ExODPRPTX+O9Vnv+/PlRI0N4zPv6ikQiPz8Pz6Empm/ERH80ZUqQpYVISHv0wMh7br9dLe956fkX7r/7HnjdT0mYODYyOiYiMi4qZtL4CTfPu2HRgw9tfGoDLj7Pzyfz8enNc2+yMbMYIvKszkgkkhN/BvZXWk17sW0tVzunNXVlWSqm+Slxq44qK+nVXX4QHXab19wLytqYm6Bb8MyBH0jruW7j3v6LbHaoOb+0ZNPKe/BddhYWYjerhsLD5EJGd8Eulc6yl7P1zaOT/cj54wkV9WcVtWc7y443ZO8rOpm4/+fti+65zcnWytvdA8eFz9/dDPy//9pm5PbpVnsvLxytOOQL8R6qFMp+fx32T5SJicGeiemvClN2cbFjwXK+HU8s9vd38xgKv7mhQ0rm35w2e1awubmXlxd4b2VmeuuNN+aePTtjylQvN3cXOwcnGxsXOztczrb2TjZ2zvYOqO7HhEffd+e9z6zf9MRjq3nkb3hy/R23LLSzsPJ2sMo6sAMTaHSA7ZrAviCln5c+IntSc4xITmImHlE7Qu3OwpSOgmTE4vioajwplWQkxIbZWVli8m1EoFdL8WFN7dG+L0a3YFdvuJtMWrMyD+7Ajl2RpyeQf9+CafD2V1Qe5N12+ewCHPg7C/dvf3Pt8nvn3TF33I0JEVOjhsUMEQ/ydsapwsZEECQSDRkwEN8+MWowUUm++uhNwF7s7cEPO2CykR9/mDt7jmHs3iifz5DPxMRgz8R01dJoZ0+fwU3W0Ys23rt7DBeYvDpoQOUNs9umTT07dUqsvb2nuwdK+D5e3sMGDUbx3srUEkEq377HmeuJcIOf0/Nxc7O3tHa1d0wYG4+NeUjyY0iPmurc/7DQwwvY2/31m/zoXf+NsVdcI3vly7AoDzE98ufN+amlJ36TVmWQ83mko4B05sO9jjSdQSc8RvyJUvLcuseRVA8UCmmc/dZ60sWPAl7COpem6LFpF5tq2/PvmDMBqEYgjo8/ffaKIZmPyj2dyG86WZb2gz2Xq0crn60pBbyTlYWHvQOOCHhjB4jF+JKjueD43s+Ismr7B6/amNJnwxso8hUK8TZyOwjwEbuA+/fiM9YzMTHYMzFdpbRk6SOLDLY5YPZAT88hApO1gwbUzp3ZnRDfOSXhzMwZoVbW3p5eoBGGxDxd3Zzs7ANFAfguSnovL09nZ2dbW1d7e/Ty8elo3A+uI44fPnDwY8sfpbxftnLVikdHDBkK2r20fgm38i5FD/KUvwJ7nUk+XTDDLaMrO4Ai/X03xDmZCKaOCb3v5qmbH7v/y3eePvTLh5n7v87Y903iN+8tvudmsYcrXm2QyA9UfnXTYq5yf2nY8y5+1Oi+NffMvm/RpofTjI2ZmZeDWUP+EdzZmb9bV9qvPKCqPT12ZBAOEEF+/mJvET+viHcV74mthSnuDx0izj+xmzrtt+d9/clrFPbeHqjWC11ckVPhD0+B3jS+f3bj0/0Az4J7JiYGeyam3w3g+1iy8hvtXn5pC6J5vlrMx+VBpmZP+IlLbpgrnzBOHhdbP2fm+xHhgeaW3iIxDy36eKFvoNgPyMckHjLhvs6OA4Wegb7uNua08Q3p8QDuwQA/dtwhcb3mscexBQcrbsfHT0A8jRS3pilbXrpP1/FekNxvM/1V9OjxeAZxSeOpgiM/uVnQwNrKzNyai7MtuXY8H2cbbydb3IPXgN2yID3CaHz687YX6Qo+2kOQeLlufzy5FAt1ZGVL7p6LZxsSGAhyzxwXRjqK1PXHZfm0Jx9L7Ujbub3fbsVz4n2wtbRysLLCsQC38eChfq5b1i6S1qYjq9GODv+2nO8+fQ0r7f093EYIRRFePgHW1oFCschXjGJKkDey+r7bP/+C472GYZ6JicGeiemPwl5rZH0P/bLzZ36envre+woH+goHmJk/IPLNv3Fex+QJmtgY6aSEY3NmxWMW3MnZW+TPJwAG+vm5OjqAl2Jv99WPLvrthy9yj++vzj9dfu7kkZSfX968LlDkja/yFQFciO/HRsc8vW49YL/g5lusTAWjBng15B0k9Sf1cE0xwP4Ktfnfz+QXIQTfg6G+mswkHzsBflCAXyBvD4CPPu7eHi6uSEuIvISIuXEcQQUdVJ4cNUJel66qPtxzedjzhxL4+5LzZ6tzUj3szRCm49uB8OeeepjIy+g6u6IkPIOs9AC68478+unN08aGDwsIGySaGBm8/N5bt219vqHgEBbuaetPdhQmdRUnkfacn7e/DdiLXF1Gubq/OmvWnf5+/lZWXDVEd/zCKz95LE1ntsN4z8TEYM/E9LvqM8mlJeWlZfzWWsSRuOGLtLON9R22NufmzeqaPF49Nko1LrZq5ox7Pb38LSwRBOOxePAg/0ArExNwdMPq5XVlWUR9Ho1mRFlHpOVEWoVaOFE3t9QWzpk6jnrDIQGAUNXTExn+u26/bfMzz2IXDj5FJnz/zo8RBMuK9xqs71V/gfGGdbegMh2Lv5D9zbvPWHHhNeoLvu6egD1PfXr5iLkSgwUeMD504IWSo+R8RheXir9kS6D+hdE99KjQE3n5Z29tsqbz8b7ujo54kl3fbCXyEvCb8r5gL1oCSWs2uZDbkr+vKQvF/jTShp17hdqGNBj09nDlBllJImD/61fv2JoJPF1dQiyt9s+YeuaGWQlWliJbW7EYpxFdfB/oH9Da2srBXk24pQXsXzITE4M9E9MfhT1GuvnUPfg3wFfobWsba256dt6c7mmTtDGRZGxk95SJe8eOCRaYCH1EaM0DLAf4ByCD7elodyjpF6JpJQpJd2Nud2N2z/lzsuZsWWNmT1OWFIZxigaiap0cHwnWoiWNT+bDMWbj2nVPPf5k+MhRAOSbmx/jd+Fwo+rcnpuCKznZ/e6cPbcdJ5nzsEukzXRtuadSvn3g1hlDhW4OpjSLbinQfQSnUX4I8HRYv+LuHtjqtWZ35ycpLt8ZoOI24fL4x5PDJIe0F90wOcqKJvMHWJsJ7M0FxWd2o8Wvi/bt0528tEmwfB+pPkTqjpGKA/KSZC7uxzSgbsBPXoKEf/aeHe/D28fd1S3G1v5wdGj99ISdUyZGCATe9vY+Yj9aUvH2ojvxZswglPRsCS4TE4M9E9OlAU8r9brbeuH2ww89AJbQmN5HCK4IHezHYD3MjOmtM6apx4D0MbL4sfWzZrwQGIhqPQ36vXyGiP2sTU0drM1Lc06B5T2N52TguryeqJpgS8ddjZrWQllDRnd9JlE2Scpz3B1o0RqwR4Ec2Wl0Aj739ObJ4ych6L/zpqlYF4uyvWGDrX69zVUE97oo3LA6j/K+JJWG1+35tVl7D/78wWdvbXzrhcdf2rj0zc0rP319XfKOd+qyk+lAfN2Ji2L6/hP8aCMw7iSgnXotmZLCg96O5shwDA4agK6F4CDP7roMTN53FeyBYT43DciXFZI5V+AU3MlP6MFij5b/i/cgsv/taxrZe7g4x9o7Hokf05wQWz91wvdR4cNMTLw8PA0VFhREnt64no/stb9/jmNiYrBnYvpvw57/+O3X3xg15fkgr46R+q+ioyWzZ8riY0lMBImOkiZMODdn9j1OzmJbey+RP7xyfRwcEMseSv6ZqNukDeeUTfmge0nm4Zc3rV764MJ1jz3y05fvK1vKsElW0XxOJskmmvOvPbfOnBtv4zLeznfdvnDr62/DhAdtfahnNxccJDVHDUl4fhvNVcAeZOXhqtSBOcmQ3qfIrz/Jjdvlk+4iOoPXXUDd61qzcD8S/nwD/+9NAegOE/DIw5PjaRHBw/8u5aePkCdwc3AaGBCIG/Onx5LOIlVdGk4DfXbzFKWqC/lFunz7Ie35p618Hblff/AiuvGRxo9zdEwbN7YzPqo7OrRm2sRNI4YNMjMdwM3j8Wcy/L0OHdxPLle5Z7BnYmKwZ2Iyhn1jgwQJeT6mFwrFIMpAU7OnBg5snDlDEx8L2OMjiQpDK/6hGTMmmJoFuHt6iP35EbXVyx5A9l7RWKBozCOq8198+DrmyM255nZzLkMeOjzgF+yJUdWrWnJJT1VDeaavm52LvQ3sYtycHG9fMP/R5SsGBvijju5ha35673YUy5HfNvaWv7rKvYGsOr96xNAFvWSlfXPFKd0lKfjYU5KM2gFu0OW2xcn6H5p4sVHuxZV7Fd/2z+XqaSOevOLFDdRmX0ST7T749devuhvNeoqqI1Lu2VSG30jfkcAvxqXfTv32z3361mZ8u4eT01RX96wJcYoxEbLIkLZxMUUzpy93c0WzHnIq+DMF0T+Wz4CggB5ZNx/fM8AzMTHYMzFdKdKfPnkK+MFPcvthQM7KaqGzU+5NNyomxJPoCGX8WEVcDOr5PZMnfDdh/GiBAMPfiOyBZz83p/OVOaSnTlqXjZj+wO4dlhzjvd3dBvn7I1cPovPe7y8+vZJIS2WNGejXW3L/rXynnsjbZ+jAAUIvbwSy+NF2pjCleQk9enTRrSGGvto2PYM9vj4hn8KH+yp9155hME/ODdEZrPHUnNnt78KeLzEYbHH5ZL66/gTpKlk4l9rs4ASD3wvk/vD1tURRLis/iE491UW9h7qfi016gH1n/lvPr6Gwt3eY6+lVOHGcJhqwH90RFdoxLjZr+pSJtjZopAjSOe144zxx7513EH2ehsGeiYnBnuk/DvSLpWvifvvNt3j3ewxz04129vYRJoIzc2Z1TElQx8aQ2GjN2DG4yJiw1mkJb0aEwxufOuKJ/cCkNYvvQ++9tOmcuq2MdNX6OFnAC+++hTdFjBrm4eSCFnfa2C/2g4EuLGA/eWsD6S4G8r/+YAtd7IZ0tK+ft6u7t5sXOv+DxDTv/erTS9GjrreySbmSj94f2313xe/9E0N9V+oTLErU9+enoK2PNJ9VNOVGDsMyQFq8d7S2xi+78+t3EPQjkcC14/W38uVhT0fvugteWLuULrl3sL9FJKyYNF4VNbozOgywl4YFn58Yv2PcWDTr+bm68s16fDJ/548/9cvWGM9SMjEx2DMx/Vek6dN0r7+PaGpr61EDDuJgj8kuhOwjBIIPxkQ3zZyqHRtNxkThAvI1sVFkbFTT1IQNgwcNsbBEWOnt64McfupP2xGp02Z7peSLdzYHuptX558kipY7F8yyMjHzdHbnk/nujq5IA6DJvODMLsS46fu+9nSw5KJ5zogXG3M9XM25lvjk795GNZ13yOfNbo3Xxf49sP995BuT/hLU74U9vWjxviO/Onu/q40AE4mwD7I2N0MZ/sS+7zGM14kKAh20S+73PFwzAdoD855+7GEcDnzsbO/x96+ZMkGNHH5UaGf0aGXo8K6Y8IqZU18YHDTQwkzMexnR4J6a8XV3drF/5ExMDPZMTBqNRtUX/BT2c+bMAy2CPD1pt51foJ+F9Rovj6rZ07uRQObCesCehvXjxmijw+oTxm8aMWKguQUicntnpwAv55rcY0RWo5DkkI6Swz9/WHryJ7i7551MErvZ2pubejjYPfPkoje3PBno48n7wi6/72YEuNK6MyMDPSy5ur4Fx3g4wydEDjm48yNyPhsNdLR2Xpjye+n0v/niDgq6rLt+jT3XSP+7I/4pHbDx6Sk5vPtLaoZvaUGb800FrnYmJRmp4H1HcaKsaI9hM55S196fpChNIS3Zqx68DdkRkbXVkoFBtZPHKSNGdEaOAuylESO7I0Z1xEYUzZx6i6uLn7UtzknosOAbKhc/9DBvhchm7pmYGOyZ/tuxfd9xO0Dh55926nzauYSwp73DWAuLvDkzexLiUaTX0tR9FE3jx8cqYyPlocGSSQkbhw0B7JGfN7W0iA0bIqs/R9qKlQ2ZuEhLrhYV69asb957wZpD+JsvrCfKWqKqTkv+wdGC3jPUz6Mubx8C32/e3fzALVPXLLnz5Y3LP9+6+fieL9SN2Xy1HjNyugU2+rk71f8/6Y1gfwkX3iuO/nNT9YnSUnC94rOtz9DmfCdHfhjP29ki98SvpKewq5SO3etsdw3IxxS+JP2OeZNs0RVhabFmxNCGSePU4SO6I0d2RI3qiqK8l4cORzL/18kTo9H04OKC3nydA5KP8OTxE0ZpG2aux8TEYM/0X5VRAp/I5D0wZUMCH6lgdxEtAIcIBNtiYy/MnI68Pc3hc2E9xutVY6M6w0b2hAU3TE7YOGQwD3szC/OZE6LIhVJyIU8jySKSLGXV8a7iZPSTv7B2MbgePkTYWZ1FGk93FgN7VVvWLkZkDyPYPd+8AQd4cp6bfIOLXEce6SrEMLq68gga3PihO0Pjm64Prij5r2D7rx0XUgzm/EgwqIvQvvf7kwJ4zRgokFcdRB/+lvWLwXsfD1f06yGN4YDtdsnfoHehs6iPES9+cW3VQVlF2qSokY5o7rO03BwWKpkI2Acjsm+LHoWwXhY+sicipCU6vHb65NcHBQWZm6PywuXzaXwfGRrGduQwMTHYMzEZIECd19avX89X65HAF/oHiCytl3u4l8+bI0MHfmwv6VGtB2w6IkIUESEINF8KGTnEzIzC3txycnSIuqmItBaoGtKJJFNRcQTOr4jOn1x6F7j+8O3TSWs+HHIwcgbkny8+EuTthEPAJ2+uJe250vJ9KFHjQgs6HbQrvkSsTDfN6Cxv/8ewNyBcN1Wvv/o+M38s4I8m9Fu6C3Ypa4+QnorF987DGxIoFg3wC0J8j2U8R3dvIxcyDRUBOneHIfv643WZe0cEentYWeJNfntMTEtCvDp0RDvK9jFhIL08fCT+Fq2Ro7vHRhXNmDLX1cXHzg6Y5ybvaYbm4w8/4pP5DPNMTAz2TP9hyvMM0JKG+lreQodPAgudnKIEgvQZ0+CGq+RJHxtNg/u4KEVUWFvESOSQVaEjL0ya8F5UBKzcULO3sLEdPcj/QslZ0lmqkmSShgxF6SEK+/acxx6+DVB/5vF74VeD+XVMrlO7GFnJC6sX4f6tLz4KBxvD3npDVrzXA4fOwiUZz879zddlGvS4NL7utRXSGz1F+5SlB3HJaHtdskJv5WuMfLVh3o+jPprzNY2n4SE4MWo4evQw1hjg549Af3rsSKzcVVfsN4T1eEPQxp+e8pWXsy0QHmph/uW4uI5xY0joCDTotY4JU0QEK8Lo7fboMOXo4NaEsV/HjQmF97Cbu68v9S2GSREGH+Td0j57DJmYGOyZmP57tKcXkH/XHXcG+nhRzHMWOthV/8LI4POzZ8AWV8P13tP2+7gYTUxYZ2gwRr8QUGrCglvHx30VGx1OR++Ezh7eTpYmGQd+JYp6wF5bly4tSqWT4m3ZG1bcRwv2zy3n99Mr6ER7IpGcbi5KcxAInn3sDuyJR21eZy/Ped0YDO/4wfd+m+P/N7DvkxtIpDF96SEiOUsaM9QVRzExf0nYq/SRulJXiUCzHg46Rcf3fGlvKoDfLcBsY24yIWKorPqEpuqwLnVRxG3Pa89J2rHV0kwgsnfAPP2eyRO64qLIqKGgO2CvjBypDA9GiA/e42+B41fhjClP+YmRzPfz8+MaL+i1bs2ThmQ+i++ZmBjsma57pl8qrOe+kJ2di8TvAC8Ke2+spLG3n2NldfaGud0TJ5CYKPTl0Zp9fAx23HWHjugOD8GQN9CCfDICzb0J4ydZWvi5e7j7+WNYbvs7L2HoTtmYra09BdjTCL7z3FvPPQ7Yv//KE9hqw9nS0dk5OoDemvfT+0/v3vYsaTrDmcNfZlvdtcP8xc928T2XSPIXJV58P/rwNTXHEY6jO4E0ZqkqDvMddpcqEKTofwot9iMNoKo6Jq9JnxIdbG1uIRYGIKX/0K0z0c+IJj5+ky/s/Gi7Q2f+trefFpgIfG3tbnVxOTlzqjQ2koweju68lphQ+Oj1RAZ3xYTiU1TuUVhpmRB7aOKECEtLb1dXdObzbXqgvqS+wWjOvrcxk4mJwZ6J6TqHvcEDH1+46YYbkfXlZ+tFIhGccT+PjGyaNVMRPxawp5E9XHTioqURo7rDg6WcfRsP+86xkVkzpt4NRxc7O8AebvaPPXQntt0A9urqE9KCFM7wNWf3l1vtAPuX16Dzjqbr9T3t3YUppCldW32MWyi3958Le8P9yDdwaXka1pccQFivbsjUYCceyha1J7n5wN7JeyM/AF3x3vATcTLQ1GXePCnKXGDiJwoE7L946xnUMqRFOm98nIfgt4OqB7x1BYjsrW0We3vkzZgqjQnThFLYt0aHSqNC6PRdJC2pINGCT3EOq5468ang4EAL84Hevnxwj2T+imXLWUzPxMRgz/SflEbnqpadmcWvTeP3qQitLG/xcKuYPRukV8fGIqzXcK34sGRHB75utpuDPQrGCCvLpk3a6C9GN5+nX4C9lXnIAHFbLdbJVKmqjsu4nbDa2uP12QecBIItax8mXcU62NMUPXWSUZWkoIT/p7bWXoPRuz7ba343pd+/rx6k15YfJNXHtQ1nVSA9RgTrM9TlR/rN3Mv1sNeVJPKTqT0AZvCQn28805x3aFSgp5OdvbOjU5CHfdmZPahroCmPGzJMxfumqthP6jMXTIs1NTfxt7R5OsAPbzVtlQijc/ZI3eMPgT8H4nscv9Cc34XuSPTuxcccnzV9jo01VhOhM1/noSsS19fXc9uOGPKZGOyZmP57wT5gf8PcebDJA+a94FDr7TNKIPhmfHz7tMmGBD6Ji0XBviucJoplgEp4CGAD0tBW8OjRjVMmfDx8KEz0fIV0Jz3S9d998R5RN8krjqOMDbahGA+DnblxQx+aP4HIygF7VXESDz9DRx7w+T+C/dXkBtCRp6g4pqw5Q5pz6ZBh/Rl58YGe/BS+EnGxuZ5KNz6gW2QnqzxMFNXfvPu8DecQjOm7B2+dRlryFGX7Dal+bLLX1h1rztkXOsDX1t4uyMLq/eFDGyaPxzuv5EbvqF1u5GgZvULoXwQeO1EhOAfgdt3USe+MGD7Y3ALtF7ybHj4uWbSYkZ6JicGe6T8K+9zcPJHOgwWN+IFCK+tH3FyK5s6Sjo8jY6L5BL42LrYnMtzAeBpQYtYLQ96RNHuM9WtYsj7Gxkbo4RUgEqNsv2DuVCy7g6lON5e7xoW1dWm/vLv95ZVEckZZnMqjnS6rLUhR/k/sca72YKHgrG1RXF99/407PniRKGuUNSfkBanyvD382eXiFXY65BcnYzBBWXWIdMFIoOTQ7m+G+vvaWVjgHUMr/hublmEZLiJ+3hIYhwZZSSJpzUzbvd3ZSuDm7jnMyvrniFD02+NtR3meOuhFhkrpnyBExv0t6B+FZvWp0w6a+HKmTprh4OBj64A/LhoA+U0HDQ0N1E2vX0WHHQCYGOyZmK573t9/7328Xx6SvQDDcFOzn8fGtM2cqowfoxu3i4tVREd2hIZ0cyDRcYUjPX+PLCq0dOrE+/3EqCtjAM/DwwOh6ukDv8EprzUvhVs/nwhzeCTzNVVHaW2e98Ljt8kVpho+/V854v3ZsB4Bt+RcKloQVj28kChq21GMyO9/JjDaX5eCdjwkMzQ1aaS7SNmUteurt26eEW9rJnC0tYGPHqr1Y0YGFh7fSSSn0JTHFw5QDqCNjV0FWG6LN9PDzXOsg1NafCyG6bsigpG652BP/wp8VYUL8Sn18eeg2ZfwkcgBvD5q1Agzc4T12EYI0gd5e23cuJEjO4iv6aU8gz0Tgz0T0/Wt5sYmfjoL2+0ChZTWt3t5l82arhg3Rr/qhn7kcYLIHlxHQMkZt43it6xKI8MwbX9+ItAycripaYCvyDcgAMH97Ilj0JPfU3NSWsD7vyarS/eruUl6bow++fJbZFKMetevEsl/NY432lnXp2ZflMhPEu797m1A+qbp49TNud2l+3VrbOiqHt2lG5QvSqJr6ySn4IrfWXXqy62bJ40Zzfv/Y+WPuYnA0Vrw4oZFquZsZD5wDNIl/LlnwKgeaS94YsX96Hn0cXCa5+ZWNHmCPCac9khGjuSPXL0BfVSIVB/f83UWtOVnTp9ym7WVl52Du38gqjODvLwCAgJkPQousmewZ2KwZ2L6z+i5Zzfz01no5IJrXrDA5NPYMW20Wh+Bjjy67QbOuBisD6OhJI8THvY9EXBlxy6WsO6IUNqTHxdzeOqkmTZWQgcHTO5hGz1YuOvbD1GZbj1HR+r52J1vT+N4n6o3wku6qCv+TyyZ/fth36dBT0Fhj/6DvK/e3YRfEFt/JAVHyfmszsIUauCvv2TF+zBzqKo6ijEEIiutzz/45uZHo4b7oZvBypQW6cF7XPNnj88/lUh6yrA+oLuw93DDPwkaAFW16QkJ0RbmpgHW1ssDA6umJCCBr2N85Ege+fij9IG9/n4M5mEh4XuDBgzgGifRk4G5SmRuPvnkM0Man8GeicGeiem6lWEES6VSYRcLHbcTCuGEL7Szv9XOLoea46JaHw7Yq+PG4GN36EhD1MjBXpfGl+rBr+TG7qumT3pxQCAmvnz9AlGHhv+rj6v9+cosAK+rcBcHckNYn6QyNKjzVXDsfCtJhHkc9r5Q/HMPuEJ//jUbxtO52xplDriffrE7L38u0bnatZ374aMXsJkGvH/uycVEUYVNP6QujdQcIbDCvZABXwHqHVSXefjXL9YsuXuQiNY1ME8Pg0Ibc/pd0SH+P2x7iXQUkpacbpq0T6IOwcV7qYtw9VF19bFOOpF4Nvfgt3bOtu6ubsjGvzIqpG5KAu29j6ahPFIsyKwY/136XNyaHFggnJwQF29r4+PsQt30fIVon4wOD2NtekwM9kxM/xnea8mvP/8i9vHm+/AxogXbtfdGjGicOY1W68eEIXsP2Pdgvis8xNCRd8kLFWKUitvHjzk2fuwYSwsfJ2ck84M4g51xkcGkrYC0ZLQX0J58eUmyzvVWbyILfKKcr6o5RtvWmjNU1Sdkham0BE4r/Zf1s7s62BtjW9ce2JfuaBs0NBMYN+0bfPE4f1ydha27jZmztaWduWDTmkcKT+yqz9rbmrevPiPxTOpXAPnaFXdOjAm2M6Vod7KxEXn7WHCHg9Ah4k/eWN+DoXxZgbzyMFr2+N+lHRN3NUdJT3FzdmJW6ify6qNYA/jpq09iwl7o4ztGIPh+THTT5HF0yg7D9JH0+CW9wh+Fj+8jR1ZNm/jEwAEDLCz8qVm+mLbp+XidOnVKS3pnMdj/HZgY7JmYrjfGG1bZIry7ed5cwJ73wxe5usVZWubOntGTMA42eWRsJJxxVbGRdLCeIwr3MdQ4vucaxOjYPYa+cBtjeJjB2zx8GPa1BHHOPEEiEfA2JyFc3VKAYBcr26XFe+h6G5TwuQF0gL+rYA9K4Kh8f/TaWmyvf/aJB0jrOXnpAVoCxyGgOOkaVutVffrmjEsGKQb86/bZ4OUZNspz/YOGfANes6riIMbtJkQFIyfv6e6Bmrqno33wAL/woUEjgsSuDjZYVG9GQ3kTT2dna1NTZOztTASzxod+9e6z3ZjWkxXDPg9HnB5u3093wR5Qn0iLVS3nvnpr05ghbseTPtKezyDn8x+eP1Vgae7l4naLteWJieMujB8D2BtPQ1yccekt5EfQHTlYffvT+LgYDPh5eCKZj78LkvmLFy/W9eRr1DroM+QzMdgzMV2P2Cd1VdXczhs44dPsLsa4Hx0wAGE99cDHbP1YTNhHI6znq/WXgz1iekClnWsCV40ejsp9+qyZN9tYo8YM2COa9Pf1QqE6LmxweWYKqtek+Qxc4TBg1lOSSte5Vh0h8vKa7NTpcSFWXNtakK+T+kI+DGe4vTJJ17Y1rz/sdfG6Lm3Q62BfnMytn9fdvriFkC6ja8//edsb+NXsLS09nN0drGxszMzAfuyvA92tTEzMuV/HwVIQHz786ccePPTrZ9rmXHTjq2vTujkrXIp5PHPFYUTw2gt5P3z55uSxw+0FghX3zCaKMmVT+vncg2GBXqaOjhifW+3pXjp1QktsJN97f2XYS/UfFWEj8S15M6ct9nCDwY6HmPbkA/b+Yr/2ji7jNj0GeyYGeyam61Ea7esvv4L/9KOUS+eyvLxHI1GcMKFr6kRU62kffnws9t+gWq+b5+aSxpdL4+tm7sMp9VsnjkscEx0iEHi5uaO7nzrvCkWAorud+avPrq7NO4QOcyItJZ34WEzain7a9ra3gxViX6QBAMj4iBGkowz5fGnvvrtrVrPvl8ZXGk3DczdosgEuQFhkh1WzmK/rLKKpCD67wG/u4fHPm92SlvwNi29zNhX4u9r6Oph725r4OVuN8nOPG+43Jz7ksYfmf/z6uqO7PumsPolF9Whc6KmgCwAp5ksS8cyyygO0tN9RlPLTJzMSotCZj8NB2EAveUOmoukkac/e9+17YL+rr8jPwvr9wQMbJ41vjQ43cF0Hey6lf+k/Cv8XiQ6TTB7/afDQgRZmPmI/TFfSRUc+vl9//S2t3HNpfMZ5JgZ7JqbrIozv+99zrVqD/9DHRcXgv/to2gLsEfYtdHREa548IZ5Eh1Eb/AnjsMe2i7Nl7YoKM4Y915QXavTpKL54rLNnjxiFPrKXQ0cPMzMNcHURI7j3EQ/0C3K0tkbsPsTf/ZG7572+edXHb2587flHb5oRix2vCIXRJ+jiYA/Y/7LjU6KsV9afoatj/zbY935qVLDn2/RI5cHqtG+/fGVVR3kakZcA0vDtlxdjdx967LlO+yIa9NM1tTVp8MrNO/pT9qGd6anfpu3+PGPfjvL0xPP5B2VVp+hppps2KyiqDyGZgQE82n9XlIw9N6ThJJEWaVrO7f/141vnxvMpDVdHB9zYv/NjbMO7gJfRXbB+6d04A8EPJ9jcYk9EaMf4sbxlHp9TMQzdXQ72vOURZu4746POTBo/zoG26eHPzV+33HQzb5bM/t/BxGDPxHSdgl9LivMLMG7Hw14oCgg0M9s6fJhk9nRFXAwZEwkXHdXYGPTlSSN0G1b6Zoz7w97groPbdPfa2Ojy6ZNfHxQE210/Z2fwXiTyC6Jbdryc7bHKlfap8YRD3lvk6TnQL8DDyQlge/3F9UTdrGrK0dadlhfv78vmazOMp9C72qESjyAeznc4VcDmVsZZ/eCr2nIK46mRga6Wgpc3rtz/y7aW0uMI4rGsD/l22mnfcIJUH9JUHgC25dXovT+raTmrbjmrbctUXUhXNp+W16d1Vx/urDzYXrYPa+tgM6CpwBrck6Qli0hLSFthVc7BbVufnz15DBIeuIRengP8hLixfsXdeIC0Yj9S/W3lx0cP87exMPe2t5/l4pybME6GRMtFCRX9HyXUuMKiv2cUd1DDKQ1tegkrBwb6W5jDSsHHV0SdFTx9Lly4oDPYIUYz90xMDPZMTNdHZI//rr/xyqvYhMYtvxFiJn6UmfnhSeO7Jo+ng/Vj6NJ6fueNIWrs2/XdB/YU8xHBfMSJj3QQHM7tYyMrp018PSQ4Ary3saak96E/Dlbtvpxbux+3kE3sLfJDctmbDuU/v/4xormgaS1WNgCo6TCf59fF8r1y1/BS8114RSnYQE9qTmEPL/bZkOo0eP7QZvuC3Wi2bypKs+MOJY4WgpjggAcWTN+ydtEPn2w5vvuz8pO/dBQfUtacIs1ZlN9tOaQjl44SSPPp1Z1Pb3fiU4zVZWJvvbx0H1z0a87sOr77849eXvvgLTMGi9ysTWh1X+TpHSTyG+BP99tOjxlBLuSpJCfaMH3XlZ/41Zt0ra23T4Cl1cpA/5rJCbyxQVd4SD/Y63sp+sMeCRh6SosciWVFaNP7NCoMlZpAb5rICfCi6w2//vIrHvZarZrBnonBnonp34z5Pv8R1/B77vBh4rjx/JpzBPc+NvbzPb3K5syAax61wadXtLS33743S999+bK9camYt9BvjYupnZrwc3T4DGtLDPUJXVwBdy8x+C5GSyC/ejWAizKBvTsXzCHqFlTrFdgd14D18Jk87LlAPPGy22uKkw0d9VxcnnzlIT2+r56uis/boyo/QpqyiSSbNGTRnXW1J1Ul+/g+fLTHIwmfe/RHBPfINzhZWaC+gAuEdrUxHejrEjdq8LxJ0bfNnrD4rnlPPHIrIvLn1jz80vqlL61fguuFpxbheuLB+Tve20Sazmgbzqy6Z54zzHGtTPiUhqutFebf0BSJE88AMR1QHBHo1VFGQ38M4MGPD8OKi26bLjA1wUlopInpB5FhKNjLaS/kqO4/fPFhPWCP1TjYg5c2bdINtra+js4e4gAgH9tvb5m/gMGeicGeiem6gj0X3OsStlUVlSIugY8E+wAf30EW1s+Fhp+fMQ02+LQPP24MWvP01frRvAc+H7hfoUGv16uVqyvrAtDoUMnEccdmT187bGiMpQWmvf1sbYLc3ZDPp51iQhrfY3cOkvlpB3ZjcU5PfRa3GD6LNNB1sXRjXj/A94W9YXyOxzznypd8xYl8Xdc9YE/Dekmmtp6SXltzpis/RVq4j9SeIDXHMAiAiByd8yWn944eLLLkCuoBImTAvdF16OLgiOy6FTdAb8nl4a24j7hs9LetuNvhA9ypc4DkbPgwSnQM6XEbhOkaApAeH3HSwjMM9nNrLD6B9n4M49EF9hcyqk7+JnQwtXF1Ebl5zrCyTp00vmVCnCIi5E/BXtdOERWCyB7LcEunTdrg5+dnbcv15AuD6D8An46ODgZ7JgZ7Jqbrk/9fbPuc79JC+XaAh0e4wGT3tGnSSQkkmvbhw1FHjha8UAp7DNBzG1R7XXKvAHsD8vkbXbTkT3kDH7fayROOJsS9NjjoThfHSFMTdIYHurgA9jht+Lh52JubHD+wi6iaVJIsbUMmx/tMTeUxWkcvurhg3xu790O7rh5/ed89fp5exZnnqMsPE8lZ/DgcLNAf0FWQjG67lvwDreeS0ZGH/jugl7TnyiUZ61bcjWQ+nZW3NKO7YlF3EPljlQBW/hj63fg1sjgN+At9+aQFGhJHBfm2FR9RN2aNDRtmbW7Ge9hx2+V9kb23tzLHmWDepMi2SpA+h/tlUzCOCPfct9cvx4nByz9QaG270sO9aMaU1piIPxvZ67YWRY6URYxojwxpnhT/7egQWCDgjMeVbyjsU5KTDG56DPZMDPZMTNcV7B+6735u8w31w/eztbvdyTlz7hzluDgSFaaJi5bHx2DijjPFCwPgZXqntivD/uL4nk/pA1FwzkdU2jo+tnpqQtaMqd9PiN8UEzXO09PX2QXgEXv5gHlff/omUTdysOcALMnWVqVh+u6PwN64j+/39tzrInvAXlFyAJ0BIL2m5iRCedTpX1v3oJu5YFKIsLssjdSfpDtskM+nnfNlOUd/eWLRwuAgH36Hjb21la+nF78kniLfRyyEh5CvmL/4RgQXe+fBQo/6HETqeZNiQ2Gwg2QGAnpE86gL4Hk87M1e2rAMw4co7eMH8W0Emrrj2JcTPdjP3tzU189/oLnFR8OGYHYOoXnPn4/s9T35IbR3Mj7qVEL8BAd7XxdX2pXpS88lm9avM5joMdgzMdgzMV0/kst6hg0aTLvzhCLQKsDc7NkBgVWzp2OwHkN3ZNyYntiorrCR1JY1shf2V7bLNXzJOL43lI35jxgbg1u7IoZuZM+5YdaKAD9s2PMW+QM8iGI3rV2OyB4j5jrY159F65yicJ/OV+cyaXwU4IFtUnVIW75fXrCbr+5fwYrHsGoPj0E0T2pPE0mOovw4Nclpy37xqYf4bPy7W9YivEYjfQ+3nbarKBU8Rp98Y9Ghz7duuvOGCaMG+diZ0VgfyXk0HCBG93Rw9HJx8XX3RLcjji/ovHOyscOMQWVGIuksmRwbgkfamOiS/AN8nFYvurUqOwXmuMpamkXgx/dpLqGnZPvWTXhm+tdxdYu1toIDMXyI8dYZvPOu4qILcKNCy6ZNuhd/c6whxklPhGyET3x0NOH23eqrPExMDPZMTNeFzpw4qUsm+9LgHtPwO6LCWqZP5vrwI2GcZ9yUB95fGfMXM95wA2l8apgfGYJaAFiFp1WGB5OQwfhYO3X8cwHCQCtLLw72QOCt8yaTnnp456kkXBofsG9IV5QcpGb1hVeq2YPHNSe/x+YYbsmszsH+8r57KQYrXIzb0Sb8phx5+VHgtqfsIOkqe3r1w3wHftHpXTC17SigvIcNDi4MymM3HRbMk5Y8Sf6B/Ts/fP2ZlUvuvuGmqbGRQ/0D3Oy8bM0dTAUww7c1oRdq9g4CQVHajzglwBQPx4P50+NWL77j6w9erMk5QLphHJSO8wT1xudeM1bgYOJO3Zg9IWKwmZlJgNDf38rqEbEvhhpoNj469KpievqH6IigfxGkWCRTJj43Mngw3ccjRKckb7BTWVmp0RIGeyYGeyam60ofvfcuV1emJVsfD/cxNjYZ0ybLJ45DAp/ERRmb4V/Sk/WP9OgZgx/xqAKDebx/PjoAwke2RY+qnTzuvWGDB1qao46ANLizpcXIAK+WqmzSVaHgyvYc7DOAYboRxyiNr7qI9ORC1qalN3391pNEVtjF76rhWH4Fyx2cHvA80rxEbSV69NJRvMdPkeXvUddhD03pE0vvpOtqBnl11GTA36aD20THu+fSlXeFyRil09Yep2vuOvNJS6667syFvP3nDn5/Ys8X+3/8aOe2V796/7nvPtqy4/3Nv376/IWcPerKI51FBzpLDmsaM7Ablw7moUZQvA9PhddP7Xg511546uF4sePd5xD6e/jR6URMym2LCm9OQGteMD/g8KcD+gj6p8QaYnwvevJbE+K/iRsTbiIQe3m5+/nTDkEvz507d+rsctkqPCYGeyam60RasujBB9BHRlvJfHw8bW3n+/pUzJiijY+hsB83Bml2Qx++gdwGc9bLRpB8hd6oTU8H+whaDpCHj0C9GaRH4RlP1RYT1jQxbldM+EiUpbEvx5eGmIiDk3/4jCglPajWI5lfl46YW40NePlJxnX6frCn6feu/K3PLHE2EbRXnMBe+W7O8vZ3HPQK9nBle7pyV1V2QFmcqsyn6f3ugl+J5DiRVtwwOQrEjRwmpn7+8nJVTVo31z3HHyDkhXt6uHW0PSVw+E+mhjnYVteYTlP9LTmkHQ64/JVHWrOVpfvxK8CVD6tvFWWpeLysaA/nvMu/GJppwNw/hgzV9cdlDRlxIwKxGtgrwN/HxvYuJ4ec2dPa4iKRC7lyz8SVqvU4JXCw14QFY3PBsakT59nZolsCsOd98p/esFEHeQZ7JgZ7JqZ/L931/yHXTdhHho7mR7+CPD1Fltb/x957wDdd5//j6W7Tkb1Hk6Z7pk2TdO+9WxBRGV2AIIjsKSgiqOzhOj3Pu3PfuUAUUFFAmSrKHjJEQJBZKFDoyP/5/ryTNBTw5+l9/48H3Of1+FwvDSVtEsvz/Xq9nuORyKiTpUW2NDMUd+DhMwP8OBeFfdwNkal/dGfsbDRpcM6V9OQf8rMrhHwFL4hQ29RE3jZp5GDY57Wd/KGDEvJPfge7G2Tf/QZsAzJtJzb9tG0VBuY1OYm2S4evH17bRjt7GnJzG+Cnf4odAVAWH52nB7I1P/vdyb1rVQJi7isN9H554Yz209uxSu86vrF136eX95KoOuqTT5cFZMBAo+j3fgw3XFjqtu7/hF64k+b52q31GQqeMyqXcg7ot0akPVgCzz41AYcMeA9goR7m4fZKXNSJ/CwMQvCitf5Bah4jo7ASt2Oitrcm7S4pGiGTquwCPEWoXF5eWsbS8dliwZ4ttu4GsIeQuovZyO7fu48iPZrpMJkM69sFqSkXiwps1mQQ9K5mWCkP/78L9i1MQ4+HtSO9KQ5zafjnjzLAwNWb5qx7u7vlWI3t5w+DnX6d0PS+Y0RxWNt/7gTjmy/g+jXs2s/svLfY6s/hvPDMo2jEsVynfbMTSl3x1XX9j4G/a1A96bP3rsISHeP05a+/ALBHk41TSH5aDCbzp/ats13YY2slvni2o1+hoe/88XN45l/euxrieAe6r0KaH34A5lP44a8k4/p9ZOvPoP4NcbrOEwb8dG2nvz25Z71a6Mv19gpR61R+fr3FQijuWimFwhL/ezYptzQ4co4EoLbHcOVIYe6cMANc+UCNDFGodVJZiDb4/PnzNBSHLbZYsGeLrbsB+Jd/uIxqrImdjkic5O7+QUlxW142Ed1lpgFaIK9vY8AelDrXLv+Pgb2rVIy0p+a4c1bCyW9Pij6bk/Y3qyWJ46aXyIhhrlgS6Mn5ft0K2/UTAPsOCvYnt7X/+IXdWseVo+fo14m7Ldb2F3e+98ps9MQgx32/9t9Yil9yDPPbb8D4VbcT4113EejjANF26HPblR/HP3QfkB5mAGDR40Z8qHJ4fd1fFz+2adUbJ374rO3o1q6TP4CsZ7u0j2TeXNzZfV1gjPTp7Ut7yO3WPdgFXNzRfbZwAftVrQc/t109OKapN44Xap1BJ1EkcTj/SLXA4/ZqUixeNGJtZIn/A2x8YmNssS/7ccDCjV/zst8wGSM9vaH5J3J/hRLq/80bNzkFeGyxxYI9W2zdsSjfZfdFXTx/AeXhE2eVwMCKgICN1VXt2Zk2i6k93YIx7+WkWGjiGbBPpJz87oy1Pwf2ZEhgjjubkojNfQdjnr+tvLg/jwehP2h6IJ8Drec+NtbWfhIcvfbj3xJvu1++A2H+ZrB3dcsnabM/fQkOf0ZSOCA5KUp57dR2mNS27l5G1+E9vv52OffXnWN/xNqiuT+5qevcrspcMx4TjrZgEQb5eXsx1ngirpspQlWaHt+vKnf04D6zpgx9ZvqIRTNHPff0+JcXTMX1wpzJS2aNW/jE6LnTH549ddisKUMG98n+5B+zbae2uhj32v2CyOLgyt7PP3yJy+HIhUKlVq/x8RutVOwrLwW5AS+UHa3NcX8A7GkmHnE3MhsZ4wQjDI4+T0+1+vkTnwDi5UeCcd5+/Q22rWeLBXu22LobenpKvxr24FCEoNhjbf24g2SyXZWV7bDTSTUD7M9Z4q+aY2G4RsG+tQfY/9mFvf3RWhmnHUjysJB+PjrC4EE4+djc+3pwUo0R184exCQf4N1BOflM1i3xtO+5sLdT9kjaLKxvLu1Z9vpSX8a/dnC/Glvbj9ePrgF9z0HHY5brt3LWa3fx4cFDUfEeblzYvQJ0Pxw7LNFKADxMcqh5DnEiwhDCx8ffw43a4nq72OU60/w8GAm+B3ObWO9xONvXvAGwt6/wHd8OJxLbqc1XTmyLMxDP4BCNXi4UJ3p4fJ6TcSY7FdiM94Iy6l3FDv+RvN6hiSDZd8D+q2nJP+RllQkFCh6feTqE9j9j2nSms2d/T9hiwZ4ttu7oYjay+Ne8IC/fwPz7TgTuXr7T9fqfysuQZmtLMV1PM58zxRIvHRewd3rj/Hmwd+I9vQjbP92yqzi/LChIFRjItJhyAOQn779maz8Bdx0094Smd+JbJNYQTn5PqHbx0QNIH/zCdmHvwF75FHpfmDcJUfTg0zn5cbdT3tvBfjd5NKqvw6afivpIz33+e/jZFaYn4GH9PDxIK6zUUrM82OThNkn1USiZ/EBigksNcRUyOc4E8CKWCgWezM+z5r1XbC37LtktfVbRPB58u8sHPwUvb8Kw+/H4Gk0wiQXy8h4dEXq0OB/Y3GKOvWiJ6zEg+SN2Og5bJJKAZzEeLspt0KjVXC4JJiDWuap+ffqwnT1bLNizxdad39gzXVtra6tBH4IQFAr2SKL7S2zMmZIiAvap5rYU0wXqjOvc0/9pdHed/7tm6JGThDWxLTH6TH7WKykWCMpDxRKNRoNWeMiAe23XT4GTD+vcjmPfIKWm/QiZ5N+4el/Vg5ZPOG5nvz2170u10I+G06xb8TpxxQEFb6+D+v5bHrqrXMz1VjqB/9LOFbYz33Wd3TF3+vBoLZ/m3Ph5uokCeejvMQnHpZIqcSkkUmTkiHh8MOx83O0BOSIfTklG7OZV/4Ainzl5EEl9B0MbxOOTw8TlvWvefREPK+YL5BpdsEiU4+m5PC8LhIZrjAASVPzLtCn/zSCi21+Jl+3vqd3KEDsa5BSMCwsN8fbC2YIBe0VmstnG8vPYYsGeLbbujtq3bx94eTr4uaLpVKvDPT0+sJguFuYi/AbSOybENqlbr/V/CfYXHDYvLSmm3eUloxRyvZcnBHg8f65KHHTyx+9sV35C1q2zuYe1rQu1rZvQ7jwBADsJix7St3/9xZcZoUsDPY/t/Nx2ccfFXSvsm/JbB+Ssuokkv4oJ0FtpF+PtJMZ2YNidPbD+tSWPD+tfWZgaFybnS/29wCgkfnkeHD93Dm6LuB46aaA5Rl+VZ3mk8Z6/PDP5m9Wv2U5/T8YDjCUAHpAgPfNdCNKf2nLp529iggUAe51WDy0cSPgjtZqdZcV4WcBhdAX7P3b8ogaIdIZP1fbXTfFIy33GmIBEHLDxQd2AAC9MrTl/9hwL9myxYM8WW3dgN99TON351fq1xDhPjgQUtVipjPL2/DI77Vp+Nhx1ulJN1KPtsiPj7v/ouuz0zLcSejmY+ehiv8jLMvv4KESiEEZwP3/WFFsH4m6/tQvuf/kecbQwvKPZ9hT12+1M++7UO+D9lQOf264dfurRh+gq3RylunIMRjffXdy1nBjV3cjnd+Kuq91e+81yfEYah1MEImqI+d2FHy4fWf/jhve++fjvq95c8v4rz9ALtzcu++vuL9/+dedn149vsZ3fbmvdjbBa7Bfw1yG9ww9ANYTEzwfeebDiuXrw4UbCwA9jgvIA9mpfnydjog+UFZ9Pjuswkc7+Qop91kL7cme/zlw3dPA33UNf50SaPci81Il4EBywQPJ/wWKOc3PHjAe7CIzxgfd7du1mwZ4tFuzZYuuOB3tI7d9+6w3sxYH3aOjEEpnVn7utMK8jO5W45KYktSTGUte8y/9XMN8t3iNzaYeBLsz1jhbnjYqJ0vj6GBRKDMmjDaorv/5ou3jg+gm09d/bTmyzHfvm6t7PSFQdYJs29Aze90i9g88dcmVsrfub7qukdLk8S2THr9sZvF/RbaC7tydf73Zg7wr51Dbnyv4VnUfWkCi8X7+BQZ7t3HbbBXICsJ3dBq08OPy2o+vbD30GpzyI7Kniv4fWnxlCEGO+5W8swQ+JDDo9iZYnZvXYo/eXirdWlZ1FHFFSNJMe1N3Zu+D9fwD2TtNcJ9gjfvCtjDQrInfFEpwwsLnHD/DF52s62UE+WyzYs8XWHYbzt+jsbQufeQYLWjWTfyMOCioTin4sKUJbD7CHS66rJf5/tBV2wgyF8Ntx+ijYOxNxwDM/n2bCmLoLzm7ZqW/nZyd7uoeIxSC/YQj/l4WzbB2nGJredzTx9tqh9Vd32jHeVT3vvEFxmjDzT262nd9VlhVP+/vyPJPtwj402RDfdyfluOj1e95zo44f8/yOvSt7YD8eh3HNW+W4yJSecdazX07WfTvV/jkWBNcI7+8jW8v2w999JuO6g9KPYHs9cn4V4MqpoHo3eHmBoHe4rOhymomaDVOYpyI612E+gNxpoHv5NopHx+mtG+wRNwz13aq8rEJfH7VQQB3yQ+SKf/79HyzUs8WCPVts3ZFg78R8env6+AnwzgMrC5t7mZ/f/UrlkZJCWwZxxacm6n+oZb812N+us6dgD/YZNH5nkIaXmmhLiAQtf01VWYVYpA4IAOZBg2eODSNueuf2g6bHTPK3QYbXtnt1twGOw/KWkOftjvd2IL+0aznIepePf2OK0lFl/D3l2bbzu5nY+I97BOT0tOe7KUKXrgyA9+2uOj1qf7vXie4O91xXtz76c7qo/DG9b9lJGP5tJ7clhqpwEAnVahmxO9mtAO+xXkE8bpSb29xQ/cGSvAuZKXDFwb6DcvKdvAcH5Lu+8v8PsHf6GHYaYy5lWDYU5/YO9FcGBYk0Wgr28+fOY8GeLRbs2WLrDkV8G5Nb2kljzR4Z8iCgBZws0tz7+g0KDj5aVozwG8TatjJITzr72zrldUPLzWSxm+9xAj9V8Tntcuk99s29NQn8AFt8FDr75dWVqYFcHZ+vVhGDPyD06y8twua+7WciuO84QQx26OaeSue7DW5vYNE79Ot7PkH3DINbg9LfkxG7l2Ymtv2yA/P2lj0f07YbQN6+dzUuZ6LdzUZ7t5Tmu+oC8Ne7E/kozR6ZvPs+xtXtz48/2vcxjHrIT3VxB2J88cPgp9IzQKuTS/VSMTzqQZykfkc6oTDS3W1iROiPJQUAZmow7Gpt5Lzt1DHe1kGPYVz2BPs087aSgnohXxkQINbqsLk3yBSPT3+MBXu2WLBni607G+w7yP911d/bl+FkEbA3IAInRHesrKQzMwWxtv8HYJ/Qoxl17fvtOeuWxLOWpJbs9N3lRQ+FhoT6+oTIZZCnQxIGh9qE8ODr547YLh667hzmMwY7NybcO4n0K11x1x5p07rr8Per5Dxf2t+bojS/HvgKdnVQwTHcePvfonF2twT730B9p0DfSRLsnjG45PTQC6P7a0fWQgr4y54vs00R+GGQMow+HoMWtVwRxBMIBCI9Q4wH2ON+lUQW6eb+uEa1r6wI+/uW5HhcziWL66v92wQLgD0I+ZddEgowxm9NRRxOwVCJSMn1B9gTgp5MOmrkIyzYs8WCPVts3XE439kD7PFpTXEJ4AQEbCBKmIfn1PCwX0qLMMO/nprcaortnvr+1ub+1kSwm4HfNUqHyb8hYEMjbi8zoSyky0+3HCvOW11cUK+QhXj5gCmmZbxoCPyoyJR7waxHbZ2nEXpLOvvj35Hm/qeviOaeCbBx9NOrEVZL4HbXSkCvww4PQvmVjBPtnl0blvN9SXOPK0TB37rmXZDjrv30BfHP37eyh2r/N+JxqfGOHcv3fHQ7lx5XgR++DIG20Prbzn0L2uCbf3lGJfRDTw/RgUEhx6WQiH34krjyPuqUfD8uD+P0EPL0kVSkBn0B3oLNas0PZcXnctOxZHFkFiS6iBoSb+dcdDuwB0HvUkri3tL80Uo5su8o2OOMNbD/APb3hi0W7Nli686qzh5g386AfV5KKsBeqtKid4xyc58dF4twWxD0CDvPFOO0bfmTYO+K945YW7tRLl3Y4+O5lORf8zOR6vZCbFSWuxts4zByUKu1pK9ldtgAe56fX6A35/CeLQi5v3Zsmz0H75dvrh9Yc2XXRzdr5QnS715FyXTtDjEeKPFo5Xd+/QFE8MRcz50o44m/HtJrzm3DSP/KnpV0jP/b5vl2sN+18rfBvv3Gnh6iu67jG+CRd+SH1ffX5hCnHXd3Q7AOT9MArZ1I7BEkjiyqLZu2JHfsbFVilheXj8093iOyxSc8Sg3OQAP9/TaX5EMcj6MSBezfY1PoAvZGp5GRE+wPFOdP0pJVDtj4EGjoFbJe1TXsrw1bLNizxdYdCfYE77u6O/tMUxKAhLjiK5Qxbu7zjcZTZcVY2FOmt9NH/fdS85iBPwUSxmSXjOiJqpvJZ4OgjpD+LERcR3ng6OZhmYcvQ5+K6fQ/06y9xeJQTy+YtAPmMdBGfxkileIjCeVTKEFeQy9eXpBh6zhrazlEZfcw2LEd39RjmG+fqDum6E7LPJKJt3sFJPIw2znwzSqVwAcPyA8gW/zeFbmHflhju3YQUj103pRIzyzd7YcGevVMqHNx8ukm2DvH+JRMsHfF1X0rLu5d0f7zWtvV/ZeOfjdv+mgFzxtIr5JJcYjBE8ST5fJEHKk2qvegrKlLoscuSJy0OHvSAmVWlae/IJhE1DB2CApVqFwJSM7y9V6Rn/dzUS5YDm0M74HY5lNnPUjwk2NvZ4LkXO1fYdj4ZIyPCCKr8VBR/uMhOp0PSbWHFBNgX1laxirv2GLBni227qhyjPF7gH1qXBwGxfj3HZ19nBtnSaLxdCkBe9dEuz8G9lQk1p1my2A/vYe0+FYjYm/I4jknDYi1Jit9tFyWDPDz5YItCJtY0AiAbTiIgIuuYnhqNIc3WCkDMD824RFbxznbhYPUU8928rvOo3YD3XaGJO/Q3NuZ+bRNZz4l7P0ru5YRZlzrnqM71kTpyAOq5eSjnOe9ePa4a6e+ByRf/2ndJSYtF/t7V/y+eWd/gzrfwb+zK/r2rWQ09J8QFf7VPddPbfv70scRjAuYD/LyRnQejPTRrwNZ+XwhPzTO2jAqY+qzkeMWGcaSK27Skrypiw3Z5R4BAoWMhM+GUKd9rV7KDcjicN60muGZfyHNQpR4zNHqCkkmjHMaFN4e7OOoqY4T7GGPP1On0/v4yoipjgKvfFlRMQv2bLFgzxZbdxzY224Ge1NEBAV7QEgch7M0KfFMWQnAnojuzHbblt8P9j1IeXZyH3ODWr8BVIAxbSamoU8zYT3/dWnxxMgIo7s7ulWtRE7wTC4LlUpCFTLAfECgwF+iDVIEiwTCUDXSZeQ6tUrM56Edf+bxybbOc7YrP189vg18PduvxFMP6Th2pN9tN7tlwH4l3d+7YjYwGBN7MOFbj22pKTQBfSX8QB7XB0S59KSot16e235qB4btsMVFRw7uHpXSOcf71+xiP9foHYfWjrmBxTz8dq4e/Mx25hvblQOnD3z1l/nTMk1RZG7vwUE3j1aeOb4Q8p1EIlNHJeQNmVDx5ItJk5dEjF0YPmZe5LgFYaPnxo9fgEZfU3AP8D5YJmH292SYrweTjxsIz7uFScY9FcV4MduNUXizMNgnU3pL/C3A3oVleTPYHynOm4XO3tuH5CEh1V6uyM/OYcGeLRbs2WLrTgb7LhsF+zi9HvoukYqk3iF75kWz6Wx5Kaj4xE7HEv9nwN6+AmBQh+r1nWt7hLKfy8/YV5L/l/jYCm9vkM6UYqlCowPMQBQAPFMJRf5+AX5Srcacm9J/RHb9SEFIlD9PCKRHxwnPGREvCI14Q9/atvNHIMbrPHcAkG/7ddu1Q0waHqXjYaq/t1uD5yTJU+4eyHqt+z85u+9j24XvbZcPzJkxBob2hBKvUHi7EeOdorT4156dcf7wBkA15PjXDq/B8J+45ex1tcBbSZJsqC8vrPQYQ72r+1dfP/KF7det2BS0//r9d1+89dSUYTF6CeUHEB2dWkNj4+lYHsE5IfrwaGumPKVQWtA7qn5s+qSFCePmh4+ey+D9/JiJS4H3Yflkng8KnRPvkXOPfUcshzMzKvxISX5LhplZ4XefsX7bu7AH2P9UlPd0mAGEAGqXC7DPTE1jwZ4tFuzZYutuAPtYHSLvFGKGB5fI4bxsST5bWgIqPgX7HiHorf8vDXdPUpgzOt1E0lY6EqPhkYe5/f7SgteyMu6VSZC8ovH3D2EIaGEyabhcphBJvP0F/sHR2ry6xOYJ6ZPmm6cszZj2XOrw6R7B0bxAfiQz2wfqq6VS4H1sWPBrf13SdeWUreOMre3nzjPbLx9ce3EX6bPb9yx39tmubDuadt/58zpby05byy642XSc3WtrP7X/h3XDG+/Ty0VKePbJZRTyTdH6x8cN3bTqjesnv7dd3AOlvu2XzbYjazsOrMbVfvDT6z+u7vzxU9vhNbbjX9tOf2O7tNt2YfeVY99sX//ektkTqgvTRb7uOEMEeLqTVp443ttX7/QizwXzeY1eoVAJ+HjuPA++NKywDngfNX4h8D5i7PzwMQsSJizMnLIY/T3wHo62BuYVo5I8rVgS7u4+JljzfUXJxey063iRzfGugkly/LoJ+2mSfQ+wfyY8FGAvVZLUO71MnpGSyoI9WyzYs8XWnQv2NifYG0PD6Rgf9DeA/YtJpjMlxdes9s6eDIRv5Oj9frC/SvVgyM0zEWoePsL97XhRzsb87MlqZaKbG1zf0ccrNFoY5AG01CJpAJcXpDKE5dWkPjg5e8qS5KnPho1bqB+3KHTsAvOjz1ofnIReH8GvYK0D6ogGXaP1cXMD5OdmWF5cMhtoDcy2dfxiaz1gO76x6/CX1w/AkX416PfoyLF9xwUfG8LOO/9D65GNbzz7+JjB9/Srzq7ON9eVpk0fN3TJ04/dX1sBqFOI5UimRwvO9fRk9uucijwLGvSVby7Zv+G9SwfWdxzbAqIAvbqObW07tPHEt59s/uTvry6aNmbIvWVZSUq+N7HmdePIhWKdElY5ZHaiIYYBSkq1I6pCOfEPoBx7/BGV3gHLOf4CfUW/zGlLY8fOA9hHjJmHK3rCEvT34QXVXgFCuVRBXwT8XTTiaqkcx6YhUsmekgIY34IMQfmVt5FO3BrsMcafbdBjjM909nDQk+VmZrFgzxYL9myxdUeCvc0F7FHmqCj0cLSzj+e4P5eUBIJemyWZuuLT6wqzBv4jOTdMf0mY4dbEk/mZm6rKHzfGpfn6ILsWknHsrUlfq1RqZDKfAL6HKkxb2Mc8dHrW1GeTJyyKGTMXCBc5dn4kaW3nYZqdNu3ZpPqR4KtLBMIwZttNqG0qFR28A/IV4qD7e5XPmzV17Yq3j2z7/OLBTV0IvLmwx3ZpL2niz+8AxpOsmisH1i37R0KIwpfxyWfS6Dn0ETBmN2hVYcHBjjE7GZhDAY/wPdroQ6QXqhBlJcegZe9XV9LYp2xAbck9JdlFqYlGg0bCJScDXFx3joTHs7fygHmFhj4agXbmI+UbwqJYrsBxRyeWq3DJ4JzDPB2ZRO4pUib1HZQ6ZQkwPmrM3MjRc7C/j5uwMHvqIl3Z/W5BUrlY4tj6kwu7mBB3j/t4QRsry5AZ2JoU1WNn7+Kff9MYPykelP4jRQVP6vV0Z08eTS4rzi9gwZ4tFuzZYuvOA3tH2Ql6qPSEBCdBL5bjttiYQMH+ksM+jwjnmI//KdJfYUh556yJp/PSDxfnvZNs7MULwnqeyOoQ064ibvxAwQB/vg9fFpxWiMY9berShElLI8YuRkOP2TVB+tHzgHO4gXvQ42ZOfzayzyBPngQ7fgYyFRQ1I/QGPy9PoLUHx47ZUVp5njl2QE3+xIceQEf+wpyJ77w069N3ntu/ecX65f/keZMvwyPggpofg3Tm6EDQV6UkjvR4NehF4ZneJsk04DcE8vy9vID9+C7gCZIkPTc3aOV5fv5o4imWa2TkL0IvJ+MFIrIP3yvQwzOMWdWTx5GTx8Qo3iAS63399R5ecV7eiVx/vac30uuZc4yCxxOIIuLD+4+KGzffOHEhjj7kRRg9P3r8QvT3MRUPuPFlfIGEHJgURJWHRyXPxdO7Dy9wZynp77G8vx2vogfYY8MCsIf07gm9TudL2PiEGCGXlReXsGDPFgv2bLF1N4B9VlJyCKOzp2C/IAE6+yInul+h7iu0rbcmOt30nON9F02dkUq9iR0eo6qHHR4c138pzFlXmDtcq4WIHxpu+L1TPzhCFBBKMJGWxqcZ+z+ChtU0aTHTws6LHEOQHox0CvZRY0hzT7v8sHHzs6YvCS/u4xkoxjzAIJcCPoHBPH9uXVVl44D+7m4cNwbvb74Az1DTI9pP5O/L53JDdXqNSivlCxV+XOj9pFwu2ndEAjEpARpyAbNVarpWZwbvdsgHvoq4/nJ+EESAjsZa5bxUEgnfx9eP40b29KD7CbklGcY508c8+tAQDDNwRmEOOToIDdTevkaO+xCZ/NXkpI25OVuKCt7JzeorFiHVV4vvjFOFNlSRXyvrPSRy+BPQ3EeNW0BfBMz2Ic9L6DfSV6EPCAhCf8/gvf1oAhvEUTIpzIYvppthY8DY5HV76HazKJh3DRhPI4hw43BxwXSdNtjHByc/8pgyaU1FJQv2bLFgzxZbdx7Yd90E9mVZORjjQ9cOyIx293gyJvqXssKbndcI/FMgd9niO9t95wCArPkt8RdMcWetpl9zwbcvfDEqosSNg44T8IbFPPV+V8oVPljPq8OMNf0Lxz2dMuVZRmwGgCe47kR3XEA4O9KPnoOP6O+TJi8unbpAl1HsF8gHyNFJOxr6z1Z+gie1ft2XTzw+455evVMsVn2wTiwU+fn4erp7uJMzgLubm4ePh6dKqoRjT6hKi58qLSBoZIJxrDGhvy44O8A/2t1d7+Gh8+caJGJ03k6Ap209uYFdu0RakpWpl/J9mRUAPnJpf898DHTnYEHQpzRnxtih/355weFtX9raTm1b+1FRqkni54cHDMVD+fjFuHkM1oW8V1a2q7rqdGnR9dysa3lZpytKNvSqyQ0KhEE9XiV/sSI4syS4akBQRYOmeXLihIWg6dGlBl4uTEHyhk4WRRhxYFIp1CHMiQQbA9yAqmJpfOzpgqw2xgPRNdPWFeyxYbnAgD3joGeCg94EtUKLc49Wh6eJzr5v73tYsGeLBXu22LpjUL6rZ3vfbZ17b2UV441P6GOYsU+JCDteVtSThO/gdXdv7h3mObSbJ72jNRH3tDF8e/jbHy8u+Lgg/wER8XKXB/F09PEJB03JDxKAcK7OrEgdMSN92gsO9JpPkZ6Z25OLdrEU8sNpRztxoXHioqgRM0MbJ4TfM0gUnRTAF+EMAVIb1uSV5RX259jVRZ5cZ9fZ02cOHvjxh23fr/ns8w/ee3/R4qXTpk3LTUnlcwNgSoNufkBQ4Jaqqp8qy0+WFf9cXrSjpHB5etq8qKgBQqEJZvWengp/fzVhwJFGn+wdQK+TyQPcPSYOG/LTD1+98eLTI4fc/0Cvovqa3NENtY+NaXx5wdS17z9/7PsV1099a7u423btJ1vbiUWPj8UhwBMp9TqDRiQOdXfrw+Uuy8k+Xl56OT/3elZGZ3pqZ5oFeQTXMlJOV5T+NTUVaI03xUeqkMenxlT3F1XV+1UMVN473DTqKaztw+kLMnpe8uQlWRPmQLDnHiDBJgJTExUTiavyD6jgBe0szMVkhcH1GyYx9MTmCvYIwgHYw6h4pEyq9vN3euM/2DyI/fVhiwV7tti648EeuDik/wBilwsyPHRcXt4jDYajpQWu815XnOgJ9jfiBxHQWxPO5KYx/vbRqRhie/vhUQEeAEqAkFKi8PXnC8NirQ8MzZ2yyDj5WZjEhYxbQvbxBNTRu89xndszDf28mHHzEyYtTpiwIOyhmZoBYwXVzdzygfLaxsiafgpjCk8sl4ploOWjuS8uLDr+8zHyJPHkuhzP3HmbqcenTPHiuMlkilhPr/XlZa0lRR0Z6bZUiy3Dci0nvaUw/3h5+fdVFR+WFE6Pj6sSCjHt0Hp760UiyoYja3uJJMCNM3JA79afd9jaT9vafrGd3WM7t9t2ca+tdS+S6TtPbGg5uNp2edfl49/dX5npB7ueQC4W9mpfLmyLpkRHbKuuOlNC0oZsVpMtxWJLNdsyUm1pybjRmpv5fUVZjaenhsfzU2nEYXExpb0VdU2CusH84gdkVU0Y6cdPXhzNsPRDxiwExaFo8kJNWolfgICQ8+Gki9OJQhXj4fFRciJighndY9wtCXr4CLDHWY1JvUveWVo0SHxD6t3E8RPYXx+2WLBni607qzqZywXsuwgKjh/xMECCdK4K4rg+WBsMCdZVC9m70/GvM+fGFfKpNw5NRocxO5a+V5OiL2ZafirJX1mYV69Uhnt6gIiH7XQIEdDL0HSioecIFMH5tRljZoNXzzT0C4DrMQzVnG7r8WnUmIURoxfQnX3MuIXYVSfiKx+cprrvYVFlA6/kAVl1vaKqXlndoKxrCu3dqMsp54VE8URS4Bz6e8zYn1u86FLLRTvWI+6nq4M+U7K46Owor6jycnPHvnyIXn+0orw9K6M9PY301hlWXF0Zae3pKei2L+dnA48PlJf9y2odqZAn4eDiBecfsSqYOOKAyofRvdSDM7n5vq0fv37l2He287sI5//iTkL7h9T+6o87171n1Csx21er1VDTgSpfF8T7KCfnREVZa17W9TTyvTrSUtpTrddTLO0pyW1WonpAdi0S68fLJBo/30B1MNb20YU1qt6D+L0Gq2oaZWX9g8rrg5smG8cvsI/0R88F3mdPnCuPTyemQ0piMgiwj/T0fCMh5tfctAtMJIHzQOYEe5o6SMG+k3Ez/KYo/wF+oDwgQBQcTMf4s5+cxU7x2WLBni227mSw77JRCJw5ZRpYXZhRE8k7N/A+hRJELUTekcbdbqpDwJ6EoroI7mm7jz09k2qTBAH9qYKcHSX5C6Mjs9w42EmTmTfRrynD0CNKZFy/IFForLnfCDT0GESHjJmPnp7A+Zi5MaOeIUg/di5p6B0z/Njxi+AaG/fIM4ZBj8ruGSYoHygo6y+tGgjAA9KrqhoA9pLqJlldc0ivxvCK+7RJ6TwiUFf4enqhxU+zmOfNm7d7905bF7L9Oq9fv97W1ma73nb00EGuUCwM4iHfb3Fy8pniQvT0XUD69FQE/XWlm0mTnWoiDXdqsi3Nei0z/WxJwYGayhWlxQ+HhMS7u2m8vPB0iMRfpQHTHpDPc+NkJ4UM7Vf+1JQHFz7xyKIZI5+dNWbu1BFagS8OH1HaEI0fF6a2j8VGf1dbfa60GIcJWwoe3EI8iVNM54G4pgQIHfFiIingpDXxREHuolB9iLeXUBMskGsjMkuUTGevqhqoqRooqWrglvRX9h0Z/8hTiQzeo79Pmfa8dcAIrgyCeykJyVWqo7y8/p2UcDYvnRjqJd+wgnGCPcb755k4IoD9pQzL2oKcKq6fghck1tp19kuXLmXBni0W7Nli684u+u/4S88+z3ivEo449OuFQsH2/Oy2dDMNT7tZN+9MvMWfXoNVTpr5eH7O1rLCeQlxpYEBBi8vFU8AOxps6ENkknCVQsDjQxSuyq1KGzMrdepzdtod6eCB7kRJH+Hc2Y8mXLy4CYsTJyyKGzk7pH6cvG4wMF5cPhDdPGnlqxvkAPiqRlV1s7KqSVHZSD6taVL1ajb0HqQr6iVPsBLIF0qogD42NGTEoMY3//nq9h27Lly4aOvofPfNNzmeXrCgMXHc3snJuVBcQEAd6Jtq6UxL7kg1AYBxYXeOC6jckZGKG1dzMloLc46VF60tLhqlUiagWYfKTqvl63TiYL1IgROGB9j+pMADdKO3OEF8njbEgAb9wRDd2vLi8/heWZjVW+nVlW7F+OQik/hnN7xjtA9otU/lpKMph0mORKkRylQR6QU6EBTqmnHK0VbX4ylLq5uE5QOF1c0RD83AgiNq/OK4MXOzRs0UxaeKeSKDDKUw+XE/tyZj1kKi8Kz0LUtyvINkTsMkENrBHs6GGPh/mJOR4+0Fo2KSisSA/bv/+jcL9myxYM8WW3c62JNe/+NlyynbHGN8qUyRzPVfm56CPg9IQMe/jmG+vZtH98kErCVcMBuxngeF+6WYqF4+PlFubsqAACjnQexXUc23DI54gX5qg/HewZlTFsZPXmoYQ+TyDN+eju7nU6Sn98RPXERG0w89qe4/RlTTxC/tJy0jrTzt48lV1QSoU9QMwg3gvaqqCTdkNc34YnFts7bXoIjagWG5FfKIeCzyxWIp19uuho+Ojr6/730vL17S2K8fx88fS/dsN/c1JSUXC3Nt6RYsy8lW2xTbCrk5OmxL0nmLCRdAES9ChzXRZkmypSRhyI/DwYHqqjeyc6oCAjGWl/hzcW6A+R0uYrcnU6p8A0I8fA1ePho/fywUwI1X+3g/k2o51KsKhwY09BghXM9Mp4w8epzCi0wSaRmlwxWGOd+Snb7Kajb5eMNAly+Sh6bkhvRqxhMkr0AlAXvyIlQ2iioGBpbXaxomYlJiGr8w45EnRYkZAoEIGUJynrBIKN4Ohj9sj83dA3zHGD/R0dnHg2OB79ieFA0fnr+npsDWEAxEqUrLjPEVmzduYsGeLRbs2WLrzmnhb/1vNgH7b7ZsJRbrDPVMptJGeHm+l5yAf/oxVUbjTrNoL1riGOk8AxVWRoCXFHs2N/PLspIBYhFG4qB/ExK4SkM7wjBI6yRi90CRxJSV8tA0iMQIoYyRzzET+/kM934huUYvQHA71HTGsXMiHIt5wLykcoCitpECm7Kq56ViLtLc1zTLaxpw4QY6fvwVXa/m0OqBwbmVhKsvU0nFEgz3/X280Xn7Qxfn6SULC5cLhUjf2VJWejkvCwB80RSDWbddVegIeqc36Gj9fFJsS7Kx1Wq6mmZBl3+puPBQaeGr0ZFNfr65HE6cpzsYCTqxOM7Ds1mpgGj+NYv5EV0wcvxIuk8gr4jL/fLe3j9XlZ0ryj9ZVnq6qMCWmU6+rzmRJtRR9yF6qCKQn275JiutkBcoEwn5EoXWmqWva5LWkGEG8B6TDFz0ZZFWNgSV9BP3HZk8+ukidPYxVoFQGkL2/f7NOv2Rwpyr5liqlbjsElXQrcQjdrkJeHOvm2JP5WUsMpkIG1GulNEgHIXyyKHDLNizxYI9W2zd2WBPdva2TtDXYdlKU9Lxrzzm8C/Fx5zIzwIeXCNtrhHNHzXJoYpt4sQCZMpM3V6QU+3jCwI/TgkY/KIdhHgd7WCoUsEP4nkKZKElvbPHP2Oe8izYdoRwN2Ye2dA7RvdA+uhxi5MmLk4YPTd00BR5n4f4ZQOE5QO6+XfM0J65muXM3L4H2NuPAsxXqsjXNGGLD1CU12KR3xxeMyA0p1wVaRRIlaDvYU8RDkiWyXnBwTKBoNbHd1t5aVteNtbzLYmxeI6Ml1yiHexNDBYy6Ag4xGgdqIzN+tWkWLJuTwVvPxPWQzurylfVVj1ZkBfsz4UXzTNpqT/0rjtVXnKiOP+HytKnjPGwntVJZbFe3k9mZXyYnfXvcMP7UZHfJJvaMtIwUWBGCIk4TzDSuCRnYCDa8b352bVigSwwAK64amuWoa5Zdiuwx8wDNwLKGpS9hqTcN0wQEiuSKREmFO7p9Vh01KmCrA5TDB6zhSTcM4w8B0HPKb3Ds8N7Cjn+8fysx+NiQj29APY09S46NPTq1ass2LPFgj1bbN0NBfKaMT4BKEjAXqPReXvNCtWDkA9UgCLrIoNzZL9rimPiUxOJJttiBGN8skqBUTaxvGUGA+CFoacPUcp9/IO8dFEJ/UekT10cO35BxKhui/tIx2Ie9xML2JGz9I0Tpb0eFJQNEJUNoD26/bpNT3/Ly3Em6HFPs67X4IjaBn1ulTDOgh27LEiApynU6eU8fo2fz7flpVfycm1IAUiM7ZH7TgCSTDUSXQfg5KyTFIdp/JWsjJaCnFPFBYdqKr594P4Xq6tASIz18t1cXXWxqOBqdiZ4DOcyrTsqSnpj2OEfEKVQRrl7FHI4jcii9fF6jR90LMnYmZlGEwfozp5+Xwb440HLP1iYM1AhU3K5QVKFKiXHUNfofI49LgC/pG4QdvmG9GKePFiqVodJJDAJeD0jFemCXUkE7PHGXWEEeHbKhYtHAp4j3k2McI4W5gwP0cNRB0c3BeMiXJyba6NMTrbYYsGeLbbugqqtrmEcYYl7DLxaH1bKwasHFAEq0NTC3B4tfnty3DkrNtmJtoRozJnX5OWUePtAC45hAOABMI9RtkIiRQCrLCk9Y/hjGN1HMIb28L61+9uPngNfdyzmwb+DMY524Dgo5nml/SUV9bRJtXfzNQ03g/etL2aL7wR73FBXMwt+ZpEvrh2MC7N9cPdC6xpC8ipDohKFEmUQ6AQCYZWP19byksu5OTarGRDuSlZn1ueky2esZBmYZCCZIDHOPVnpFwryfsrP+TY78y1jwni5PNXNXSMQxXn7bcjK6sjJAq0P2NlujDpRkD3BGI9zgJIvSBaK/l5U+G1N1QHGwAdiehwaLtNZenKcM56OWtgC7A8VZg/VqrR+vgB7ZUoeBXusKhQ1NzAT8TRxYZiBJ2hIzuCLcWTTghJ4P5+HZ9eSlkxo9hZC+qMMDAr2zkA8+6dmY5s1aX9hbl+8g/7+dB2DYc9DQwZj9sOCPVss2LPF1t1RnZMmjg9REBN4dOlIl79XINhYVnQFCjRjzPmUpLMpBOyhpAfYAzZsCTGY4b+RmWb2cCdm7yoNTVVHKAtk9LrivtmT5pkmLXH639GPVDFPFvPDHsViXlBFFvPiynoM7YHuSucCvrpns/77+3v7QaGmAQBPSfv4CH4f7gccBvceHFszICynnKuPkAXxyr28NpUUX8nPtqG1ZbYVN5sIOffolD0H7t711GSA/acyyUwO5x4I/DiccKTpCIWyYD1i4D+0Wi4V5V1MtYDQgHMSpuiPmpIwydf4cIfFxx+qqWrLy2rNSsMjtKeZ28xkgO86UaA/w2USDZyAdfvDsKn39guSqJRphTivyJgXR+VYZ7h09gTsDbUNwbHJIpEEsxlo9p7Qaw+V5mNET3xwLUktDmaA/RtZ47Gnd3AUGIFlumVLNlgCPByDmLxdQthcNG8++7vBFgv2bLF1x1eXvTpe+etL1GGesOj5gmw/v2WFea2ZVpsxmmTWEbCPAYfL3tknErB/Myvd4ulBwZ4w++RqaVis+b4hOdOejZ2wFOFshHxHJHZEX0cU82Pmhg6eprh3uKBigKDsASjmCcaTVn4gBWmKzd1g/5vDfJXLuL67y6dg76D10cenW20R6fKbg6ubomvreXFm6OwL3D2+Li2Gcw529gD7HuP6K07zf4vTPojccy3F1JJi/jk95fu8nPdysp9MNvVWKsK8PYVCIXb2cyLCjpTkn2KQtSXFtK+8uB7SOx8/nbff6MioM8X5NkvCdTMhBGD3fyWx27Xe9WDBDBLiDxfkjAjWwPknSKbVZJdqa5sZsG++eXNBrtpBhsr+qrB4BOMidiDW0/NfycbTeZmE62eKo1OKGxKKETpsjadPGe1+izn2XHbax6nmeE8vBbPNoZk6Hy1bzrA62GKLBXu22LrDwZ5+XPflWntom0odKpWCULY0NeVcbjqGwEB3dPZAeuD9+ZRkAvbG6KsZ1i8L8sq5vprAQDmJbVX4+gUmVvateHwJJvah4xZHj55DiXiIsYFnTkjTJNfFPDCYMO1dNvT2/t4hrrOry2qaf9fCnnmEG+b5LrsAe2dfy8jxq5rCaxsFluzAICGkd18UF7UW5gHsWx1hvs6eHuN613QfFxMhwHPS5QwrLPAgw/u1vORIRdn7+bmZEgk6+4Fy6dbaKgjWcU7aW1n2fGZGhJd3sEQKvH84PAKsPQQHICLITpcz22WNJEzITEYLDpJ8AobqhwpzGlUKxPHx1CG6gpobwR4fm13BHppDfVEfkdqAmABlEL+MzwN3sjUj2XmAuMHn2HG7hVHYt5GfJwE2PmBlhnl5M++mihI49u7dy/6OsMWCPVts3T14j8CYYCbLFZcB2XQ+PpPj43/JA5c7lrDQrUlA+mvJ9s4eJwBk3uwoLRoql4DPBXgANkDxJYhLyRj1RMyERfpxi2LGzAHGY2cfPWERvNwhBwfNnuIu0c0zN1xh3g7YDgY+nef/zgH+LcHeyeTv7vghz6tsDO01SJJZHCiUmjmc5bk5F4vybCm3APseWQBO7LffjxNAUuw1i/G61YSB/OHSksbwcPjnpwXxZqVYvsxOg1HBU8YEq4+POiCQMCF8/TDG/7G26nxm6qkMy8nUZCxHnGI/uqd3zRi8kmreXZjTSypBkC5fH2ko7gU4p9I7ZozfzMgT7HsKPDtID9RZZYFSkjOErQHSDY4VZrdRPaE1yTmocCYW2sOIU0yEmseE2x4oypsKLYW3L/Lu4BYASUV8bFx7ezv7C8IWC/ZssXUXQL1DktdlKy0sIhG0THY7WFr1Ou3hguzrRJoFBn7CNRc2fmcSkW5jJfwEAuE9vbHmR6w7OPluQeL4uvrU6S8A7KPGzokeTcA+ctyC+LHzML0H2DuNcf57V7NzgH9r+h4Z47sOvZshWFflV4O1Hstx+5s1+UIJscu9fINLIOMNzIzT6T2YcmPD7ZyxOwXrlxgHHszkDxXk9ddoVKC2iUTQ4Jn8/RN9fAG6qsBAtUiKV1USEFhuMLxfWvxdQS5g9VhhLpmxZ6dhUw6VHbHEN8fTR6aJNdiSrMtMSffz5fGFkihjROX9+OGpqQ4YiPAUcsrwyOiiqiGsV5M0OTtAKg+XSmPc3J9LscAlt4MBe6LjB9vfHoST6KQB0ggcwH8nwD4taUdZQaOIh/edMcpF3p2ifsBAdoLPFgv2bLF1t4H91ImT7JN8hUrK58M094f87CvpyXYfdab7pM3odWaHfTI/87XE+Ghkw6ObVCo1CjkvSKQ0pqeOnxM+fgE1yKPWeIhsQVQdBXs6Xf//H+ydYjyApa6sr1AXpXP3fCImCsR4RNG03gT2zj7ern1PSXANBXB+8VmL8Ux2+ndV5eVymdg/AAkDEpVKqlSJJTI3d08PDy+ef4CPmwfs+kOD+Ckct76+PuOkYvjeww334+SkzVnpe/KzMbH/uSj354KcY3nZsDeABO5QZdmSmMhQLw9/qVxuyoqsa5TV2MEe9vh4FjeC/cDwyn6CKBMU+YagwBJ/7urigguZFgxgXMGeeSKJjvkB0eDZI3CSYlqyrJ/lZRb7eKlFYoA99c5bvHBRJ4v2bLFgzxZbdw/iM3E47779DmVmEZm1QhXn5fWhNRkeeQCJq9RHz5xgd3GnFmxwecvNyuUFyQQiAg/w5JFIuYD7gaPMU5ZS2xxqgosEelDzYHHvHKf/GYBXubDzXEG9G/t7fmWzk9AHjMQGIaSmXhqfwvP0vV8qOVhRiqgbkvHjGKFfdpHaUw26o6ePpz53MBC0n35M0XAL3lJZCo1cJJ8UTPHd3Tj46OnugbDdf7zy1w3r1uJjutWCbJ4Arj8M9RAgiy0JvGuM3r55QfxeEmmTQj5Sq5wWapgdFTEnNnJesvGZjLQikVAeEBSgCUVIIBx1qNDOyTek03tYD+FOXW1jeFEvni4C5wyDj+dopXxXWSF+yE6Hwp4ODJxgT54jk2dId/YY4/+am/Gi2RTv7gFtPayOwcDAdOfLNV90OSic7O8IWyzYs8XWXVKHDx4CzFMatkqtC/H0nB8ZfrgoFyAB+RZxkUsh1iu4mMF+Ylti7LHivAdDDSo/P0ajrwhVyLj+PG12FXLtAPOhY0l/D5oe8dUZMUtSRdLqcP2fgL1ro38rsNdUkttUvQbNuiq9KEAgSXJ331yYD6odltZkDe8wynUNAnAay3dH/DH3gLR4sjBrbV5GrwDfSG8vf3cPmUI+ZcL4Aff1GTqo+d2337p0/hzidK9cbEHIbsvZM5OmTOb4+HK8fQPQ98NEXx0sl6nlQikQHS+g0t1dxeHoOZxIN/dob2/Q+0P5AgQVqKITo6sHYhrBUO6bb+YiENFd7yZDVnGQTI25QrQ7h7gfFmSD8dee1O2dd9lxdml1nGYod4/S9TFUGB8eho0MwB52OsTwWK2+cOFCZ5eNRXq2WLBni627oqd3ae5zMjIp2KNL1/n6DlNIt5cUgotHOfnglBGaHsPJxwQYd8I/f5HVgtx0xKxhjA8HPYlIyjPEpw+bjDybUNjpEE7+HELIHzNX0WuorLz+z6ztb6bsuQK/6iY9nmNb3w321ElXX9egL6z114bqPTxeiY05W1LUkmYhHvjMIcY+q2dG34xvoN15hgy9UxJhNY+GvjU16WhpwctZGTgugDAP+/0AX5/XXv0bHAtaL7V0tF29fuXysSOHD+zZvW/Xzj0//HD6lxO2jo51q1eW5mb7uLnBpT/IlwvCA+JzvLy5HL+gQLVeFB7nrw3j+As4Xr4ykRiWw6DxyzX6yLI+wXXkmCJxCg0cNzClwDNCwq/alBoklGAIn+XrvS4rDXKAy44Qox7OgK6sQzv3MNW0pyi3VixCiBHJR1AR77x7e/W22VgzHbZYsGeLrbsQ+W3Tpj4KpEd/j3F+CE9Q6Ouzqigf8XfAdWIOn5JEBXhnrSaI76G2h8Dss9IixNpCgAeFPvXg8wqSxNf0S5v2rIHp7KHBI2v7iYvU948UlvZ36uv+62Df4ytdwZ6y2EhnXzsIGjxl5YDQqvsDo5OEHt4jhAJM8i9kpYFqh+kFLlepPeOQb1fb0z4YwrlzOakQ078QGx3PcZcG8vFScdy9Hnl4JDr4QwcP4Dp8YP+h/fv279uzd8+uk8eOnzj68+5dO/bt2GFrvdR+9sxH77z9wsL5lQWFfl7eQqnCXFQ5cOa8h156c9Try4f+9V/3PLkooXd/Dl/G8fU3aDQ4PAkijVE1AzV1VHrXZJ+LODWKOLtUDxCHxSoYgV+9UnmoKLdbO+CylbiJl0C2MyT4ICtldbo5yZso7AH2uPDfwNLFS3ocB9liiwV7tti6S7r8z1Z/qmHicFTKYAjwYjw8llqSoba3O+SnJEOTjTE+UB/YT2f7yLedHKyG0Rvd9RqUqgB/vsaUlTZhLkx1mND6+bDLRQYrpPb88v5/fmdPVea3vJ/iOoP05GtcefjUi5fkxzDDcJjLCq05fJ44g8P5vLDgTH7WpaQYSkKkKrgWRnBIonGsNDIuDice9PqIhttWWT5arwOZXxsUhHmGXiYXc/21SsWWzRs7r7Xt372LIP3efft27b54ocWJl+fPn9+1Yyfuv9J2FfdMmzwJ+32pIWbue6sXfXdk/Bfbx636bvLn3z+xYd+cDXuHPv+GJDHDzcsXzEchYnxiksKq+yvrbiEshCRPV9QrUKXFcCXMzW12Qtyv+ZmMa56x5QYefoLTDB9IT7N08W7ibYVIb0l0uMHHGz67+HawPcZ/ANu37+ye+rC/G2yxYM8WW3dTXWq5GKINhik6xstwz0Wn+KA+GORwQtCDTMuaRONwLhIUJGI8IAckZP9ONiHlBbteGoejlkoDlSHG5kkwxyWW+ExcPcA+Yuh0PpPF/qfVd7cDe1d73W6w7+mvx3wBhOmq3AqeUhvm5jErJvpEaQE6e7t3bLJdpcYY4zOJOJaEc2C0pZlPFuZ8WZQ/gB8Eqxws1N0DgjwDeBDXRWu1mMzHx8WcP/0rrh/37tm9c9eFc+dtnYTdtvqzT1959W+AzMuXLx87/svu/QcuXGwZ3NgAsFclpEx7e9XIT76t/+ibwcs2D1m2edCHm4Z+uHHWxgNPrdoUnl3E8fTB+Qk+xFJLrq7WvrmnBxcp0+iHgn+QWuAvkYWJBOke7v/OybyQmYJzCd07kMR6J9h3d/mEl4eTDUwULqSawOYbJhWTZQRR2MtxaEiIi3fl4bNgzxYL9myxdZd197b6fv21jC86BvIKvgh08S05mZjkO+jo8TSZzY6L+Jhm3l2cXy0SEaKZSoMLcTi+/ny4t2Y8ugRjfJKFM3puzLj5cSNnS+qGIH/9T4D9TTDPPFS30V51w29xAhx/ink4KG/hZX3gVyP041YJ+HtKCoDlxD7IHE+59+h6O5Li4SgAz7urKUa0y99XlM1NNFq9PIO5fkJfP44nN/O+5uFPLYWdLT9IYAjWAe8fHjYUpDys6n8+eoS+ou+88xaHqT697wH242q7cvXqldaB98JZ3z3Ymjvt3c9HfrylafmWwR9ueHD5hsHLNzYv29T4wYYp63bOXLU5OLM4gBso4Yv9DXGGqgGKOmKtA7DHz4+MH4B9ZGV/SWxyoEwRwuU2iATbyovxRJhJDAkmvg3YJ9Cc4vakaGz3P8nNzvXw1IolCCnGIgZgP27M2C6XeQ8L9myxYM8WW3c+vt/4j/l77/yLIj0M9ZQKbYSH12tG48n8bKAFHNkobNjH3Qy9C70+LGIejQiHlgxh9iCZh8mkwoAgcVJm2phZsWPngZNPfPTGzjOOgbXOw+Lygf9FsCf0/spGGMkparoF98Se71Yu+lS3ho8SxkMXi3C5MS1QIgeD/e2EWMjP0MHjqdHNPR2Do0s+XZB1oCjn/ZTkRrE42t1DwhNgm+4pUT8w6Yn5a7f/fefx2hGTON4BmIVIA4O83Nw/XbUa7LwTR3+iL+x9ffu4MWCPj22tl0mbTDjutob77gXYh2YUzfhw7cMrNg9ajrb+68EffkXAfsWWxo+2NLz/9fxtPw1f+qqnTwAm+frMkpBae5I9eRaVBOy1dUMii2r5mjCpKtjg4fl0mAHBxC3JRqd6ooedjquqkGTrmWJ+KcieGx8fzYjuZCotwB5jfHgnd7n8t8GCPVss2LPF1t2A9K6c/NYLLUjECWE291jDww13rFq1p7SYUvGplMuZjE77e8Dhsow0LL9VMrlIq4OJm14i85aHmBpGmScuDh+zgBHcz0WsrXbABNjjA6H/qyZ6jIC+qpECod1Uv7LRBewdvb4D7GV1zdLqRgjwNJklXJlG7+U5Ra87UFYImr0tIQzsNvS7WE8cLMlbV1K40Jz0gEoV6+5h8POFER7HixuRXzX5rU/mbj04ZPmWh5ZvXrh+Z1xJL3cPn0itBmL6rIzMyy0Xjv90pLO9Azi5edMGf64vwH7GjBk2Bug7mI/33dOb4+YZnVfx5Ir1w5dvbFy+aciyjRjgP7h806BlG4D9w1dsmv3F98l9mzne/qrIeENtPZ3bO6X2AHssI8JS83hiuUKuifPwXGZJPpuT4WTeOZ32b8HGtzBpe6lJe4vzBqrUGj9/JgOJbGHiIiK6OjrZXw22WLBni627GvU7u/r16Ut49So1wlLh/5rn5flJQe7ZrFRQ8ZEB4zRpoRx1gP3ZDAvG4A8J+DBbBdhjDhwul3sGiiNL+2ZNXRIxegHB+zHzQMg3DHpUUD7wTxP0XLr26maC69UugTrOLv9myx3HGB9Ij823urbJUHYfPzgcLjdFAf6f9649UZx7Pi/9x+LcjfnZbyfFz9BpkPQT7e6u9vPXqoM9/AM5QeLqkZMXfrFt+pc7MWlvWPFtw4ebpq3dOfXNT/ylapjlBauU6OCXLJgPph6W97Yu4H3HmTO/7tixg87DcVGwrywt47h5Gcv7zF65EWDf9BE6+40PfrABH3E1vb/hyQ17+89+lsMVeSt0UQXVIOIJawYhPQh+eZSdh2VEWE29Ni5ZJBBDFFAuEu8qLLgKDaGlp81fz4sw9Yj0AMrJVRkpCfBAlCoZ50TCwx8zajTby7PFgj1bbN31sG/74N/vAuxhigeTFr1CFuXh/lR8HKLZ2xjaV4/ENnT5kOFhzv9iRLjOwwskL2YUrECsnCIhLXPs09FjF4CND5oe4eg9NENUSZJv/gsw70LKI3kwNQ0Qo4PCRiN2yIS/svEWBD2apMfckDDuOtoEq5QvDPELqAsJeSYtdWZ8XFOILp/PgxIBKXYaHg9PJ1yp9Pb08VWHDX/utXlbfnz4ky3NH36NeTuwGb1404cb52z58Z4xj8IwByJ1Xw9OdHjYkcMHL547S8De1un62jpxND8zG2Bvuqdh1pptw5ZvwJ6edPbLvmaG+RtGrPp+2qrNamMqxydQYc2N7MU8zdpBVLhIZhhwDqgdbCjtI9EadFKZ2tdvZFTUL4V51xgBIaHmmeMdrnnUFtCVk48Bftw5sxEevU+HaGDn53zX8PN/vWGTfddAf152Zc8WC/ZssXVXgn1H27UIvZ7w6lUKYnrv799HKobE7nKayeGTb3QOhy/TfXAWyXlL43Kh9mb4fQqVRBakMiQ3T0yauJgS8qPHL4weNVvWewiS7P9bYO+Uoulr6mXppdK0Ek3VQGdnr7pxYe88GZAsmap6sAWD6wZF5FXyEeKD5+ofYPDyQsYrgFMlEGIHr0CYH56KVg8JnDLKOPNfq5/ZuB8z9oblmyk2D//g62Efft24bPPIlVvnfb5Vn5br6eVj0KrQ3D/91Cxbe9vl1gsAy87uTrnTmUSQlmzhuPmk1Y+YvW4nAL55GenpgfqEpvfhV09tPZQ7ajrHy1+iCw8tv1/Vy55xR2cYVHAfWtuszSgOEMuwN8HS/bn0NHTq4OHD+Qc7FyB9GwP2jG6wJ9gTZ6SslG9K8vv4e8sDAuCHT6l5ycmWTnoi6SJnFMrJZ/GeLRbs2WLrDkf2G/8dt3/aZZs4dhwm0rS/h50e2tx/W5LASAeut5niHB5zjstM8lTg5TII8nwfH8z/IcMDcnADhZG9mtOmLsXCnibiIP5Oc/9IwtH7c928fRPP2N8C2tHQ6/Or3XkSgS4ioq5JXMnEw1Qz0jtmyO+kBHa7ytc2wl0HwIl4e1lSZgBPDLl8GLOAAENNI5MpmUVGqEoNhztxrAWb9Rnr9wz6AJ33RvT0kMnhIxpx0ot/tAn3z/x6T9OClzl+gSqZ1MfDPTLUcGDPzksXz9nszXynjdHh0U+hwYuPjuG4+xQOnzJz/S7ymB9tomN8bOsnr/lh4hsrOOoIToDIkFoQ1mcIInAo0tOZhJQZToCHL40zA+x1/tyqgMAvSwsZ+6NIIhS0Jl5NNl5xgH3rTWAPdsIvBZnPm5Pi3Dh4i7GvIaI7hXLhwoUOsO/o7uxZrGeLBXu22Lora+f2HejOMddFZw+aHgT3Y9XKvWVF8NXBoNg5wCe0fGq5aor7JS/r+cQEI4cDWx5w8kOlEh43SJVdmTFpPkxzwdGLID56C3UDxiAR548F36lucMcj+E05awB4pTkn0D8I5rKWhtHaBx4BDbD7rzCBMU6wt4/xaxzM9prGsIr+iugkWOXzxDK+RA7Nukpn0Afr8Ny5nt4ibeiMD76Yvn43Rvd0s47RPfpvgP0g0o6TqTvB6eVb5ny1x1RWB6YeleHNfWp2V2c7cJ3B+E46z0drj0/Onj0brtMB7GsmPzXz633467SzpyeJOZv2p95Tz/EORJBddFU/nEsA9swAfyB+WjrP19Y2RxXXgXAgUWoxkJioUe+HVQCTV4u3BmP8y8n2+CIC9uY4XPb4PtywxIGah1HNAKVC48fFmYZS84D6J0+e7HIOIVyGPWyxxYI9W2zdnVWQkx3CxNsAuTUicYa720f52eey0zoITY+aytk395cZLzYw+DaW5NVyfeU8vig4GLNlBY/Pi7KkjpiBhh5uerhI/N2gKYKKAdT2lUKv01NPVd38O01zXcEefwsBr9Jok5gvEMpU5kGTzBMWgBkgKhtAH9D+sExzT7b71U32PJ5q+6ckNa5ygCK1SBJnFcSa1VklsYUVOq0eAkL3QNHIJX97auO+xg++GsIs1JnLjsro6e39/YcbMcyfvm7XmOf/iQGDVCzz47iZEoyHDh2CTxG65L2791jNlkRj/LffbgV0/vzzz8EyCTzw75u59LH1u/Fog5aT5h4Tghkb9jUu+QeHK/AWyHQFNTrHAB+QT44s9s5+cOg9g/UpOdANQiYJR6NXE2KQOIz3AiRKx+jeLrprgfcRunmLPcIH95CYg5z0FeYkJN9jgKFnLhzR7ru3ryurgC22WLBni627vNCMfvj+BzTLTq7WgKoNGf3EiFBQuoAidtqXJb7VFEs7e7jpIdkdjvEzQ4JVPr6yYD06exDHvGV604CRKZOXAunByUf8XeTQ6eKqRsKHd5jZ/acGuq5gD5IdSPVh5X2RIoOkXaFMk9A4IeWxF/FdQPsnBj43gn23u77DbpZ+igchMraa+vCaAfF9GjUpuTCl93D3KR70yJKtP2KJzvT0ZGhP+3iK+gTv0dN/+BX0cgD7Ycs2LfpqV0qvAW7u3rC9gwzv+WefQ3MPsEfcrTvHDfckmxIBpkePHhEHcDncgMbFr075YicZFTCEfMjtZq35VpFZyvEO0iWmhvVqwq7BaSFAXyXmZ24Ora6XRSeKEJgrEOcFBGzMybiUZQWod4ffmO1WgM7MG2d83+kU06Gi/EdVcrW3L6XmwRoZy5qNGzczSN/JNvNssWDPFlv/K2CPFXNcVCSG+Q43PUG6ny80adCgo1kkQML0i06a3gWzkfSLKcmxnohUIRbrQBGvAHFUad+Mqc/CWoeY5o6bR330JBX13Xv0mm4X29tiPHXLqWq4RWdfAy+8vqLQWHT2EnVIQtNE4+RnqcxPVEFUaqDlAy+p8t4J8HY5PoOj9I8w0hchG75Xc2hOeYBMBd86VXjs5HfXjPls21BHQ0+39Zjew/1mqKPFB1Qzrfnm5g82Tl+756EX3/IKEmnEEkzy8/Nyzp09DbBvaqxHzj2uyooyTPL37duH7Dt/qXLYS+9MWLOdgn3Dso1Pbf2xz4THOL5BvsERCLtD+I1TW0+eSI09C0df06wv7IXUPvAKDd6+D+t0PxXlUX9DMmtxDO0d4T2JrVYT/ZQAvykWFgLLcjPTsHARy6S6ED1jkZuZmd1uB/nO7vaexXy2WLBni627HOxtNtC1EPSiI2FoKoVGq/fxnh0afLg4D3NgzO0JqFgTXcNS8Sk2wfcrVRCm6xkdV1CgUJecnT5xXtg4jPERijM3ccwc5b3DXX30/jOwJ3+r2bm/p509BXsBTyjXR5qGTI2duDhmwqLoR54GflOLPafNTg+wp9+RfgFwFEqB4Mr+xJBOKsfqvXrww9DU1TPE+2HMR9rKO5t7CvME6ZeRFT49CmBzn17d18PDSy2Xeblx3v33OwD7C+fPDn1w8MCB/U+d+gWv7dq1a9Hoiw3Ro9/4aNTKb8j6f/nG0Z9vn/jBFzxDNMePp8kuDe3FbBlqB1FiAX3uMNLBp0i415hzvWQkZtDEcXs52XQqN4s4H1gI0lN/Qye604beGXQLG10YCYzUB4d6e8M8gLrmgZr37rvvtjsAngV7tliwZ4ut/xWwR7W0tACwQxhOPmh6yqCgIm/PNSUFZ7Ks1+2b+0QmCjaemrJhmA/71TnGBCjBkKMjVwcrRBJJcKRp2DQAMCb5yMUxjl+g7TcKHD0C3syA/XZgf6tA255gj8YXYB9Zcb80IiEoiK8Mi7GMeBxIDyv+qBEzSVtcOdDZu9uldzU9wZ7Z5TdBjxdR1wgDXTFPBOmdQK598vUPHv9qz4BlxLgejTtm9ZDGDf3gK8jtKMAD750wT7t/SPKwgx82/y+cQJFSqfTicOr7PXDp4gUquO+0URle5/vvvw/7vGBT2rT3v4QxPrR8APv5mw9kNI7keAVgPh9SMxA2+NQ/hxIJg6vq8fT5kNr3aoor7S01RPnJlME8Xm9vz6/zc09npzNJfXbiJKVTUD09cdNLjsW708as8M/kpn2ak2709FCKpTjDwS0RPESMcFh9HVtssWDP1v9oZ4//zZzxhMvmXhHu6fFoVMTxknw6KMZ82O7Ixvjm4gQAmt6n+XnFPj4agQjnA8yHA/mSmPuHJ099FlZ6cNfBgF3fOPHPgL28+gawR/sbVfmAPDrZN4CniTWljZoFjR/APmbkLJADeljz3hLsGatdot8LK6zjqUN1UomGFwS3+aZpT8/78gfgPdp6hNHZh/ZUbte9tv+a0vIp2ONYgC+e89nWqIJKaO6lQQH8AP+v1q+leO/omDtfeeUVjruXsaRu5qqtMNwdsHzToxv2PfzCGxyegsNXRBbV6HsPIgb+VQNxUbDXgn9QWS+oG6y5pzkyIx/CAYkuROvtPV0hw6zldEoylUgwnoZ2i1wA/FVm4UIOAdZ4GOaDpb+vrGiCRg2FJEY1eEOJulKp+tvf/nY78x+22GLBni227nawh1X+xUuQZqH/A1sbWSlKgdDq47MuL/sMs7l3JqrRyFRYtSAydW9p/hicDfz8kaIG5XqgP19f/gCjtof6bmHChIXhDz4mrBwIH70bCHrVv52G1+wK9vhbmkqC92SsXdUYWT1AHp/qweUHJ6anjZkdNX5hzIQF4SOewFGAsu6dhwbnbXqDAj8eAV8Jgl5wZkmAjCjOw1UKMOo5voHRmQXD5/9lwbodj6/bjek9HOwB5/iI20yXv27osvVEZ09ibBiSHRNe99TXex94fL6Hb0CoUoHN/ZQJ4+Ge23L2DMF5pr2fPftpjodv1v2DZ63fjWPEsJXfzVy7IzyjmOMVBFFAeO8muqGnokG7AXBlPY21RRxOcGyyUCiWqrQ4e71pjD2bm3mB8csjk3yQ8JnMAkK5tyTiPQLSn05LhvIeUXgQU7yRl2N0dzeIxGomjxhXQkwsjeLtRnq22GLBni22/qfwHjDw5BMz0fwxw3wl7OTQFE5WE1U3bNoQm0Yd8qlJ/jVG2A0N2F/jogxe6B11DNgHKdPLsLaHtQ5oenETFmPATgj56FkZGPujYN9AwR7E/vCaeujs3QKEemte6vg5keMWYZIf8bB9jH9LsO+xv8dXQrluKKz1kQcrmeQ3Yh2oUHp6ertxBYmVfR9+8e35G/dP/WI7sHzQsm5CPkJpuxf2zM4ef/Twx9/MWLHBkJTq7+PL9fYJD9H/uHv32VMnuxinGoD90KEPcdz9qh6eMuOr/U0fbnpm68HyCTM5noGC4MjQqgHKum5GHoV8eps865omWOTyVXo1sm94/NygwK15GTSAmDbxDEfPiAxi1509GnpcV61J2Nb312iUPn5Y0pMZPmFfKt74xz/t5rgOSyW22GLBni22/qeqEzAAWxitWgN1FmjbWMMHS6TJHM5b2Rm/5qZdTYpmJsaJdo6eiQlby0xdm5lq9fOHYy7G+OhBedHm9Icfx2g9dNziyHELYkY/BSqcqKL/DYP66v93zv1NYN8gYkbc4bUNKms+J1AcklmSxpAB0dxHjJjl3Nn3gPabtXyU8R5a1yhKTPfnCSGCNyiIlR4UdEqpDF041PPZ99RPeOltZNxN/3I70drh+miLPcCGIefjout8pOPA77b36EeReQ8SnBcTjdPRfg2JONQxt6KyGmDf8MSCiev3j1u/f9Lry9zkOo6/0JBdZujdJGGcc1TM03Qm3xATvZqmqF5NmpR8P7EcPxgybUfpNEcLs4Dx1EgH5Du6tsc9nUmxsM6FKQJsdmwJ0Wj6TxbmvG42Rbq5g8OPcxuTfKMibX2XnaJx2/8GbGwIHlss2LPF1t3c3dtb/Beeex7Dbex3VSqNTq1B7m0/uWxfWcHFNBjlJtnVd2R6nERm+5bE/UV5/dQahR8XeCmTK7nqcGvDKNOkJfpxi8DJTxg3X3X/cOjibsDd3wn2BJu7wZ5CYGhdgya9iBMgDskqS5+0EPOD/wjsnbwBouKrGaA3Z/FkSpxRQEskhjMyaRgCAAUi8PN9xGp424148Y25X+2ChQ5xvvvALrWn7T7AHhT9+hVbRq3a9tg7q4Wh8QgEgsou3Wo5+cvxY8eOkea+qzMyKobjyxv1/GsT1u2bseFAfGkdx8tPYkyNqCUeecTH17FrwLIDbv+4U1DXrKhrii67VxwWF4gMYqnUxOG8ak3Gkcs5X6ErFeA9MdXB2cuaeCEzBaN7HL+QkfN1dWWvAC4s81RqnUal1cgww1et/GiFs62/Dd6zYM8WC/ZssXV3wzz9fyYDLT4+Hr4rlKwHC/wwD8+X4mOOF+WcMSfS6TFoetSj7ao59lhh7qSoSNi4oj/Gxt+HL0usHZA69Tn9WBJvnziBMc2tII62gDG7NK6q/neAfZMT7GmXDy85cOvQkQdnV3CC5GG5lT3BvqLht2He9SiAcwPJva1rhIpdHGMKlKrEQgmecigM86VSNNNSoYjj6ePFl6ZU3/vw4lfmr93+xFd7hy/fjOC7ho+3NjCZ9JDgY4UP0v7iDTvzBw7DVCAE6wAO5/W/v3rlyhW8kr8ePeLu4RUYHjf5rU8WfX+09sklGADge4WU9VH3HuT6Q9KfCscavDjiXoN09wyKyizhS1QiTbA6IKB3QOCGspLTOanXzYQa2W6M7kqMBQsPVrjnctOPFubsLin6sij/7cz0F02JT5vN94ToQ319MJ5BZ48NBVYzIx4cTtt6+5vMTvDZYsGefQnY+p8Ge5tt5epVcFCnVjlSrV7pH1Ts5ra+tOhMToYT7NFQAuyvJ0bDtuVFqyWew8EYHzR+vwBBTG5V2mTa2RNCfkjTJD7s6x3dvNM35o+BfUh1oz63hhOkisivTZ202AXsB/9OsKcbcaz/8Wg4IgT3HgzSH4bqquhEdPl8Hrp8YhMEyAfnTi4Uw1zPI0hsrLi3ad5LYNQ/vWn/qNXfDvmImO04jO6/nvbFD5gB+AjlSrEYk/yyokJIGQH2qz9cBt1deEndy9/sf/RfK90McRDWGyyZYX0GYSuBn4QJ62ugY3znM5XUNRt6NehjkoV8iUKr13n7zArRHSzJO2s12W1xU0wtWWn/H3tXAd/E+YZLC7RQtzRp6kpboFCc4m51ZLgVG7INdxgwGM6wubsw5hvsP2PugrsOd2e0zf+5fOn1uCTXS+7apu37/LLsGpLL5e677/lee170Gt7Tud0nzRqtioseH6RJ86jZzMWlThVn+PzR1g+JCJH6UMb0eJ4xefqtG7d5/w1RPYFAZE8gGNLTurP8bSRyw1pFu/dxERFHOreD355V4rGye0SLobL3Wbs2HVyrh/n5IScfZBlRPxWpc3FTObKvP2MtEvJ9042N7Vnv+cI0NGuld4WqeSayFyjojYTsTGT60Mh2WU4+IbU6ZDeF/P6kxxKmro0fv4SRvSw3vihxz+jVR/0bBHTD22cEJTdDlj4c++GaIFj5WMHg56OZr0tVN2d3n7hmbfpMmTf/rc9W/bBz7jc7WE4+PPnDPvoNyfYNu2RVc6muD9JWq+L87rvvgllnTZuOFjidH5rzxq7jSe26OFV390uon5DWF98YmD2Ck/g1W/RwlJ+TG9m1lz/nfg+CbwWy9l+C5lO5vkR3mjVEUuSObp03tW71cJ2k3jpt/WpVo6pWRa/ecG+fiICAKKP6PQvSsyvIx+wb1U/54bvvjS78vCJ3vaD0jqrwCET2BEIFB1cnZvTuMimYf08cY/nbRk09dMjRJlSp8nYDrvXtRQTsG9e92oSL36PE62pqoz+7dRwW4Kd3d/cPDdP6BwVFJjaZsCARSfIToZD/WMK4xf5IpOdSzwYzmXr5ZC8U1QnKMFn20R1yQPYmy952sjfp5kK4JnMY30aWJQRAQBfZ/rHt04PrNETne1+fQES7ubUO0vdQYajRuLrWgB8eEn7thoyFVu6j3/yz5Ic9E7f8PuyDX5Fsn7tgpZOrZ2hoeFWnKtnpGTiRXTt3AdnPe/HtQQtXOFV3qxkYFN62e3RPTikvsDBVkJcExiExxdy4nrnBjdt6+gVGBWtho/fSBu3u1BYh+TMd2uzp2vHllLr3awKaoqauWrXgmu5YW6CMHh2M0LtWGxam47IqtW7VXVEaEOjrY+R7Rvx6ZuJv+/obdsGJ7AlE9gRC5QJrZM68u6aO7AV5y5Ytg1kfbdTQhTM52MOjW9Wq33XrDF02TrylIVfrhbAx02SdFaoPdXOFZQ9jFIJ0ycOm1J/FVdsnTl4NLVtNz7EBPQYKyZ4j2mJEdczI3igXD7KPap/t5K2Pa5cJso+dvNZI9hbc+Pw+9VZEeYva8xT2xGNlgajCR2ZARKccTe0mXrpwruUO7PtgbaQuiONLfRgqDBHOR6u6hp3Th05b8PCrHy79bteKnw+s3fJTWEqqq5tHWKAm0MNz3crVtRPrJNSuP3vpY25BYS4evro6DWNzhhlF73P5QsQiss9Cat5IFOMldskJiEzw0QbDr1Dbqcry5k3+7pm5rWPbeXWTugUEIMc+0tUt0t8/iqup00EaAbV5eEY2JdZkkOat6uySlJCYXLe2R0139OPxrOEWHR6GI+ceWBcE60+fPGW+2KPUPAKRPYFQGQhfYNsVmFTTGzVoyEWvdcEow+NK8lyqjtHrkJl/qUWjq8ZkvTtGIZeT7Vs9kVQLbVpgWSKhHTp6tfqMaTRrffyklQlTVidPWR103wSQvS59kCkybTSpiyV7/b3Ez9z4UZlDojpkOkEt15igh9K7xClWyf7edYOFnHwTzfPbEN7JGsFJ9aGLfM6IWtnDYtqlgaG9g8O8/ALhUw8J5qLgzNCHPDCc9lWRWh+V2KjP8P4LVz//1W8T5i8D2eOMQZIIb/D29ElPz0xt3rpK9ZqeYbFxnbLQ8AaCAUXt+DILVz9Gyz4oOze+V25Ug1RP3wCIEiIy0sbPb12PbkvrJ6dXdUE3wiAvXxwDlhzcqiMkDP9xxxMSovP3R2IgHmldu332yadQ8bt968b2v/+ZP3eer6cXKD8yNCzC2NIQ7+/dsxeRPYFAZE8gmPDP33+a4r5GozAiKDjR2XlDctKhru0h2Ya08BusY3q7Fu+m1IuD3zg4NFqrcffwieo+sPnsjQmTVoHvoaMXMmCKX1fOsufL3IuS9SzRsM4oDo8HqDHUSI2c3zt7FGzi6KyhkW3ToTUb3z6DZeOD7BEpMInqCEV7Ch+mtUXhg6d2lqnHNow0n6vNMm1wuXvG15G+h2r4kE49gxq08o6o5emngdwek57FM3QG4fyAUD+q6arU8Iiv27BL98wIfXhYoBb9AjQ+fijcj42M0vr5eQdog5q0gwOf23nWiOCsETgqlANwP9D4wNoC/1ore0hEi85+QXoY69gzPAQpoSENsbZwrR7p7hmrQUwhhFM5NDrkw41MD3c9uBxZAu3btnvv3c18yr2hUDnnwL79zZs2w3siQiCPr8Ux4+O//fKr4V6nPS+kSMOeQGRPIFQmcDXZ+cuXLEbkngv66kNQhhfm5d3Myenddq0RvL+RwnW4R/D+Rqum37Vs3sTTOxDSOlqNh7uPvk1m6rTVSZNWwJOfPHVt2BCTQr6wx7w1sue0dY118PoeA72bdQ7tkIPUudBMiOqMAE2C7MNbd3Py0sS1SWsxk0vQS5q6jpXeIS2AWyiwlvCWut4VGfGZQ5nfvsi8vneVwLLimeofHkjfS8wagp40Sc3aRSbUhgJBiJHsQflIegeDRnPmvs7Lzc3TtQbYNFKrN6bFcfF+PU6Kr68+qlbdzAHxvUZEpQ2MThsY2b1vdPc+Md36RHXpFdm5J0IGYe0ytU3bowgQgQOtxqhjzxFzMPgeVnswVhUhRlc8y7bTh+CLwN94REdGjR1z/3fbvuWr5y0QdoGhdctWsPs5f75Wi/0MHjhISPbE8QQiewKh8oG58Qs1dDu2bWfie52ea3BXs2ZHT4+/u3W60qoZtFoh3Xq7Wf3t7Vr2CAjUenkjzOzh4x/YoFWriUuSJi2Hrk7d6esih8/y6z7oHrK3KLBT1Mqds6ojewxwDY5089dB+gb9b0J6j0OiH7rBghSd3APiW3dvPn01S9CLm7CEKecbG8kYO8EXeuM1xvo65N+xDdZpBl3mEBrn7Oms3PDs4QjS4xGZPRRl9xDtwdoiNmNwfPrgWmkD47r3xwOsHN25F7rO1+3Wu16HtDoNm0dERCF3z0jJHPvC5wFeZw2C2QOUjz/h8Ee8HwJF9Zq1qt2mqza5SVBcHV1MoiYyPigqThMeExgWHRAaFRga4RcYHOCv9fcNMPamC+FWEno9cx5wkjj6EPZgPvkqnJkemjts+Pub37t8+bLBCmcL/4Q2oo+Xd41q1cOCTcl6Z06dppFOILInEIjsTdsnjh0H2XPd7oM5vzFyvCLc3B4M9NvTrdOlVk1R+Z3XJPlQx9YDkSlWsyYnmqvR+dRKSb1/NuTzmEJ+zOh5aIcjalRjrZk9b4hDGRdZ8TW8/Lx8NdCSC+nUO7b3qDpZg4PqNnap6RfZqE3TKcsQs2eWPZfcjq9IG8ba60FYHg9wORrcRRrpHKsEeAXQTzY6fVBUj35RXe+DSR3ePiuiXXpo6+6hLbsEN++oa9JW17A1Wt9q6jYNSGykqZWCh39sMtTxfGPrukclekbWhjM/JDI2Ao0D+Cx3Iz2zBrJ8nRuzyyO0Gi4IEh4dEhMPLR0vlCoEcsF+qAsbH8j251YDnGRhkIYT80EmoFZXuGgwBVC45LvgEDdnZ9A8CPu+3n3efP2N82fP8UXzQl43t9H5HPsNGzZUMQbvGdkve3QpGfQEInsCgVBEHps3vRvCxYm14XpOpCVOE5Tg7DIzIe5Il/Y3jD1yIOI2ISYai4Aojs30EM1tNuShRtPXcmQ87bFaYx/h2uGkDRUmx0kI5TIvOngaJrV3dG2U80HcBv7t6IYtklt11IRG+3v56eLqNntwUfKsDQ1nPV5/0nLEvNEjLjZneEzGkLi0AXHd7ovrlIMiOk6CPrVjZNM2EQ1Tw+o3DU5K0dVK1kYlacLjAvSRgcFhAboQX40OCxQ//yB//0A8AvzwvwBNQCDC8/hqXYAWdfbgZpTeoc4ND6MPX8/zunCbZ30jT+tYDjxS6uCZZ9vcOTT6/40hgBDGu8w/z62ltCHM8ma18thPdGiou2t11PIlxNda8sjiw4cP8+xetMEYvZC5WRWl6AqivgLGPdL1EeNnX1o/uR7/TzTOCUT2BELlpXkhr0yZNDkUrAWugtoMCMw/AJX3T6ckH+3UDtK5p9q1mFundkz16ojZg9Gq++vr9xrRbNY6UwLdA48ivS6wxxBLZJ/L6uv4QjsmpssK4ZCzhnx4MGWMJhAUCybWBOkhAQufubtPQHLP3A7TVzYaPadu/wn61mn6Zh10jdoGJacGJTWEJ8AvPN43JMpbGwpdPN9ALcflYPAALsMO/B2i0cI9jog4Z1XrgvDg6g64hya68MFpCAZx1jYesZDNh/HNdc0JYgF1xu5sAcSzvlGFnv2rjo99IIQfaWyvx0obOIvf2H3AtEowJtxBnxhF9TjBeDCyB/dHhYRBj8/Py3Pl8hV3bt02p3DRBrBnz54dO3Zcv37d3L4Hxo8dh3UDv8j49edfDIKFAhn6BCJ7AqHykb0ZlyB4z6eCc3Vc3j5JLi4vtm8LefYLbZqvbtQo3sUFvmiI5kIhv063+1JnrY9BV7rJj9WeuFzb6/6A7kOsFdrdoxKfNQIhdoTn8Rzde1Rij/sCw2JhTzMLWG/MQgcXYgWgjawVktgApA6j31cT7B+ghQwO8uEC/TWwxbE44OjcyLsiRbngAA263QR4+SDNrYZLterOLqDAKsZYuKWHMx6oXwec8X8nJ2zjI27OVd2rufq6u0O7hqnSMtc9T/w4yFhulcAp7zKmx9Ih0kjzjG5xMHEREdgVdsiy7VhefXRoOHuDR3W3Jg0a7tm1W2h7i2gezz///PP6tevatWnbMrXF7Nmzv/nmGwtkb3zzxx9+hK9gfXHw7dMnTzIQ0xOI7AmEygzm3RUyweXzF+KjY3h3NKK/vt4+9Zydv2vZ7Fi3js+0TG3ozJE91NwQaE9qn9Fs5hqO7Kesrjt5VXDvCf49hvAd3szJnn8FeXZInUOUHcH1mE7ZiNCDyBmVRhqtai7xDdnvqE2Dpe7ji2ewlzEbTscIlTFrhCZQ7+sTULOGh3OVGk5O1Y0PVozu6uIMHkVpXGxETKN6Ddu1aZ+Vkd2//8Chw4eNuX/cQ5Mmzpw5e9GiRUuWLF24aPHDDy+cM3f+rNlzp82aPXn6jFGj7+/Tp0+nDh1TmzRF01ich5rVq4GhqxoJG1+BkDxja6wAkHCH2oSann41vQPdfDU1fDTIP9BpQ7lsO+PKw9u9Zp9evR+eN3/tmseeefrJjWvX9c7OwTICsvY+NT2wn0P79vN9aYV8jO2jR48uWLAAWghsUdIwpcEnH31sIWYv+OCVS5e5WsGa7ozsk+Lj7t75j4Y6gcieQKjElr2lCq6//vjTGFTmusHiWRsRBcXWrk5On/bM+LRXdpeqLuHg17BwTy//uOYdW8xYhZg9V303ZXVo/4m+3QbxArFMIV9v7OYOdjdtZHJ6OzHIhO+YGZbUICIyTqsNhu8e/vM4jdGFrtUwvXqjfVykAstZ/Ajre3lXc6nqUsWZkR/YF/FpMC5YsEunzsOGDJ0+dRos4HfeevvL/32BH3Jw/4EL587/d/uOKYeNxa+L1jmFsewCw71vyDe9mF9w7cpVZC/+/edfm99+Z9H8h0cNH9axbRssStAOBz58qA5ACV/fsmts174JmUPjckbWvW90SsZAv4iE4EBuXYL34Dg3bdok0C7k/qcNCETaPAr28Nj2v/9du3Txzu2bRkH7ousyb85cb08v9kvrJNX+9ONPrFnnwsB8QV7+gH79sSgxrTb0wd989bWgAo/0cglE9gRCped7lvn14fsfgCc4GV24w0PCwkPDYqtX7ezt9UKv7H6IOHt4QPrN28s/MqVFs0lLURcHsq83dU34wMlCsi+qcS8kfkTomTCOrn2Oky6muruvr4ePj5cv8s9RbwYpOnSLxwN7RgpguC4UVi+y9qoaXd8ctTtXgxndqFGTzKycCRMeXLNm7TvvvPv773/++++pu3fzC4zFBQUFZq3cC0y0LSDy/CKy57dNj/x7lObuLVC8c+MmKNmQdzd30CAclb+3V0Td+u0nzG01a02r6atazlrfePbG5rPXd52xEgn/3p5+WLKA7BEUmDlzZlGSnXHHq1eu4iLrIXoE7JcuXHj31s0rly+y78UbT506lZKSwmjez8d3xbLlEk5+kZ8GeP7Z5zhPvlFqF+uS2dNn8E3uC88DgUBkTyBUcHq3bNuJHMgb128oUtYL1qEVrL5GjabBwa0io8PQL04fEgix2MSUJhMWclq2k1ai0W3E0Gk+3QcydTyTbl3asJDMEbymHiRxUBZfd9QsOPCd4hp5JjTyT2oSkNJS07i9PhV1cZ2DU7uFtOiqTWntER7nr9EjWz4uJjYjLX3SQxOfeuJJGOtHDh3O+++u2BZnBFYg+hX5lo1gybNScO/pEe7h8qULu3ftOLx/HxYEi+fPB5tCVg/yAKnTV6L7X8KkFTgJ6PkbN2l1yxmPRXbMcffwhYsCIQBE64cOHsLolj+28+fOeHrU9PH2xH6G9Ot35cL5ixfOMbL/+uuvqxiTBoKDg6dOnXrixAnx8kXI98JHYThm985dcHggWZFdwQbJ9Ywng0ieQGRPIFRWshdxPG8jAosWLATTI1IO6zDEKNSu8fFBij6i6Qirw/eOVi4NR89FkT14ru70x6JzZ/r2GCQiexatZ91v8Yxa+bghk1tMWtJy4qLUcXNajJuP4roWU5amTlnactrKFlNXtJy6rOXkR9uOnhGW3MTJuRonAyeuNTda3vmFQv9FdnmeodANLqEDb87o8sl+187tIPv8O7ef3rABdrmnl09Iw1YNpqyMmrYeJQkIZ0RMWRs9+bFmszcm9hqJ4D3iIHCNINjfqV1706LEUBQpuK9PL0QjqjtXSW3U6MCe3di/0bGSj+5E/fv2e/edTWfPnjXcWzEh9L7wR1jArhf/Z0FB/t28lHr13apW45drf/z2+72rDQKByJ5AqHyWvcWcLzyjGI/TiTPln+uKbH0tV57nHRzB9b6bwbnx60xbEztyth9L0BPI5vAKtXxPGp+uA9DoPXHsw01nbWgwaz0+njh5JSr1keWH/UCPL27Kujbzn4zrkOHk4tatWw/WktdEeIVrEYM46m71h1hBvoSTw+KpgOW9e/s/h/bt/e/mjc1vvY6UvZruniENUiH7Ez95DSx7PGDWx01amTJzHU6Ljz4SVX84XXhnnYRErqzuXqf7q6+8BLMe9QLIPfzu62/Q2IZ5I4p+Qr7J6/7v8RNoePP7779v374dVfjXr14z/ZPZWo31NsQDywVOKt8kBqBftWJlUZdbMvEJRPYEQiUke2uzPyOP8WPuL9ST0THyYNo7yIT38Ncl9h/XcDbX6Lb21NXxo+f6pw29h+wFcvTM0Gdpet49BrunDdcNnRk5dnHsA49yTDl1TdL0tbWnr02cuSFm1uNN5j0R27WPUzX3OnWSEc/mvdDMhLXwKBCXFVj+aQVCuz9fvFQQ+gnMzg887Xt2bD+4d8+NK5e/+OxjX08PtxruoQ2RtbAkceqaxInLuTYBE5fjt6TMXJv64AJNdBKS73C6/Dw84FE/fPCQyD9x6OB+7MLHwxPVfe++9TbWEPl5/wm/FOb48KHDQNV8QiID+tsGa3U5WdkI/O/bt0+Yxs+T/eJFj3A5esZLhuUa8v+F7XMIBCJ7AqFSmfRiSuMN6IJCZz7y0SbcP5ZVmTOpGT23rUPmfE1v/9ieIxvP3oDed2h8Fz/mYb+MXK61DO/GN4rnsNZzbJsnfk3GMJ9ug/x6DONS9nrdH3zf+PCBE+OHTosfMTtq3COpM1bVTe/r5Oah1WpPHjtqTlQS2rEyT0Wxr4hw6dxZkD0se7D+r99/DxGC6q7uISktYdnXmvIYljtJU1YhcaH+tDXJDy1NGjAe8n8aP3+cLmjlgq23bdt27/Ej4pCf2qw5mBt+/ifWbwDZc9l/hbhw4QLa1LrXqBkZHtG0cRPUGuTk5AwePHj8+PGo4oMCDwr53n7zLRj6Fk5LfsH7m95FdR9KBozaPnqkOl66cJFS8whE9gRCZSf7ewx63oY2beY99MBETr/dKBcTYiyEQ7FcTS/fiPRBRrJfATd+rfsXgOw5xVw+G99Yesc6y93TkTbd9AhOG4Lk/KAegwK6D0aH3IDO/aDB5505Mvy+sWhmX9030NXV9e/ff7unQM6EfL5QTU7KofR5KPbMYFeXz59jZH/+9Kndf/8Nz7yzi2tEw9atp6+oB7/9tDVJDy2LGz0/dNBk34yRId37hySlBBpT5ED2MMpfeOEFc7KH2p2zUepn1oyZd25c5zz5hZH1O3dA/bfuKQcQ/PSih8WfnF/w56+/JUTHeteoYRTu5coXuQI88uETiOwJBIIVvjQlu6GEnVOERUdXY8N1kD3K5MK69msyay3c13DjJ45bhMZ095B9evEPvUlyJ5f3//tm5GKJENWqm6c2DGnpWz7+yBHizRfPnmFkf/rE8cP7djdOqe/i7Bpcu3HtgRMihk7R952gyRnp32Mw+vxixQMN//B6TSH9iwgIThrofN68eWLCLjCsW7cOZA8f/bBBA7GY4HL08guQfydSwucdLdIujcJX8q9euXT25L8Z3bvBZ8A0+fH8+quvyfRhEAhE9gRCpaJ5Ey9xCeDGv1YvXWq07EONnXK4rvYh7Xs2nf4YyB5O7KQHFkMeXznZI30vPHsEVHd8QqOhWffsM085AkHxZH/q+LEThw+0bNa0qoubJqZOaJf7UIMAmg9MGxRiLDpAYCK65/DIhqnQ6meSugifDxgwwNyZsHXrVqMub5XO7dudOHIYkQJDgdjTIGR3i/1vzN6W9++JY7evX5s5dQpKBlj8BbrCy5cuM5CmDoHInkAgiJijMO0rnxWNGV/KR3RZrzeRPXRjApv3SJ1hTE8rJHuuFw6q7NKHmdz46UPlk31IxjBGliFZw2M75/hE1oLd+8iiBQ5C9iwb/9+jR878ewLVdM7OVbWxdWK69wvONqUi6tMH45kT/O85IqpZW/TmYYkO0MaHpr25Ob5vz14vD0/8a6P6KXu3b4dxf49nvqAoIb9IS4DfEPD2PTn8BXkHD+zLu33r6cc3VnOqwpIrWbtbtlYgTz6ByJ5AIJhZjUJbs8AA+diQkDBG9hC/0zTp0mzS8tqonZuyqvaDSwKyRwWkDbknZi+P7Fk3PNb3FmSvyxoW372vb2xtpypVx44a6Qg14jzZHz986MKZ05k90lyqVEXKfWz3+7gSA6gLZA3D8WMDnomInNzYlp19tFw/Iaj9e9dwR5eBi+cviPZ5+eIl5N/B2R4XFf37jz8i9Y//pbdv3/58y9YHJzyA5jfJdeomxsXXr1O3RfPU7MyscfePRXbelk8/O370mPlx3rxxDeI/t65d/fj995DnDxl/RvaPrV5DTE8gsicQCIZ7bEpeyqZQDYZtXzhzFpY9YvYxGn/0yPFObtXsoUfrTFmF8jOQfWDO6IC0Qayk3qIb/97Xc62SfWZubI/+AUkNoKuT1rWLKEmtTBiLJ/tjhw5ePX++b6/ezk4umugEWPZcEiJXcZDLVjbo5heWMyK2bQ9fdO9DO59gLUR/IXEDrX7xwRcYmjdtBic/pPK/+fzzqxcv3P3vNqu2P3jw4KABA5MSEpEJmBRfC6sBtAZAcn71qtWQ248HZHTRIGfMqNFoc3fz5k3+zJw9c2rH9r+xqx+2fYMmv/6e3ozsH9+wsQzPHoFAZE8gOCTZG3hVNkORYV2Qf+va9YSEJM6y1wYG+Pl7JTZuOu7hZDHZD7aF7FmMX0z2cZlDtPWaO1V1rZ+U5Ah923iyP3Jg/+2rV5FSh7S7wKha0d366lFwmMk9sHDBNsheD8u+Y6ZvWAwK4mHZQzYHjI6OA2KuzS/ITM/Aftxd3T54553rly+hAK9I+0+YdV/AdbiBnA6a2l29fAUPNPg5evgI2tWjSc+tW7d4IocPf++eXeis893XX3E9A718GNmzbycQiOwJBIIl3mdqNkVCunlNmjRj2fiwR93j6jcdPbvetJWJU1clPrgUZK/hktQG8y56vRTZmzrl3EP26cM1xrr8uKyhaCdTzc1T7+f/L/zVZW2O8nX2UMy9c+PqmNEjoW8TEBUb3bU3MgwKyZ4rNfTPHIEofnznbP+IOF2QNkILHT09cuWYI12wmuL+B/Pd2OPH5YVnnr559QoS6ywK+wgDGRYVhFh2BYr3sCKB8g/WDV99vjXQ2xdOBUb2WBMYBFn9BAKRPYFAMBFSkeJ6Iefg0bFjZ1ZnH6wJco+s3XjEtJTpj3ESeBMe5WP29pI9p7KnzeJ658RkDwtr3snDO8DN2fmn7743Z7syJHuI+j34wHiQvV9EdHTnXmFZHNNrMkyeCdQfwjMR37VXYEwS2vfBsgfdgtHRzsdc0Q9Rea76zqnKqmVLkVWH7L9zZ09fOnceGjh4IKiPJAkY9Dev34D5Ds1d1N9D+h6w0NmvIO/E8aPsILGr119+Cbo68OTj25E6wInqCFT0CQQiewKBcC/nF9mZXAeanj17g+zjg4LgJfaISGo0bBqnbz9tXeKER1idPa+gZ07qFoi/kOxNerrYMJJ9dHZueOtu3kHBcICjP72EiF4ZWPa3b06fNgX18f4hkWhwB7LHMZss+3QT2cd1u08TnxwYGMTIHnQOj73xTJqUehGeR0+dB8eNZT3u5s6ckXf7xv7dO/bs+HvPP//gu/DYu3MHHvt27cQDznn0y9m/bw+OAb76w4cOHD1y6NjRwyB4iAyiQAACAHgD/hXP2P+8ubNx6sI4bePgjO49qBEOgcieQCAUQ/YGnuwLDP36DWCWvT4wqIY+vvHQyQ1nrufIftyiQGOrG1Z6x6nmySR7gcXPNcvJHI7PRmQNi2yfgRw3cCFE4K116iulc1BQICT7/27fmTdnLlra++pCcJARmblFbvxCso/vMUBTK4UneyToNUxpYNxV3pUrl1AKD2c7cubHjR7FpO/HjMi9e+v6kf17oNhzeO9ePPBd3NdhY4+R4Pdyz/t3c5SPx769u9GFj1sEGBcEbGWA9+DwUC9w5fLFrl06oajP2KFYD6n8MnSKEAhE9gRCeSP7/IIBAwaBP6K1GpiMNYKjGgwc3wg9bKath1yuf9pwNK1H3Bpsx7F++nCZDxHZ4zk0OzeqS6+A8GgQIXzdZR5o5uVy8YBFvvSRRdWcnOB4iGiTFpk9XET22qzc+PSB2tqNAgK4RrcQrPV294gOjzh04CBk8pjVDmJGOGDSAxPwA8H3fXKykVV39OABsLWJ5o0b7JmxOP8n/8BS4Mi+ffy/sncW/Hfniy1bXV2gja9hPvzvv/3OQNF6ApE9gUCQJvvC+D3HF7m5I0H2MbogtMOpHhSeMmBc4xnrk6avjx01j+t6l2nFjS+D73nW57azRkT16IfatipVqqT3SDOJyZSdecq63jFCNdz9b/XyZSB7vyB9RKuuUVlisg8yVhPokpsH+GujtEEg+yBff39vn4/eex+MDmLmbHdj7H/qxIfgw0eCXpcO7ZGKD1sfLgQUziHDDtsIveMB8sbyAg/+T/ZANt+Z48cP7t7NrwbwjMpA9C4a3H8AUgIjUSSp06fUTUYmv4G08whE9gQCwSLLF4i3uWDz6NH3Mzd+iEbjGhhW576xKbOfTJj5RHTuTDSzKepkXxiPF6bpmafs3ZumV+TYh30fnT4oOKGei0u1Okm14TmX2Zm3FMgeKXKPr1vrCjc+NPJadIrORp09V0QABT2IAHKJCyD7rGGoJvAPMJE9EuXgyX/rtddB8KBkEysX5C9ZvAisjNK7lNq1f9q2DS12/vjpJ2x8vXXrh5vfRZLdk09sXLF86dw5s6ZNnfzQ+HGI8U956ME5M6ZjtfH8008h5R67QjUgs+zh5MdZQsNcROt1gRo0t+WFcgtdMwXE+QQiewKBYJXsDSbLPm/cuAmM7NEEr4Z/SP3eoxvPfTxh+sbwIVP9uw3imb6o0929enl6yzp6YrIHX0ZlDgmp06iGmyek+uAAL9uO7LDIebJHVvwrLzzv7uzi6RsQ0rxDTA7XsZeRvdGyzw3KGoEVQEjT9r7GbHyQPWRrQcBPQtkmP49Tysu7i0K7Pbt39uvbB5F1lDJi5YT+eNGhoZEQLQoK0vj4eNZwc3VxhnI+Qvp4cN5+waMql3ynmz19GkL1kOtnEX2sHtDvzs/LGwuLqLBwVnR3+uQpyxeVQCCyJxAIFlrBFqDiK2/KpMmgEBisaNbu7uXfMKNflwUbG83ZoO33oFd3Tj6Pk48VWPbWEvSE3nue7HVGZ7i2B+cMRywc7WS8fQKgVffF5/9jZF9WfA+/OmiVkf3Nq9c+3rzZv0ZNdw8ffdM2sTm8Zc+58bHB9cLJHhbesgtP9jCyoVS/aO58eOP/+OVn2Os52Zk+Hu4ebq5RIWH4V6wGoHbn6+7p5+Hl5+EBstf6+YHOg/z9GLsH+vo1bthoYP8B8+fNef65Zz7f+hny87kWfLDpD+6/fu0KlmJ4Mcg/APq7MWER2CGi9aj3M9zbQ49AILInEAjSZM+JssyfO4/1d0GvdK1GB524mC69m4+dHdd3HKL1jNRBfizPDtxfLNkLCvC4bV50NiJnZEzTtr4BOpD9U088WbZnQ0j21y9fgZs92Me7pru3rmHL6KwhjOzZr2Bkj2oClA76BXItbhmXQ6a+TnxC88aNQOHMUvfz8sQ2S5hnjWhhixsf3LmNCA4G5cdFRSKu/+Hm9/bs2Hnt0mXjJeH8K8ZkyTx4CJBAAC2d3379eeqUSdWqOMFPEBMRyfLyIkJCb1y7biBjnkBkTyAQbOV8FMLxtIQUMOjGuLn7+IbFhTVsHd+lT1ROri57hInss3KL7Hu2CDB2w2M94u4h+Mxh5mSPhPz4ll38tSFVqrjMmDadmfUm9dhSt1PhdQfZs6I4ZOajb01sqN7VzQOavrFZg/BjA4w/Fg9sgOxx8OHtswJ04TDr2bmKDg2H7Q4Hu6+nF2NiRvNQv2/ftl1ORmbusOEjhw0fNTw3JyOd8b1PzZrJSYlvvvrK8YMHYcFDHQ/HsOufv3/54ftvv/oSrW6QOoBYfq+sbNj9iP1DHBffwrz3eHz5vy/EF5Dc+AQiewKBIIfsX3npZWaJmvheC5e+Dmarp0+gT1i8tmn76LSBsT1zQ8H3GUN0Ru1bkxGPRH38aWR6Edkz07+I7DOGMrKv1T4dwjVQnends5dJINZQNvIwPNnDskfXu11//ZWSWKtqNdeg5GZFZJ9p8mrgV2DRU6tLL40+Mlyj488VM7hx9po3bjJ96rS3X39j146dEMgz8NZ3oRYekvMRJUEIP8DHG/a6d40aMPTjIiLA/fUSE6OQeOfn5+XmVs0YzoffHqn+fDiACem8/OJLhkL1w3vIntR1CET2BAKhWOzdvUfgcOai0RyHBQVF6YKRAe7jGxgYERfZrCN61Mb04irOobRjlLu/18pP56vqcxk7sq72fPwe3AnN+cQuOWg2g4T8Bsl1jd3gDDyBlXLVOOrcoGDDEumhWIdc+hYNU5xdqgUmNY7NGMh5MnqOCssahlA9aB6phQlp/RPadNGFRuDM8OcKj56ZWVs/24J8/iKCFxA9jxPHjiNrjzkA8AyJe3gFfGp6eFR386zq6lfDQ+vthwUW/glvY3s2hQOC9W1bt0GKAwXpCQQiewJBEXpm53AWpDYYTA++4ShHp0PKXnRQUIxWy8no+gb5xdQNbdklPmswyI9P2WM2vVBcjzn8C7mfk+LhyR7vjO/eRxNf193dE6bt/r37CgqsuRtKHHduXEdhG0t6h4I95Gm7t2uP+II2oX5yRj/wfXi3fhEdMiNbdwtu2j4gubl/XJ2A0CiuHTDnkDc5QsDEP//4E98yuMhXYTDZ38J+BDu373hg7Dgo3darXYdfK7BzLvITcOrF0THdOnV+eN58rCQs9hEQNc4hEIjsCQSCZfCcdOXKlay09CIO06LbiinRjOck9MTz9gP5145u1TkhY0BUzjBd9vDAzGEsf4256xmvswcnxcN1lDH5843SNMPjMgdpk5v4+PqjqB2N2wsKo/UFgsZxpQMo3vBkD527axcu9O/VC5mD+oiYyNr1guPrwJ8RGBwWEKjz89UE+AXi58Om58+JKf9OH7L9739Ee7ZKwIX9bW/fvLVvz95tX371zhtvPv34ExseW7vi0aWrl694fN36Z59+5tOPP/n9198unr9g9HwUWOT4/Pz84r+OQCCyJxAIjCeK2qYVGJ5/9rnWqS2YWY8HNkKMfAbuZ1Z+ZJA2yE/j4a+DmRvWqivM3+iew0WFecL4PfPn813t8WdMNhrdtvQP0FQ3KuQLuu/d6wEvBcv+tkkMh+nf5d28OWbESFTEoWO9v6+f1j8InQLCNfjJmiiNBu6NqKDAaJ0WpwIcD2Ub7rQE61E4J109aKGXnXC7oDDoLtowPnhGt2bEk3FPILInEAi2sT5vff5v6+fo5hIRguB9MDPxRVY+HoH+GqOVnxjVvANi+VCXCzdm7MNXH4iuuMYWscYVQC663oVy0jSDOeLPHAqyZ9I0IPvRuSMM+WX2k/Pu3jmwfy9rK8d6yM6cOg0J8EbfBnPUc7yu8fNHF3nO2W6MtRvXQNzribUSFj68gHewm5vg5n9a25a4HMXulpieQGRPIBCKJXkDr2xzb9Q8H23cntywvm1qqpHpOSs/1Jg4xnL1YeXjGeavZ0CwT2QCdGSjOvUEkUfkcCVqAoXdXL4in89pR7W6T6CuhlOVNi1aGvgEvVInrfy8/9BYlid7aOM8uugR6ORgiePv6elapQok7ZAVH+gfACM+WBMUxirrjKufjes3XEGJ/L3y/tJcbvEVi8oH0va6/BUDgUBkTyAQil8GGIyx4VdffqVdm7bCPLJQbYjRytcZmU8fFKjx9Qn0h+mblBKd2jG+c89aGYPQvR5d4dH8hkX0YesHcBb/SG32yJBOPfFmH9ea2MmFc+dNpFWKGXqFNQB5aCGPhHzWeg5kv27lSvgbkCePQvkObVqPzh2+fs3qn777Fsr2DevWRYk8fi8UdWpFRYn68yolXaqVJxCI7AmEMjL4BRyUX4BUsg6t2jBnfkhwaJguFPQP5uNi+Touoo/kNX/fAC//IAjwaeo0Ck/tHNkxJ6rHABStRfccASc/LH4k7YfkjIrqep8mPA6cCrt529ffFJF9aSP/2NHDjOxZG9lnnngc1jw6ySJpDnY/ZOxg/mMRYLhzp1dGBtYBMPrxk1s2aWLxaO2nfCJ7AoHInkAoCSKXwzXmgeFNb7/TtXMXFryPCCrK2y+08rkNJK/5oYg8QAfzXReTqK/dMLxRm5jW3eI7ZsZ2zonvMSC5e5/wmEQktyNAvn7dYyZvdkEpJ+NzZH/82BGmmIsEPTSve+2lF9GlBvK0r0K+piAfredY+h7+aeKEB1y4RjXc701t0ti8Xx951AkEInsCofyRvdXIcYHhs48+zknLYOJuTCgGz5zViw4xuiBm6yNvH6sBaPL4+wf6+Gt9gkJ9QqP9oxL8Y5NDEuqHhkXjUzCjRw0fJlxSlK6Jm3/i+FHW+A5kD42dd99607V6VfgbXnjmWRA8azILvod9v2rZcpcqzixBr17tpFs3bhokc/EIBAKRPYFQTpYFEuyVb/h8y9ahAwcVFp0bzXo91Hi0LIcfSwGQPS8jj7fpgrTosqMJCEJaX4ixl0wNFxd0kSn9RreFX5d/6uSJwi63u29fv/LRe5vRsw5k/+Kzz+XfuoUVALPskaj/zhuv16xeLUQbhF8XFRbKUg0IBAKRPYFQ7pleqP7G1GD41jW8lb/rn+1zZ86qW6uWMWNfGxoSbNKAM4rzcA3igriktgithgX42cPYYU8f4OXl6+nBNbbPLwOyR2/f06dP8mR//fKFLR9/5FWzBtz4IPuC27eZbD4eVy9e+O2nH2MjI7imdlw9nu7vP//iPR9k0BMIRPYEQgWx7M29+oU57chqz0cd2rvvbBo+dFh0ZJSxx6uOxe8FGvI6YYCfq1bn1Oh08OR/8N77ZfT78s+dO1NI9nuvXbr45dbP0X4G7npU1sGah03PLHsmptuxQztXF2fObxGs27zpXSmHBCXcEQhE9gRCuWZ9yfcZzp899+EH7y2cNzejeze4u/lWLrzkOxOeM1G+PhhZb4sWLCxN41iwasm/fOkCmszy5vu3X32NtEGQ/fKly9BUnr1uLMw7kHf7zrixY7gcPeN6ZcnCReZkX1CGQv8EApE9gUAo9dUB9zh98tRvv/z69ptvPfXEk8seXQpSxwPa75MnTuLF+JCQj77vvLROqdJkgQHFdSD7w/t2H96/5/L5Mz9//x0iEc5OVXCcHNnv2cNK8PGMHL0Nj62BH4IdNnfM+fe4OsiZTyAQ2RMIldcTYDGfnyd7T9cakKHl1OgKyoDsb97gutwe2rsLMXuQPQLz0eFhVZyc5s2ZC7I/sm8fb9wjV//j99/z8XBHA0AcdmxkFBLyieAJBCJ7AqEysru0pcuH+VmHPdY7DsY9mrWXco4eA3rhQC734B7o6uy+ePbUH7//GhcbDbKfNWMmtHSYTc+eL507+8cvP8dFRfp5eBV1tiUQCET2BALB2poATV2Fnnw4+cuE7CGTx2Xh7dl5cO+uC2dObv/nr6TEWiD7hx54EKY8RHV4y/7ksaNI04OGbg2XakxdAEl8fAtaysknEIjsCYRKxOLFm/VG7Nmxk+8Kj6y3ntk5pS2MX0j3xw4d3L+bE9E7e/Lf3bt21EuuA7JHWQHy9dDk3tQAd/8+EP/1y5eGDRqIpQnLMRwxPLdMFigEApE9gUAoB6sBVrXfOKUBq8VH2D4mIvLGtetlcmCw1/ft2g5SP33iOJrgNWncEGTfu2evKxfOHz98iHfjs045D8+ZjaUJqyxo1qgxkT2BQGRPIFRq4978dVGl/vSp01gbvRCNFqJ13237ttQOUnio4Hgmjw9H/Ykjh9u0SAXZZ6SlI0gvJHs8CvLvrn1sNZeQr+fWKBABPHHsOF13AoHInkCodEwv3Ytd+P4tn37GYvagfJjLK5YtL+WjZc/nTp1kpfZgeijndGrXFmSPZj/YxiuM7Bnf3/3v9nPPPl2jWlWI5sInAeP++2+/o0tPIBDZEwgEq7h5/UZUWDhziSMQnt4jrUyEaC6fPwcRPdA57Pjzp09179wJZN+mVWs49hHFZzY9tvF858b1TW++ga72IRqu+g6Re05Hj0AgENkTCAQJDOw/gJG9r6dXoH9AmXSXuXrlEtz4oHNk6iFO3ycnG2SfUq/+zr//AvcLyR65+99+9aWnq6vO3x9kjyN/6YUX6SISCET2BALBMvKNVvxzzzzLWubgGRT7/ub3Sv9Ibt+8tXc3x+XIt4eg3uBBA6CgFxsdA98+0u9PHT+GtHxD3l1I5Z86evSRefN8XN3CAjWs1P69dzdTxR2BQGRPIBCkyP7o4SOmans9F7aHjK7BUry/RAk1/27egX37WYndf3duQQAfy46oiEhY9ki/h2//1x9/eP3ll8aNHlU7Ls6jenU08UMvHEb2fMyeKJ9AILInEAiWAY5EdJx58tFYtmnjJmWx7ig4cugwJ5qLfPv/7syYMhmlAVh8ZKen5WSkIzkfnW1dXaoiq8CjuhtyCSP1oaxiEAkHd27dNpA8PoFAZE8gEKSBljPMkx/kH1C9arXdu3eXjkEvWHEYTp74F2F7WPbw1S9e8DDX2i5Y71bVpVoVJzwH+HhjOQL6ZxJALFqPN7zz1tulfagEApE9nQICoXzZ9Gzjl59+NonkB+sRLN+wYUN+fn4xfXTUJnu05WXVdwW3bz+1fj0se47dWRNeY2Wg6Qh1oeHBYaxd71MbH5fqZ08gEIjsCQSCQdAUJ6V2XUb2nJpNRkaJMqjFFnzouYfqO66S/saNd994w61qNX2QlvWt5xci3EMXWjehztSJk3bv3MVp5xHREwhE9gQCQaZhPXv6DKMlrffz8vbx8j5z5ox0dxmZXWdkNuID/rt9Bwl6aH9348rlL7du0fj44RGpNTntU+om9+1z36OLl0AFiLXiJRAIRPYEAsE2U/vbb7axsD3i4jDuX3nlFflN5ORI9RWzCwQN8vJh1oPsIbCDPrbIvPN192Q2/X09eyELz3Q8BQZiegKByJ5AINgAxOZNG3fzatdK4MP2QwYNNpnvRm7lid/8uViaL66KDwWAedcuXUR9HSu9O33sGCRyU5s0dnVxxuID0frhg4cYTNEG2asHAoFAZE8gEMTUm1/wwPgJ8OSDXN1d3YK1urz/7rKlQL5BSnJf6J+32RlQwGnnHT1yCNH6fTt2MPX7YwcO3Lx6pX+f3sjDZ5Z93169RWRPIBCI7AkEgj344vP/mdR1dHpUvr3y0stFpjlLhcsvkNlPVuhr57dFXoHLly7AggfNs4o7poaLZzSwNxTkr1z6KI6BJeFnduthIvtCNz5Z9gQCkT2BQLDRrGfIL2CefFBsoLevLlCTnZm17NGlCOdzfe4Lini7WAveamC9wHDr1q2zp88cOnAQhXYcze/lTHmwPhrf3b5+DTQPsx6dbefOnFHduQrLzmua0rDgv7tcXJ9i9gQCkT2BQFDE9wWGhfPmM+M+OjQ8wMsHinUwr6s6uyTWSkAUf+XyFR++/8GuHTuRTIeHkP6L2TnnGMi7fu0KutocP3YE/yELD6QOKVzD3bt3rl0D08PE/+TjD5csXtS3V8+4qMgALy8I4iIbny0+jh8+whv08oMFBAKByJ5AIIhZGcXrvCefWdX4EyZ+zequSNEH8SN3z9vdA/3o+vTqPXP6jI3rN2x6+50fv/9h3759qIjLy8sT79fo/7925eqFM0aeP7B//+5df/3263dff7Xl449efPaZhfPmjhg6BA3sk+Lj3F2rc2sLJydshAYF8WSPYzh35qxVhwSBQCCyJxAItiC/XauW0LEB0RYK2ujYn6E6/KmH0E2Qrz8Ub0xGv1MVPKBa7+/rlxRfq0mjxq1bturauUvvnr2GDh6CB6rmstLS07t1z07PwEaHVm0a1EmuFRUTHKDBogFS/GwP2EBWoDbAP1KvZ9/I8vCZWY/yeuJ4AoHInkAg2G/N30ui+U88viFcz6i9iOkZ8TMCNln8xop8ZO/joQ0IhBSPh1sNsD7H30YKdzF6AhiRs2c83Jyruldz9a7hjpwA6PCHaHUmXTzjw/gVrJ2djn0FXhwyYGBRdh6BQCCyJxAIyrn/6uUr4+4fGxcTy3MwU9Zjj9AgHVzreETpTKzPO/zZA6sBwfvFHgLhm3m5e+GjaDFh/N5HFi5i+f/E9AQCkT2BQFDLsmfmfcHli5c+++RTdMPLTM+Af95E/AJSF3G8+Z/GV3hxe13httFeF30wuEj6nrkKmjVqPGfGzJ3bd5jX9BPrEwhE9gQCQQXuF+H61Wt///nX5k3vLlu8BE71zB5pDevVj4mIZE1meZIWbZg/mNsfz/wr0eERdROTOnXoCNkcSPosXfLom6+/AY7PMxbamR8bMT2BQGRPIBBUY3pxkRtfZWfMrodS/YVz5/fs2v3VF19+8tHHaCr/4vMvPLlh44ply5csXAR/wOIFC9nzgvkPL31k8ZpVq9GO9vlnn3vz1dc++uBDfOqvP/5EqT12cvP6DX7ngjq9Yo6TWJ9AILInEAi20LylUnmLgvYSFGuSuzHwanlmr+TfI3hrbVciLrfWcI+uGoFAZE8gEJSSvUxmFTbIkc/BMpcXBAKByJ5AIBAIBAKRPYFAIBAIBCJ7AoFAIBAIRPYEAoFAIBCI7AkEAoFAILInEAgEAoFAZE8gEAgEAoHInkAgEAgEApE9gUAgEAgEInsCgUAgEAhE9gQCgUAgEIjsCQQCgUAgsicQCAQCgUBkTyAQCAQCgcieQCAQCAQCkT2BQCAQCAQiewKBYERBQYFoQ+I9Eq/I+ayS/TjgSauQP41AILInEComzdvxwWI/izdcu3btzJkzhw4d2rlz5y+//PLFF1+8//77zz333LPPPmuNMsvjqZMgfvxw/OQnjHj66ac/++yzAwcO0MAjENkTCATH4v67d+9euXLl9OnThw8fBnX9+OOPn3/++ebNm1955ZWNGzcuW7Zs7ty5Dz300LBhw3r37t2tW7eWLVvWrVs3Ojpaq9W6u7u7uLg4WcLAgQMr8AnEWRozZkxISAh+aZUqVUS/PTExcdasWTiZ0isGAoHInkAgqE9RMMGHDx/eq1evrl27NmvWrHbt2lFRUUFBQeBsZ2dnc8I2pzH5qFatWoVcIe3duzctLU14ctiG+bnCK6NGjbp06ZJyRwuBQGRPIBCkWEr4/Omnn6rF5cUiMjKyXDOcxcOGr17iBFo8n35+fl999RWZ9QQiewKBUEq89e2335rTkhzKr2KETLufvc6TfYUx66dOnWp+3oRnRuJMvvHGGzQOCUT2BAKhNMCTvYoee4vWLZ4jIiIq0qlD4oLEukfOKfrkk0/IsicQ2RMIhJI1TIEtW7aUhMdeZO+yP5ENUAHOG9uQOG+iXAdpxz6yIGlMEojsCepM6ASCtbFx8OBBJNV37twZufQsi95acpmKMfvyftJQrVC9enVVlkStW7em+5dAZO8oN7m0jAZRPqFi4NSpUyiLX7RoUZs2bUoia6+8x+zZDZWfn79mzRol50T0WagRkDgPgcjeEVkfkbZ3HAybNm1iG2+99db27dtppiAUuwSUzgbft28fisSI7C1Cp9OpGOzo27evxAUiEIjsy8ZExrbF+mPHAS9dQpMFQb7LyuKYeemll1R07FcMsocwjrrJDa6urogL0A1LILJ3ODCRLIfFxIkTaQgSZAJOaek3LF++XC1/fsUge0j/KjTlqxSCfx3eOGvrLQKByL7MEB4e7rBMjxlk0qRJpNdBkOmpkjb0GZBFr0oIv2KQ/bx58xTeoeaUj8ggDUsCkX3ZT4uiSVCtiF0J1Ts98MADxPQEmUxvLUIs/PPVV1+lmD1/QqZNm6ZiaSLbQLaN9GqMQCCyL72bnN9Qpeqm5Ph+9OjRNAQJEuPZpra2BmOlWdWqVSlmzzBnzhy1FAj4Vz766CPzeYYon0BkX8b44YcfNmzYgA5XaBxSo0aNYuNzKhK5RRlOf39/1EqhncmKFSvefPPNY8eO0RAkqIusrCyK2TM8+eST5qa5Qvz555/UDY9AZO+ghj7D9evX0dpy7dq1aHsF60fdLmESkmR16tQZN24c/Ks7duzIy8sjg4BQogMe60gqvWNn448//rDVdpd+A5oB3r59W9q5QiAQ2ZcetVsMagpfPHfu3PPPP9+kSZMSkiFjexsxYsSuXbskDommDILqdwG6thDZ82fDy8tLZoM7OUsBeE1ojBGI7B2L9S0yqPk/vffee+hiqZzpzV2FL7zwgsFYLmXteFglFbkBCeoudjdv3lyZ3fiiW8laQr6tNj3DN998Q+t1ApG9A93nxd57fOoTni9duoQeX3bPj+aVuEB2draIziXmI5opCCqCkX1lLr3jb23gxo0bdnS6sxiPa9iwoZzlBYFAZF8G63qZQIsR5c584We3bt1qbe1PpjyhRPHuu+9W5mx80f2FDYXliPzJPHLkCBE8gcjeEe9zm1YGaGmlljMfzxcvXpTpb6BZg1ASln1lzsY3v6eQPWPfOeE/gvJ6iy46WrsTiOwd1MS39joaiKmVnYegAHE5gSx7h5oKBg0aZPfa/emnn6YbmUBkX0GglvQYYC22RyCUDtlTNr5FPPzww7Yug1BrBxUdGlQEIvuKY/0jLZ/InkBkX4HJHvj+++9btmwpMwMfzgDU6FqcLggEIvvyyvrvv/8+kT2ByL4Ckz3P1lu2bOnTp4+Pj4950Syeg4ODx48f//fffws/SExPILKvIPc/WfYEIvsKb9kL73po4f3666+vvPLKmjVrli5dun79+rfffnv37t3E6wQi+4p5z7PnDz74gMieQGRf4cneVi5n72eaGQQCkX2553ty4xOI7Cu8G1/I9NL8bV5TRxY/gci+HN/8/A1PZE8gsq8kbnwRl5s/EwhE9hX2zieyJxDZV2Cyl8PlEv9KiwACkX0FQSUke5nzl5y3VeCp0D4CKMMTQmRfVndKhVkA2b0kqnhXvCL9WCL7SkT2wiBlsR2BK8ZNrvoxm88CjjYzEtmX0OApL+PfjtW5RG2hxaYejnkq7Lhetk6D5XqqJLKvdJa9RZayRl0W/yx3rK/WARfL9I5wZojsK6dZb/dxWmM1ibHtgOfE7sOz23Mp87wR2RPZl+UtIbEgrXj6ISXxc2Te/GWyNiKyr+TEL6fBd7Gr//K+4hG2OS6TiZTInsjesQx6QyXLPFLyY6U9Io5ztxPZl9DIcfw7xQ4xAPn+fAefK+zrQKgwbbN8GUtE9pXLsrdpBFek5OQyWeAT2RMcbXiL2Mg+G8DBWV/O0cqJV1r8s/xKLxDZVzrLnt/+77//Tp06tXPnzh9//HHbtm2fG/HNN998++23f/zxx549e86fP4/3GMpzObLyO9PibY/TgpNz6NChvXv37tu37/DhwxcvXsSLFLOvwPTp4GNe+eHduXMHo/rgwYP7jMCo5meAcu16uXXrFhoaHT169MCBA+ynHTly5MyZMzdv3jTY7unEG3DXY3rEfrCB+fP69evlInufyL4SWfYY4viZaPSZk5OTkpLi6enp7Ows8UOqVq3q4eGRlJTUo0ePhx56CF29f/75Z9wh5TQt/5IRdnwW3tETJ06ge8KcOXPS09Pr1KmDU4eTI+yW5uLi4uXlVb9+/ezs7IULF3722WeXL18msq8YwADAyAHzOeCx4cCw0LSV+Nkbjh8/vnnzZoxq3OC1a9dmo1rY+g9/Ckc1GgixUe3ICXrgYNwCjzzySN++fVu3bh0eHo7fhdtT1NIQP61mzZo6na5JkyaZmZnTpk3D/PbTTz/duHFD+td9/fXXojaJb731Fln2RPalN8QlDO4vvvhiypQpuGMt9vGUeNHi66D/rl27rlu3DivlUjbK+f4lFy5cAPticQ0PBO49dBx/7bXXnnzyyVWrVmEpM3HixNzc3Pvuu6979+6tWrWqW7duRESERqNBb/Lq1avLuTP5r0NbFMwazZo1k98HnW+ehq/r16/fJ598UsqmYZmQPejwl19+gU/oOyP4DR7mr4iA5rPW/gmfZf+KDbigcNHtM7txkNeuXTt9+jRcMjDIsHL93//+hzXcSy+99Pjjj69YsQK09+CDDw4dOrRXr17dunVr0aIFBg/YAoMHIwf08MQTTygZzBJGJKxqcDbYF6P6zz//xKj+8MMPMaqfeuopjOr58+ezUY1mfRjV6NKbnJwsHNVvvvmm/IPBV2BUN2/eXP6o5gc2vks4qkvU2yd/t1jxbNq0afjw4VFRUdYmLv7GlP6ZWAG0b98e0wimTYwW8+/Czxd9BKuEcuH7IbKvOJa9KD0HK9x58+Zh1pYz0GXe9sK3YRusD8tAuZOcPf/www9oO/byyy9j5l2yZMmsWbPGjh2LmRd+iE6dOjVu3DghISE0NNTX1xczjnlnUv7ALLor+Lfp9XqJ1ZKQMjt06GC+QzknSnSWMC/jd5WE39VxyB6eUiXjyqaxFxQUJDp7aEeLX/3qq6+CGsHZGPZwRIEaMS+zBV+9evVAAzDjMJULXTJybgqRpWvr5cCoBg9hVG/cuBG99dioHjJkCD+qa9WqFRYWhlHt6uoqsRCXPk78NIOMdFGcpY4dO6pydXBK2aguUYZjc5qEix6UPHDgQEwIdgykYl93d3eH0Y9BdfLkSf4bReMHgOVDZE9kXzbuLJgscGHJMeKrCGCT0S98EbPVM888Y7AxQG5u5bi5uYkIWyFVWPxRiF9IHxg88LwXxPx02f29aWlpCBNWPMued7fAxCwhdhcBFq1oCMETWxLLC/MdhoSE2Ho5QOFK1tMyDxKjWvqOw6jGe0RLZJuOhx/VwuEN///Zs2cNJaleZQ1YamCmlThddvgtrP0TpiP80i+//PLFF180f/Ojjz5Kbnwi+9LG9u3b4YEUHQ9vmErTthy739qthW2E9uFONygoUoJ1UuwNKX0Dy7m9GzVqZM2mhyt12LBhJWehwqxE/mNJGwGlb9njt4DsEd+Rv0BUwrhw8IgOgPfB2OG2tek44dJXfVSrNedY07/CpYGToyQuCvs41uj8qC4dIKbTtGlTOQsjmxY3Em+W/vjs2bOJ7InsSylmz25pRPXkTHOif01NTZ00aRLc5lifjh8/XmjUWlzRS98PcKkhw8W+XwFnpvDYrP0K+V44iy8ysjfX3Pjtt98QI7D2jfKNhmKnFSyJSrSioUzc+EjbtGnVaJ+Hhm3AhSAKACG+XuwXqbLUsIPs8ZEScjkI92lxzsHJ+f3339motvs8yLklAWQYlIITG1/Bz3IyDQDzA4avxc/PD3ETUTai3VMKYkZE9kT2pYRPP/0UgcxirWHRMEXW3v79+833hgnCfPaUSbTY0Gq1qOWz41fUqFHDDjve1smLt+yFeP7555UYfLa+H+fHDv0TRyZ7OEWQxijMeTZfGqriVsUEDe+LiFcQ+ZZwNavoxucjCHaPatWjG+zPBg0amPMiG9US61Q7IgsS/4RU9hKd5VATiHxJ6RCDtcND6gbyHBHgP3bs2JUrV+7evYsRi8oC5Cpi5p8xYwZKbOxek40cOZLInsi+NADOtnWAwp+MvCFz94Bwt8hysmmRK3oDEonlh+XYBs6bitOQnKvDvhdVN7Yu8BUeHkgRhb8VyY3PNvCjsI5BWcTgwYORCKnkMoloG3bYgAEDkHPOIsSi78U/KUzFkjm27SB74aguOdY3X8JOnz5dzo9V4msRsSxGNcpkSmhUoxaDJYXYenuOHj0a5fVyRi9SnZAOLOeciMYGEqSI7InsSxZwmLdr187WmxaZq5DLkIgI8K/Aq29r3EsIZLHa6gqGEgAyiRBTQPWLfEKV7wDAs2haRC2TEmvGbsdDyQ0Sx6mzRyiXzyCxj+9hFmP+hdYTsv0lvgjCLxjSH3/8MVaoKEsrudC4HacFoxrHBt+bTaPa1sWKKGbP8nNVXDTLfIO5g0EVoOSy2JvL/AjhBNq6dascmhduoyYTubQ2XaCMjIxyIT1CZF/OyJ4PM6NcWFhWJx8ITtsUR7d1ghYeD6qhrN1dxQLEj7pnJRm20lcHszAjBvmOTXXDrnx5boUke/5aL1682I4zCTkUlKtdvXrVjq/GyIHPlnfMKszbEsIOy160jGajWqI61D7wLMuPavvCz8pHuPmoVkiEKCG2b72Cgky7vxRZ9+waia6UxeBU27ZtybInsleN4EWvQFLGx8fHjmPDRGPTTYgol/ydW6xHR+qsHTc//x4E6lDapyLFsmkR3mBkTlnzCthUWG+3IxRuTxisqsuyOpSCHn6LtRJ8a6eld+/e9uV8mDMrpmxz6TQlsI/szQ8Ptn58fLzF1Ff7xhLyarFb1HZaywe09qfEhn3ACUeysFqDGaktiOA42Z5Ov2bNGoMy8Q8sMniJHumoJVJGVPmxRPaVnezNfU2QixLdADLvBKwP7DgATHA25ViZy1LCPlPSag9sYZ4nb/eUBMcysnJESyXR3hITE/E2LIyWGgHnMCRQUGOtimNfeDIXLFig+jThOGTPayVJW5D80iorKwvicere17Ckvb29VTHr7SN7axqXYESMKLUWIhZHtQgY1VhIsVG9bNmyuXPnikZ1sRU3Mgc55OfUunxCuTr5x4OcJOXjlpU4sRo/6ZsdJ5YseyJ7Nfmef0adsX2UA2U6O74dU4PChGGEKu0LVfAzI6R51fI3+vv7w/iwOPXD2Fq9ejVW9AYrfVAwSITKJDYxh8U3sCoy4Vcoz9J3BLIXXr4xY8YUe1qgigPFEhXdG0LAjDa3a+0bP0rc+OY/SsVRHRAQYFGHCn/CMcaPaovGwwcffADHgCoraQbUtqlSXAoBZvsOAPmhqowi9nFzzUHR+BGOCmqEQ2SvGtCRwj4DBQyHahOL07EqMTOLwXv+2HB6lTgzAChXqOJCt/gR3K6vv/66NGnxgHy6Eheo6D3QZpemhHIds4fKk/QXYbljTXBexXkTy1xz71TpWPYSvwULO+GoVld8ELA2qi0eG4rFVQze4343l7KwFVDkdbKrYhOSyUoGj/ldb1HDh5/fsNJCLR9Z9kT2amLDhg12B4/hELNpMhWOeJTOK0zrZREE+Xcgr4ktdObz8Vd1E+VQpCT6umK7WUPeXK1pEa7UYpcX5dSNj4Jm3oVuUZsFzYqQZ2qwvc2oTTM1g1CIwm4xZoWWvTngKBb6meymdvMXp06dmpeXJ+E2Mz9dwlGtPKygcP3666+/OhVK1doaRsQ8qa4zFfODhBIiakYstswhsieyV+qNtDjui/VMvvPOO/a1qMI7WX2aQlUZZEvZetuL3gxeVCVyz38K/kaUdUl8o0UfA9uAz18VYxHHwCZlJTaQo5E9Jke4kazFm5yMvROZ0Smdn6gkwUr0J4RTlFuuyhP0zA+VjWoVgdpadPOTNqytnVg+bVAhMKoVGrtM4te++xoZCcqZXgSo8Ug4TYXyD0T2RPZKgTQQJUfF610UFEL+V6MhpkJrA38iyU6h3bZ27Vq1LHvsITg4GB1FrcVWiz1IFPaoZYfJLIZ0cLIXnj1M9NbEzoD09HSJnkAqeu+Fu0LruTLJxrdoSYtGtYpmPUY1SnWkz6TEGf7rr7/Uur8wqpW4qeyrNmIYNWqUugsytoHlqbVvxFKAyJ7I3v55QQioktlqkQjfaXe+KDseeAVUOTNKSqoMxj5Xal0jeN6Uq30Jm60pgd1d0kuT7KUNRLbBoiGQuGHRVosjFp1ey+QGRwJgmZB9sXjrrbfUGtXIQlc+qs3zz0tnVAsH2D///KNk6QN1kBIaRda6MKAUooQWrET2lciyZxUgCtfa6J+t5BhA0qos9pGY7SBkj9lE+aURKerbfYqgVKjiNFEKZG9usfHrVKRWWFOzQdUyDMeyusErA9kzGRmFQ+iFF15QfiQItE+YMMHug5HTq0Ka74Vy4Cq6jlD2bFEQCRkGjkzzRPYOSvbmwwXi7QqzdSAopuR4UKysSjIamk0puSXUIvtnn31WldIgJJepQvYwFwyWCg4d0I0vfWwQVIiLi7N4NpCxZTFfjMheIdnz5xmjWhWyQYRFyZDmP4IG8Dbd7MLBb7H0RmYNAtuOiYkpoSARVATMT862bdvIjU9krxRIaRbl69pxB7JO83YvO9AeCto4qsQUldh2qpB97dq11br58VleY0vJMgi1+yqaBSUds7d2kHAg41MWzwNk4cv8Bq/Yln1SUpKKrkQwpZPipsAY1TblBhUIMGLECOWrH7TbVtfaZvvBmhUpkKIvRUcPsuyJ7O0ZT8LnhQsXOikoFlLFa41YrEajsfvbhR9kMpZlSPYtWrRQxYBmH4fom/JDUjfEWHJkL3HGTp48KWxzJwQTErAW8i+1ydEm4edyR/YY1SoeEi/moQQQ7rXbukBNpn2TjGiOgnfh1KlTBjVKPIQfnzlzpujbcdMJBzPF7InsbfPesxfd3d0VerSwUJBIfpYJVmmm3LLnl9tlRfYW+9nbDZEUiX3AQgrLKZtqAcrQsjcHojxMv1k49gAU2cORI/FbVFl1VXKyZ/eXKt5E/kJgVCs06/EMcQ5ztQw5Zr3Bei9KO+YcqDYtWrQIsXYVBxsWEKIC4LJKOyWyryBufIxLdO00J2/5Mm3sGUUsykVY0ezBSY2aHGRvlS3ZqxtkgYNa+SGBKXlxQ4dN0DNYychDS1AkgZvvoWvXrmhv7zi2TsW27PlRrcp5Vj6qMVEgQQej2o5CXwAJxWqRPU/5EL5knRdUcen179/f09MTCxqINWEDWY1E9kT2isC8xAo7USICp3wKgL69KjceYv/SvclLwbJXa42PPaxfv175tCgke4d141s8XT///DOfUCK60C+99JJD3eCVgezVWlGpMqoZ2dvn2pw4caLyA7AW74B2MnxRyvme/TpsY0O5NUVkX6nJHhV39qXFicJXfAdGJYChptbtJ6pJLddufHTvVteydxCyl2Y1NtlBpk1iDwgeiTSLiOxLwbJXBc8884zyQ5JP9uZrlOXLl9tE4XagQ4cOWNPs3r3bYIvOmIM3sSWyLzdkLxpJyPBUzvRA27ZtlZ8fc6lau1fZ5h3uiewdjexRZWDN/8G3SrMpRZzc+ET2MumTtZcsIY433ydGKYQucNfwiU3SsScVc/2I7MmyNwGtLFRxYZm3wLEDSNBVeMvxaQcffvghkb0jkz0uk9CNb14hAhd9sVMw+1fUkjjInEhk77CWvTn+/fffkrPprQFxfTj5kc3H5KuLDfaVOyufyN4RyZ4NI4W6lbzSE+Sy0VViwIABffv2hbYJaDsjIwNFKV26dEGr5nbt2rVu3To1NRVfB4d/gwYNkpOTUYwOhV0IpMDCw7yPZxZQUN5SFn9idiOyd3zL3nxAsmfp1ovmVx8ZfKWZdU9kXwHc+AZB+Y/yxld2ABPgvHnzRKIgDl5ZR2RfbsheNCHaHbAX3RXFdsMrfbz66qtE9uXIsheOz8WLF9s6AtEb1FC6VXZE9uXdsjcUiuiV2txl7YsQA4Ufi8+/o5g9kb36lr3drSDUvUNU7DLHb7zyyitE9uXLsmfgZZstyoNLXHomk05ufCJ7+RPg0aNH1Zp87Jg2RTYSFqyPPvpouWhaT2Rfbiz7kjgeVYx7u/cgIgbshyx7x7fshazGRqa5gmmxQ0I48JCVSW58InubpkGEGsvcshcC9fQrVqwgNz6RvWo3HhtJCrtcq2Llq3WniVYbRPaOb9mL3PiZmZkKhxCEd4jsiextAprEl1psUb4XISEhAUWnRPb2c5v5nxIb0juxb05xtGz8uXPnqjJ2yzxgby7899RTTxHZlxeyR9sPpCirMgZEVSGlnO5EZF/uyB4wV6Evc7DBDEVhixxEjXDsXwFYnBH40yp9Zm06747mxkeYU2HjGf7jOB5Uu71fRkAfFOGfmzZtsltrhci+1Mg+JCQEu0KQEnaMiutFyD+X1RRJZF8eyR4DIzo62qmMcvKlnZ1NmjRBp0ey7FVmeoOxgebWrVvRs/mRRx6ZM2cOnp9//nm4Uy5evKiKueBQXe8AFMspOQZhpFxJ75kSurhl2M+eyF7OdAZ1ZEiKgtuUiysIn6Gte+PGjTIpYSKyL49kbzDW3AtnM4Xa4conVaGrEr8RiYRE9qoBlQ/QahXWoQlPN17v1KmTciFuR3PjDxs2TK3j6d69u2Mu5ojsHdayR4cPV1dXJZOpRVMMG7iXVRkMRPYVnuz5sfHjjz9azAFyhDAlupKePXuWyN7+a8wuM+5PSLvISfrFM0QYPvnkE7vnDkcje4WWvRCqyOWWoUFPZF/6ZF8Sbk/zDM3SNPGJ7MupZc+wbds23t6zqf9niY5k9mJ4eHjpL17LPdkLewehrlH6ulo8+w8//DC/VihfMXvRWBk7dqzCockvflNSUgwVAkT2pU/2ChNHrO1EGOwsnY5hRPbllOz54bFr1y7kjVpMSyqTJazw23v37s1P3Q7bAc+ByF64zJ8/f76QtGy6qJCUN5TbmD2P6dOnq3U8woUnkT2Rva3sDoEdDCF1p0skN5WyM5/IvjySvchs+++//6D57eRgYAy1ZcsWB6+/d0Q3vnLTBLl75dGNLxwrS5cuVWW+xnaNGjXsbiFfcks6IvtyYdkjG//u3bunT59WfYpcs2ZNaQ48Ivty7cYXAtM7Sygpcze+EBqNxsGNJSfHIQDm/bh06ZIqF8bWpAkVyd5uOhESIQa0ikPTYspoudOBIrIvZbJHMh2Ynu12wYIFqrtApTOZ1R2fRPbl1LK3WHSN6d1c0rHME1NQV0xkb4OpN2jQIFUYDk3eSp/s2QFAhET5efj8889VHI4//PCDRfGi8sX3RPalSfbIGhHtuW7duiqG8/Fcq1Yt6UitiuOTyN7xyV5OI3nhP+3YsQOjFOKMEtF05cNVPu+oexUquBsf3kIVJVrlKx5gAKlo2aNvrPJ1z969e1UUtH/55ZcN5R9E9qVG9mFhYeYTLiqehYmfqtwsyM4pHZ8Tkb2Dk71N5ofwbZcvX37ttddQYGzO96L8bokGTmqN5xMnThDZy8KiRYtUjKw899xz8iX2Nm/erNb1RgqJcj8HUlH4Qmfl52TGjBnkxieyl38HQbbM4iBhv1fdvkpoeG+wLptNZF/ZLHv5iumi16GljyPPyMioVq2aisF4m/ZgtxZ45SJ7XLA6deqolZWG5+HDh8v/9jfeeEOtSCQrB1AeqULGslqjELpD5ZrmiexL2bJn2vgW51bINqgYtncqbHhf0sOSyN4xyV4UkrdjDJgvBSCrirM6ePDg4OBgaUZXvYX3kCFDiOyLB7wxKq6wsN26dWs5nMqGCNwAagVvNmzYoMoJGTNmjN1HInJYISFf9SAokX0FJnsJVrty5YpN/ezl3DIPPvhgSY9MIvty4cZfvXp1dnZ2fyNycnKkU94kvEH8xI7eysgtxfkpaQc+21Xjxo2J7IvHt99+q6K5ACCfSP63L1++XK2lxtdff6185sIeEIhSeCTCs/Hrr78ayjmI7EuN7OHGl0iSeuedd5TfLKJR+tNPP5VomInI3mHJXnihcXsKZy045Iv19sscM/v27Vu3bh1C+7yTX/WUPewwKCjIYQ0qByJ76NsrXG2JPpWcnCyfWadNm6bW9Ub1oCon5OTJk2r5OYCFCxeWax8+kX2ZW/ZCf2l6erqKgxN/+vj4WLTPiOwrT8wegO9dNDCkm8dbHC3mw0b4yvnz58E1HTp0cCoBVK9enSz74vHYY4+pe97btWsn/9tRqqfKzFW/fn3lNj2/jdYAarmesCuHJXuZh0RkX2pkz/eztwbINKGFnbpOUWGSDSXoVU6yHz16tGgssZ9WErMWKvfQSdziMLabAojsZU33TDNOxdI780JhiW9v1qyZKhcbee9qjUsmG6xiS0c4skrUU0qWfeUhewB9p1Q3jKTNOCL7Cu/Gf+ihh4QxWbbx888/25e7J+erUVDKWoyae5vkTLaiaBS69ZAbv3gojJrz14bPHvroo49kfjWS15DCpkpW4C+//KLiOTl48KCKxtP48eNLmumt7XPOnDnCikT7XLVE9g5F9rhwyKJSl+wRT+U1+4jsKyHZz5w503xKT0pKKlHjBLuVvmuKzUjl52TUSzusEeUocrnAxo0bVdTrwKyBUnWZB4BKX1WmKlR6qH5yWB6pKmcGq054X0tzILIr+88//7AjR4xj9+7dopucyL68kL35Eg3EzFbJKubno4FYSczsRPblwo2PtqUWEzlx79sd/pNpmfz+++/KQ1EhISFk2RcPPsVXybnmSXHevHnyv/rFF19U/o14RiRC9Unqww8/VGUmZUc4a9asUiB4w73qQJ6ensJbFwRpH98T2Ze5ZW9+pVB7Yn4jKFyVYsyTZV85yd6afxcWs7oK3xb3pjAyRaV3cs/7jz/+qNZkAbP+9u3b8ld2vDdS4fdevXq1JJZ1KOcQRYaUHCcUJ0rngjKkpqaa3xJQFIaYsa3nisjecSx74Z9Dhw5VK0ePfRY5Uzdu3CCyr4Rkj+o4a6No1KhR6oYgRdn77BlTk3nSgHxAVIcs++IBElLLGfjpp5/a9NV2B+yF41J+PqCtY1E0fStckbAihdJphNOvXz9rwS071hxE9mVu2VtjfWEzEoW5L2wjLS2NyL4ykL1oLAm/2lwU9auvvirRKQs7/+CDD2zNkRK+Yf369WTZywKaZysfZFOmTLGJxj777DNRZp99k1SJWszoD6ZiGpRaGn/Sty4qqawdwF9//WXHzonsHYTsS4hKRfOmxTAtkX3FtuxfeeUV6US5a9euqW6oCHcFgX0lg1aYk0RkLwWkixcbGjdvZyR0tmRlZckJNApfh6WrPCWQb95VQgtP5LjJHG0yUUI1TvzPR+69ta9GDo59O+fJXsn14slelSsFslceWMG0KD+ZtHTIPioqip9SZZ6oXr16qUXz/CuY2e3w3Fp8p0Wyt/Wq8Wsg5XzDf1Yh2bOfoO4SVjnZ46j8/f2Rv2nrKSp29LJfqhbfm+8BQ45J7NlxRyM7z+DAcKCYPbBt2za7JwhsIzwsJ8QoxIEDB+xw14jeicm6RJme7XnSpEnFngGbzh6mP2ttppRcRwgI4kJYO5g2bdrYPV8LVVrtJleRDaTwJz/77LPKDwmWPSN7VcaPKv0bbbXsceTWZHaUsL6oW7StfC98/5dffil9F9s6m6vFNGwJq/CSldCoVhJXtW8Ji3rpYvcs6nBm94+1OO9dv37dzc1N/qJQ+E+LFy8msrfh1GPis2lS4M36Bg0a2HGZ0cLLpixii+QKzYdSWAkBsLesaezImSzM34klvLTbQ2bIlt9GUE3iCuKfbEqctOjwVDJZAwiIGNRL8HnyySeV0xtKIlVxTqoiXM/OKutEZ+vBvP766yJPm/IjgbKpxNQs/7TAlaX8YHClkDkorcZqK958803lJyo+Pl4tT4NBcSNj9kFoySFh2dbDkHmZhJ5U84pQJU6gM2fO2O2rY0LplKAnFytXrixWM858NkE3WNbVzaZ777333lNuf8ydO1fk8FT9YvM7PHHihPQQlLkCFQI5dNCQskPlRnSb4fxDPVB6bbF//34l5+Hxxx9XHr+Ajw42qEL+4IEmXarEqg8dOqTWUFEljQCsZsdMDSjvy2x+pyMbxqY7S9jNkn8WJnzYtDIWLS75lb1at7nC9SK/CpGzjJZ59tRSLrdjVH/33XcyJ95ly5YZZLS6t9Wo+O2338wtCjkDZuLEiYbSSnyuIGSPnA4MXJvWVl27djW/5MV2Rjp79qzQSWXfMlbkZlTRxWdtn1u3brU7bG/trOKEQ5bg1KlT8o9EdJ4hVBAeHi59YOhqqPD8IKVDlc7TwgZrCq8UskFVmRbhtFBrnKBdrJNdVUMiYNazY3weP35c3cg9W8orv1LQcFTlqHJzc9W9r++//37lbnx8HKXLas08anUFg9PC1uNBc075+589e7bMOb/YWA9vK0LbzQ5GQADL3IQgsi8+dvL888/Lv/2KLb4UWZ9sIy8vD0087XCGC98QFxdX+qfIYF0CSKHbDZSPrDqwDpZBBuuZWcIXkVSPZnphYWEW/S7C1TFKHpSHXTUajSq/F84MtW5LhS0V+F/B+iepMk3AA688jRFAjxCZSyKRW8g+WrV2tOz1ESNG2LESFR5baGioWv4GZFyrWOcNFQ1VjspBRrXwOrK+ozYdz/bt2236FugtCvWV7fPVCT+VkpIi4UK2ho8//tjg8K1GHM6yZ+erefPmonx76flImpZEPj2kYGBuVRj9hSHLx1lLn/IVumolVjasBBEpr1hFQRAQAWBE0WAKg9chJ/nNN99A3QwONOioxMTESERYhK/zTK8Ea9asUdE/rIpG25EjR1RZfDAgCKKiT9huy174KRiL9k2aXl5eqvC9cCwNGjTI7kjZqlWrFIYShIcHWY5du3apktYqdJgrdMbgs/yotuOQ+HN79OhRFVMsp06datPxCDOmZSZKw2wTdSSxu2tOsUEEi0DznnLRUczJMQ/rypUriK0WO/Ql1vvWkmjgnISCvcI5Gu1iLYrllXTMXrhtX9G5tP1kbdva4qDYU+fu7g6/nPI58YknnlA3EoxnCHMq6bmCz2IYKMwWFKF79+44XXafqFdffdVJbYAmsTi2Nfa5ZcsWdT35DEhQ3bRpk622Gmunqa4zDIBP6/Tp00rua3VHNR/JVjKqkT+PrjNKTo75p9iolnkAxZa5WzsqPnfKbsAP7+PjY+vvzcjIKNHobcUne+YilnO9V6xYIXOHMMShDK98Uoa2F8IBjnBdkSuEYlY5i9+SmHmLBUKtMvMArDlmYD9BkYq1AlId+GlarRZhP1FwutgV27lz5xCMRHGaU8mgdevWMNBhYMkcBvAqo6qiVatWJXQ8qKGA7QL+Fla9FwvUWDqp17FaOBrhUpo8eTKO5/LlyxLXC9mgGDzqqlGZR2rhb0CtI0vDljN4+FEN55nqZ4YBoxoTHW/sypypSmFUP/XUUxjV0u4ZJMMLCzgttp21Bkgeyc8SEL0N6zZe0s2ibWPxxczMTEP5gZMjHxxfdm/R7uQ3sLYSplxZJMXp06d7eHjIdw1ZG16LFi1yqJAHXCDQEZJ2P9rN30pmaua+sxUgLXwQrQpQEhkYGOikUq+EYoG0A2jCwNZHMof5lI2kswULFqDpNe5tkAeSG2xN9bDvhNepU2fgwIEYciyLgr/oqHBDChVoBvmh1iL0Cg/MoncH7mtcl5EjR7788svFEsnJkydVXG5avD3h/GvatCkiSjBn0WoB4msYPAMGDMBpQUF8yY0W81+EIwGZjRkzBtoV5nSCsnV2YDh7wrwTxMuU6GQUe2wINfbs2RPmkMV6d9jQGNU4e5g/wXPCUV2iwKjGqYBfBMsLixMan6Bt389H0P2FF16QKceEf7p58ybW1mi0Y+tQFHUMJ7JXClhd3t7ecsJpuO2xnsU8iMDV+++/j/JcjCfQBtaqqnSRQSXr999/74D5DYwjmby/tV9qhwdejm/A4noChtfnn38u//iFzxa/VxWpFjnkgW3c+eanV1S5rq7rXjj1W7sELNGaBy9Er3AxJ4fJzGvPAByAHJMRK2wVT5H0rnCKWHPFEro6ciLreL1Hjx4WJlnZv0Jdvuc32KgWXS9zPQbVVx7SP9DidApfOrPKbF28igKOGKLIWHzuueegPYoFhOimxlJg3759CAmhoQnvHJX++cL9Y0ZCFrmhvMFxyZ4fmnDstG/fXo7lYX4rmo97i8NFWigKH8G6wcHP0vnz52FYyCEAmXlAEr4sCfuGNfm174cAer3eIsGUwtQDYJZh9TOi3Cv0VZI4FcqPsNhZBqmRwnPF0kvlXzVVVkXC11mWtRxAWUUVN4P0qMbki6gfTDo7FrXqXjLzLCIMIaGbwfxUlKjXCjvHGki4hDUUFiUhgbzkFhxyxpVoVLNzhWOzyL4w5BD4t6jiUOwchUEIhxyGBwxC3Dsw20R9myRWb+Y7RwrC4cOHDeUQDm3ZC5eiSFsVOZpkkpY1Ii92suZrfvhLa67b4AiRe2EMbOfOnfDuypHWUZ76K9zAbIswKrzNtoqfiF4R5U6WzqTDv4J0QnNlEhwka5VUbIhHrYQmc4imxXr16pW0dSgN+WSvSu+iYn8UZgaQvTC3o+TWiNIXnSd74dhmZC/RNZXNUSrGXIQQkr3wqMx7t/NTZUmvP9izNSEHtuIXgc/+geMW0RBpR519kUqJ08j+REKuzPxQInulrI8cCma8yqd86UEg8VmEcBCS2bt3b7F5ZA6yGBKlJoF6JWRrVYwxIwaJHDcEaOUnuEn8ltK0fizu06IYKu5wOWPMbiHxYhdeIocnpm/2fgnPv0LmkHZjwgUi/8oiHlwSznzRPpGPhlRqi0GHUlssYhvZu+bj31rMqESXQcLDw6g2vy4Y1U7WhQJL9KSxcWstKgrLW/QplvEu9LfByocHPiAgQMXrKHEGoMWOUpdyUV9X7sleSAlgMmiEieJzdi97zdGiRQuIKCHfxyJpiV4UavQ6CNPzgJH6xhtv5OTkSGcm2jG1sVp83IG4AYS5P6ISQTs8H3BLYNnesRCdOnXq0KFDxxIA9sw/M+B7kaNnsSknZhbklvNHIjok9id2hWCTcIdK0MEI7A0tGbGB4mPhmRw3bhzSwfiTI/xS4UEqORjhfvht9hvx1TgA+dcUMinYAz6o1pkR/S6cIlDswYMHobqBYxOekA6F6FhiEA7Rli1bwgFpfgYGDx7Mj2rhVWPbbEM4LJWcGdGPxfdCdsZimyUsj/Cv7P38eJPem1qXD4MBVw2j2qJtwNKPhNPOn3/+ad6DEXMv0mnRJQ+TBpruSExW8rMlRGSBxQRcNcgTN1iS6yl33O9UThcpWKsiJRiJ6BazOeQvftk/YXh17twZOudwg9vKqY4fAUE2CkR2YX+DsZQQP6tVg8oe0l7ka+vavXAp/TMvvTqx759KdD1XyifKMT1bZXtUtkqyl+jR2qelY/dvUfcg+dfRAhuTTH8jsIE0z2J3gtUMuhrOnDkTQX2FZQX4OEL72BXExJhigR19Q4jsS2TQgMlwmZcsWYIFLPRrhatCCcDjV7t2bVSAoGgHHxema1ZsQCDl77//hsWPMjPUUMHux+0BvxnCinD7w19SwwicH0TO8DoW4Fg4Q7Ditdde27Fjh4FAIBAcGIj2QoMBLhZ0McD0BSEmzGbmFT3wTaKVLWa5unXrwmhE0BYaR1AI5QsCy7vTvkKRvcXrAZ0NaFag5wrcO6iOQAElLiF7Bl198MEHcF7BfWQxD6tCXmD5JhE82FgKYN0DcUC+qUPlOScEAqEizWz8xIXZDCVdaMGHHCyww549e7CNNCMJG69CTnpOFfJiG6zL5RoUdEmq2OdHlfcTCASCgxgw0h74so25ENmX7GgQJncQexXL7qUTwyMQCAS1Ji6Z77Fmxpi/p8LMe07l+qKKCInPjRddJGtdLytM5oVai1/idQKBUPHsFlvXCuYMQmTvcIs4izEbc5KzmHddsRlOYaYurQAIBEK5mOikZyo7SoKJ7MsNn0m4pivtapdAIBAq1fxv02crXrqSU0W60jK5nAhPvj+fQCAQKqdLgBL0CAQCgUAgENkTCAQCgUAgsicQCAQCgUBkTyAQCAQC4f/t1bEAAAAAwCB/62HsKYlkDwDIHgBkDwDIHgCQPQAgewBA9gCA7AEA2QMAsgcA2QMAsgcAZA8A3AJD+k5wIWWWLgAAAABJRU5ErkJggg==" vertex="1" parent="1">
          <mxGeometry x="511" y="232" width="224" height="200" as="geometry" />
        </mxCell>
        <mxCell id="1JW5AIUkaNVzZbY3p2NB-16" value="" style="sketch=0;points=[[0,0,0],[0.25,0,0],[0.5,0,0],[0.75,0,0],[1,0,0],[0,1,0],[0.25,1,0],[0.5,1,0],[0.75,1,0],[1,1,0],[0,0.25,0],[0,0.5,0],[0,0.75,0],[1,0.25,0],[1,0.5,0],[1,0.75,0]];outlineConnect=0;fontColor=#232F3E;gradientColor=#60A337;gradientDirection=north;fillColor=#277116;strokeColor=#ffffff;dashed=0;verticalLabelPosition=bottom;verticalAlign=top;align=center;html=1;fontSize=12;fontStyle=0;aspect=fixed;shape=mxgraph.aws4.resourceIcon;resIcon=mxgraph.aws4.s3;" vertex="1" parent="1">
          <mxGeometry x="573" y="492" width="100" height="100" as="geometry" />
        </mxCell>
        <mxCell id="1JW5AIUkaNVzZbY3p2NB-18" value="&lt;h3&gt;Devloper&lt;/h3&gt;" style="text;html=1;strokeColor=none;fillColor=none;align=center;verticalAlign=middle;whiteSpace=wrap;rounded=0;" vertex="1" parent="1">
          <mxGeometry x="110.40999999999997" y="372" width="60" height="30" as="geometry" />
        </mxCell>
        <mxCell id="1JW5AIUkaNVzZbY3p2NB-19" value="&lt;h3&gt;API Gateway&lt;/h3&gt;" style="text;html=1;strokeColor=none;fillColor=none;align=center;verticalAlign=middle;whiteSpace=wrap;rounded=0;" vertex="1" parent="1">
          <mxGeometry x="358" y="52" width="60" height="30" as="geometry" />
        </mxCell>
        <mxCell id="1JW5AIUkaNVzZbY3p2NB-20" value="&lt;h3&gt;BitBucket Repository&lt;/h3&gt;" style="text;html=1;strokeColor=none;fillColor=none;align=center;verticalAlign=middle;whiteSpace=wrap;rounded=0;" vertex="1" parent="1">
          <mxGeometry x="358" y="362.5" width="60" height="30" as="geometry" />
        </mxCell>
        <mxCell id="1JW5AIUkaNVzZbY3p2NB-21" value="&lt;h3&gt;AWS S3&lt;/h3&gt;" style="text;html=1;strokeColor=none;fillColor=none;align=center;verticalAlign=middle;whiteSpace=wrap;rounded=0;" vertex="1" parent="1">
          <mxGeometry x="593" y="602" width="60" height="30" as="geometry" />
        </mxCell>
        <mxCell id="1JW5AIUkaNVzZbY3p2NB-22" value="&lt;h3&gt;AWS LAMBDA&lt;/h3&gt;" style="text;html=1;strokeColor=none;fillColor=none;align=center;verticalAlign=middle;whiteSpace=wrap;rounded=0;" vertex="1" parent="1">
          <mxGeometry x="593" y="52" width="60" height="30" as="geometry" />
        </mxCell>
      </root>
    </mxGraphModel>
  </diagram>
</mxfile>
